# Blender v2.82 (sub 7) OBJ File: ''
# www.blender.org
mtllib bun.mtl
o Bottom_Bun
v 9.657043 2.501000 -1.178586
v 9.849045 2.501000 0.772414
v 9.237873 0.002000 0.655504
v 9.068897 0.002000 -1.061556
v -3.749451 0.002000 9.458440
v -3.636978 0.002000 9.492494
v -3.978954 2.501000 10.012414
v 9.088047 2.501000 -3.054585
v 8.163044 2.501000 -4.783586
v -9.959953 2.501000 -1.178586
v -10.151955 2.501000 0.772414
v 5.404045 2.501000 -7.542585
v 6.920044 2.501000 -6.298586
v 5.404045 2.501000 9.087414
v 9.249504 0.002000 0.772414
v 1.565105 0.002000 -8.459068
v -0.151955 0.002000 -8.628046
v -0.151955 2.501000 -9.227586
v 1.799046 2.501000 -9.035585
v -5.707954 2.501000 9.087414
v -5.271130 0.002000 8.644355
v 1.682137 0.002000 -8.447557
v 7.664589 0.002000 -4.450482
v 7.590004 0.002000 -4.541252
v 8.478672 0.002000 -2.928802
v 8.534073 0.002000 -2.825082
v 9.034843 0.002000 -1.174029
v -5.374851 0.002000 8.588958
v -9.371925 0.002000 -1.061556
v -9.383438 0.002000 -0.944645
v -6.798962 0.002000 7.420420
v -6.708191 0.002000 7.495003
v -7.222954 2.501000 7.844414
v 3.445663 0.002000 -7.912611
v 3.333187 0.002000 -7.946785
v 3.675045 2.501000 -8.466586
v -2.102955 2.501000 -9.035585
v -9.552414 0.002000 0.772414
v 5.070942 0.002000 -7.044009
v 4.967342 0.002000 -7.099406
v -8.836979 0.002000 -2.825082
v -8.871155 0.002000 -2.712608
v -9.390953 2.501000 -3.054585
v -7.968376 0.002000 5.995310
v -8.466953 2.501000 6.328414
v -8.781582 0.002000 4.473631
v -9.390953 2.501000 4.599414
v 6.496052 0.002000 -5.874591
v -8.023777 0.002000 -4.346761
v -8.466953 2.501000 -4.783586
v -3.978954 2.501000 -8.466586
v -5.707954 2.501000 -7.542585
v -7.222954 2.501000 -6.298586
v -9.959953 2.501000 2.723414
v -8.836979 0.002000 4.370030
v -7.968376 0.002000 -4.450482
v -9.337753 0.002000 2.718978
v -6.798962 0.002000 -5.874591
v -6.873543 0.002000 -5.783821
v 9.088047 2.501000 4.599414
v 8.163044 2.501000 6.328414
v 9.657043 2.501000 2.723414
v -9.371925 0.002000 2.606504
v -2.102955 2.501000 10.581414
v -9.540905 0.002000 0.889444
v -5.465622 0.002000 -6.969426
v -5.374851 0.002000 -7.044009
v -3.853172 0.002000 -7.857214
v -3.749451 0.002000 -7.912611
v -1.985924 0.002000 -8.447557
v -0.268864 0.002000 -8.616535
v -2.098396 0.002000 -8.413383
v 5.161831 0.002000 8.514375
v 6.920044 2.501000 7.844414
v 6.496052 0.002000 7.420420
v 9.068897 0.002000 2.606504
v 9.080528 0.002000 2.489474
v 5.070942 0.002000 8.588958
v 3.445663 0.002000 9.458440
v 3.549263 0.002000 9.403043
v 3.675045 2.501000 10.012414
v 8.568127 0.002000 4.257557
v 8.534073 0.002000 4.370030
v 1.799046 2.501000 10.581414
v -0.151955 2.501000 10.773415
v 1.682137 0.002000 9.993266
v 1.794609 0.002000 9.959212
v 7.719986 0.002000 5.891710
v 7.664589 0.002000 5.995310
v 6.570633 0.002000 7.329530
v -0.034924 0.002000 10.162244
v -0.151955 0.002000 10.173875
v -1.985924 0.002000 9.993266
v -1.869015 0.002000 10.004897
vn 0.9680 -0.2323 -0.0953
vn -0.2819 -0.2323 0.9309
vn 0.0000 1.0000 0.0000
vn 0.9679 -0.2322 -0.0963
vn 0.0953 -0.2322 -0.9680
vn -0.4588 -0.2323 0.8576
vn 0.0000 -1.0000 0.0000
vn -0.4582 -0.2322 0.8580
vn 0.0952 -0.2322 -0.9680
vn -0.9680 -0.2322 -0.0953
vn -0.6175 -0.2323 0.7515
vn 0.2828 -0.2323 -0.9306
vn -0.6170 -0.2322 0.7520
vn 0.2823 -0.2322 -0.9308
vn 0.4587 -0.2323 -0.8577
vn -0.9306 -0.2323 -0.2828
vn 0.4584 -0.2322 -0.8578
vn -0.7519 -0.2323 0.6170
vn -0.8578 -0.2323 0.4584
vn 0.6170 -0.2323 -0.7519
vn -0.9308 -0.2322 -0.2823
vn -0.8578 -0.2323 -0.4584
vn -0.8577 -0.2322 0.4586
vn -0.8579 -0.2323 -0.4583
vn -0.9308 -0.2322 0.2823
vn -0.7515 -0.2323 -0.6175
vn -0.9307 -0.2322 0.2828
vn -0.9680 -0.2322 0.0952
vn -0.7517 -0.2322 -0.6172
vn -0.6172 -0.2323 -0.7517
vn -0.9680 -0.2322 0.0953
vn -0.6175 -0.2322 -0.7515
vn 0.6167 -0.2322 0.7522
vn 0.9679 -0.2323 0.0962
vn -0.4582 -0.2323 -0.8579
vn 0.6170 -0.2322 0.7519
vn 0.9680 -0.2322 0.0953
vn 0.4587 -0.2322 0.8577
vn -0.4584 -0.2323 -0.8578
vn 0.9308 -0.2323 0.2823
vn 0.4588 -0.2322 0.8576
vn -0.2823 -0.2323 -0.9308
vn 0.2819 -0.2323 0.9309
vn 0.9309 -0.2322 0.2819
vn -0.2828 -0.2322 -0.9306
vn 0.8576 -0.2322 0.4588
vn -0.0953 -0.2322 -0.9680
vn 0.7520 -0.2323 -0.6169
vn 0.2823 -0.2322 0.9308
vn 0.8577 -0.2322 0.4586
vn 0.7519 -0.2323 0.6170
vn 0.0953 -0.2323 0.9680
vn 0.7515 -0.2322 -0.6175
vn 0.7522 -0.2322 0.6167
vn 0.8579 -0.2323 -0.4583
vn 0.8576 -0.2322 -0.4588
vn 0.0962 -0.2322 0.9679
vn 0.9309 -0.2323 -0.2819
vn 0.9308 -0.2323 -0.2823
vn -0.0963 -0.2323 0.9679
vn -0.0953 -0.2322 0.9680
vn -0.2823 -0.2323 0.9308
usemtl None
s off
f 1//1 2//1 3//1
f 1//1 3//1 4//1
f 5//2 6//2 7//2
f 8//3 9//3 1//3
f 2//3 1//3 9//3
f 10//3 11//3 12//3
f 13//3 14//3 9//3
f 15//4 3//4 2//4
f 16//5 17//5 18//5
f 16//5 18//5 19//5
f 7//6 20//6 21//6
f 7//6 21//6 5//6
f 22//7 3//7 16//7
f 23//7 3//7 24//7
f 25//7 3//7 23//7
f 26//7 27//7 25//7
f 27//7 3//7 25//7
f 4//7 3//7 27//7
f 15//7 16//7 3//7
f 28//8 21//8 20//8
f 22//9 16//9 19//9
f 29//10 30//10 10//10
f 31//11 32//11 33//11
f 34//12 35//12 36//12
f 37//3 12//3 18//3
f 30//10 38//10 11//10
f 30//10 11//10 10//10
f 20//13 33//13 32//13
f 20//13 32//13 28//13
f 35//14 22//14 19//14
f 35//14 19//14 36//14
f 39//15 40//15 12//15
f 41//16 42//16 43//16
f 40//17 34//17 36//17
f 40//17 36//17 12//17
f 44//18 31//18 45//18
f 33//18 45//18 31//18
f 46//19 44//19 45//19
f 46//19 45//19 47//19
f 48//20 39//20 12//20
f 42//21 29//21 10//21
f 42//21 10//21 43//21
f 46//7 16//7 44//7
f 49//22 41//22 43//22
f 49//22 43//22 50//22
f 49//7 16//7 41//7
f 19//3 18//3 36//3
f 12//3 36//3 18//3
f 37//3 51//3 12//3
f 12//3 51//3 52//3
f 52//3 53//3 12//3
f 12//3 53//3 50//3
f 50//3 43//3 12//3
f 12//3 43//3 10//3
f 11//3 54//3 12//3
f 55//23 46//23 47//23
f 56//24 49//24 50//24
f 57//25 55//25 47//25
f 57//25 47//25 54//25
f 57//7 16//7 55//7
f 58//26 59//26 53//26
f 60//3 9//3 61//3
f 2//3 9//3 62//3
f 62//3 9//3 60//3
f 63//27 57//27 54//27
f 64//3 13//3 7//3
f 38//28 65//28 11//28
f 59//29 56//29 50//29
f 50//29 53//29 59//29
f 66//30 58//30 53//30
f 66//30 53//30 52//30
f 65//31 63//31 54//31
f 65//31 54//31 11//31
f 66//7 16//7 58//7
f 16//7 38//7 30//7
f 16//7 30//7 29//7
f 16//7 29//7 42//7
f 16//7 42//7 41//7
f 16//7 49//7 56//7
f 16//7 56//7 59//7
f 16//7 59//7 58//7
f 16//7 66//7 67//7
f 16//7 67//7 68//7
f 68//7 69//7 16//7
f 70//7 71//7 72//7
f 71//7 17//7 16//7
f 35//7 3//7 22//7
f 40//7 3//7 34//7
f 34//7 3//7 35//7
f 48//7 3//7 39//7
f 39//7 3//7 40//7
f 67//32 66//32 52//32
f 14//33 73//33 74//33
f 75//33 74//33 73//33
f 76//34 77//34 62//34
f 74//3 61//3 9//3
f 69//35 68//35 51//35
f 14//36 78//36 73//36
f 2//37 62//37 77//37
f 2//37 77//37 15//37
f 79//38 80//38 81//38
f 68//39 67//39 52//39
f 68//39 52//39 51//39
f 62//40 60//40 82//40
f 62//40 82//40 76//40
f 14//41 81//41 80//41
f 14//41 80//41 78//41
f 82//7 83//7 16//7
f 72//42 69//42 51//42
f 72//42 51//42 37//42
f 72//7 16//7 69//7
f 14//3 13//3 81//3
f 84//3 81//3 13//3
f 74//3 9//3 14//3
f 85//3 84//3 13//3
f 54//3 47//3 12//3
f 13//3 12//3 47//3
f 47//3 45//3 13//3
f 45//3 33//3 13//3
f 33//3 20//3 13//3
f 20//3 7//3 13//3
f 85//3 13//3 64//3
f 86//43 87//43 84//43
f 83//44 82//44 60//44
f 70//45 72//45 37//45
f 60//46 61//46 88//46
f 60//46 88//46 83//46
f 12//20 13//20 48//20
f 88//7 89//7 16//7
f 71//47 70//47 37//47
f 71//47 37//47 18//47
f 13//48 9//48 24//48
f 13//48 24//48 48//48
f 81//49 84//49 87//49
f 81//49 87//49 79//49
f 89//50 88//50 61//50
f 24//7 3//7 48//7
f 16//7 72//7 71//7
f 75//51 90//51 74//51
f 84//52 85//52 91//52
f 84//52 91//52 86//52
f 23//53 24//53 9//53
f 61//54 74//54 90//54
f 61//54 90//54 89//54
f 17//47 71//47 18//47
f 26//55 25//55 8//55
f 9//56 8//56 25//56
f 9//56 25//56 23//56
f 92//57 91//57 85//57
f 15//7 77//7 16//7
f 77//7 76//7 16//7
f 76//7 82//7 16//7
f 88//7 16//7 83//7
f 90//7 16//7 89//7
f 75//7 16//7 90//7
f 4//58 27//58 1//58
f 8//59 1//59 27//59
f 8//59 27//59 26//59
f 93//60 94//60 64//60
f 94//61 92//61 85//61
f 94//61 85//61 64//61
f 64//62 7//62 6//62
f 64//62 6//62 93//62
f 6//7 16//7 93//7
f 6//7 5//7 16//7
f 21//7 16//7 5//7
f 94//7 93//7 16//7
f 28//7 16//7 21//7
f 32//7 16//7 28//7
f 31//7 16//7 32//7
f 44//7 16//7 31//7
f 55//7 16//7 46//7
f 63//7 16//7 57//7
f 65//7 16//7 63//7
f 38//7 16//7 65//7
f 92//7 94//7 16//7
f 75//7 73//7 16//7
f 73//7 78//7 16//7
f 78//7 80//7 16//7
f 80//7 79//7 16//7
f 87//7 16//7 79//7
f 87//7 86//7 16//7
f 91//7 16//7 86//7
f 92//7 16//7 91//7
o Top_Bun
v 1.792091 3.748241 10.401000
v 3.631091 3.748241 9.843000
v 3.414091 4.949241 9.317000
v -3.874909 8.413241 1.527000
v -2.035909 8.778241 1.161000
v -3.948909 8.413241 0.781000
v 9.686090 2.500241 2.732000
v 9.879091 2.500241 0.781000
v 9.686090 3.748241 0.781000
v 9.498091 3.748241 2.694000
v 3.705091 2.500241 -8.458000
v 5.434091 2.500241 -7.534000
v 1.829091 2.500241 10.589000
v 1.829091 2.500241 -9.028000
v 9.117091 2.500241 4.608000
v 7.851091 2.500241 -5.192000
v 6.949091 2.500241 -6.291000
v -0.121909 4.949241 10.020000
v 1.680091 4.949241 9.843000
v 1.500091 6.056241 8.936000
v -0.121909 8.901241 0.781000
v -2.035909 8.778241 0.400000
v -3.874909 8.413241 0.034000
v 8.940091 3.748241 4.534000
v -0.121909 6.056241 9.096000
v -0.121909 2.500241 -9.220000
v 8.193090 2.500241 -4.775000
v 9.117091 2.500241 -3.046000
v -0.121909 3.748241 10.589000
v 8.193090 2.500241 6.337000
v 9.686090 2.500241 -1.170000
v -0.121909 2.500241 10.781000
v -3.874909 3.748241 -8.281000
v -2.035909 3.748241 -8.839000
v -2.072909 2.500241 -9.028000
v -3.948909 2.500241 -8.458000
v -3.657909 8.413241 -0.684000
v -0.121909 3.748241 -9.028000
v 6.949091 2.500241 7.852000
v 5.434091 2.500241 9.096000
v 3.705091 2.500241 10.020000
v -3.303909 8.413241 -1.345000
v -0.121909 4.949241 -8.458000
v -1.923909 4.949241 -8.281000
v 8.193090 6.056241 0.781000
v 8.940091 4.949241 2.583000
v 9.117091 4.949241 0.781000
v -3.948909 2.500241 10.020000
v -2.072909 2.500241 10.589000
v -7.192909 2.500241 -6.291000
v -5.677909 2.500241 -7.534000
v -8.436909 2.500241 -4.775000
v -7.192909 2.500241 7.852000
v 8.414091 4.949241 4.317000
v -2.247909 8.413241 3.963000
v -1.205909 8.778241 2.403000
v -2.827909 8.413241 3.487000
v -2.827909 7.026241 -5.752000
v -3.303909 6.056241 -6.901000
v -4.050909 7.026241 -5.099000
v 8.033091 3.748241 6.230000
v -6.094909 2.500241 8.754000
v -5.677909 2.500241 9.096000
v -1.205909 7.822241 -4.668000
v -2.247909 7.822241 -4.352000
v -1.586909 8.413241 -2.755000
v -3.303909 8.413241 2.907000
v -8.436909 2.500241 6.337000
v -9.929909 2.500241 2.732000
v -9.360909 2.500241 4.608000
v -1.501909 7.026241 -6.155000
v -9.360909 2.500241 -3.046000
v -9.929909 2.500241 -1.170000
v -4.741909 7.822241 3.868000
v -10.122910 2.500241 0.781000
v -5.254909 7.822241 2.907000
v -3.657909 8.413241 2.245000
v -0.121909 7.026241 -6.291000
v 8.940091 3.748241 -2.973000
v 9.498091 3.748241 -1.133000
v -0.121909 7.822241 -4.775000
v 5.327091 7.822241 1.865000
v 6.814091 7.026241 2.160000
v 5.434091 7.822241 0.781000
v 6.949091 7.026241 0.781000
v -0.121909 6.056241 -7.534000
v 8.033091 6.056241 2.403000
v 6.411091 7.026241 3.487000
v 8.033091 3.748241 -4.668000
v 7.560091 4.949241 -4.352000
v -6.654909 7.026241 3.487000
v 5.011091 7.822241 2.907000
v -4.741909 6.056241 -6.133000
v -3.657909 4.949241 -7.755000
v 8.414091 4.949241 -2.755000
v 8.940091 4.949241 -1.022000
v -1.743909 6.056241 -7.375000
v 5.758091 7.026241 4.709000
v -5.570909 7.822241 1.865000
v 1.792091 3.748241 -8.839000
v 4.498091 7.822241 3.868000
v 3.631091 3.748241 -8.281000
v -7.057909 7.026241 2.160000
v 1.680091 4.949241 -8.281000
v -5.677909 7.822241 0.781000
v -7.192909 7.026241 0.781000
v 3.414091 4.949241 -7.755000
v 7.560091 6.056241 3.963000
v -8.276909 3.748241 -4.668000
v -7.057909 3.748241 -6.155000
v 6.792091 6.056241 5.400000
v -5.570909 3.748241 -7.375000
v 5.327091 3.748241 -7.375000
v 6.814091 3.748241 -6.155000
v 6.411091 4.949241 -5.752000
v 3.631091 8.413241 0.034000
v 1.792091 8.778241 0.400000
v 3.705091 8.413241 0.781000
v 1.792091 8.778241 1.161000
v 3.631091 8.413241 1.527000
v -8.276909 6.056241 2.403000
v -7.803909 6.056241 3.963000
v -6.654909 4.949241 -5.752000
v -7.803909 4.949241 -4.352000
v -7.035909 6.056241 -3.839000
v -8.436909 6.056241 0.781000
v 1.500091 8.778241 1.865000
v 5.011091 4.949241 -6.901000
v 4.498091 6.056241 -6.133000
v 5.758091 6.056241 -5.099000
v -7.057909 7.026241 -0.599000
v -8.276909 6.056241 -0.841000
v 0.625091 8.778241 2.583000
v -0.868909 8.413241 4.534000
v -0.121909 8.413241 4.608000
v -0.121909 8.778241 2.732000
v -6.001909 6.056241 -5.099000
v -5.121909 7.026241 -4.219000
v -1.205909 7.822241 6.230000
v -0.121909 7.822241 6.337000
v 3.414091 8.413241 2.245000
v -5.254909 4.949241 -6.901000
v -1.501909 7.026241 7.716000
v -0.121909 7.026241 7.852000
v 3.060091 8.413241 2.907000
v -1.586909 8.413241 4.317000
v 2.584091 8.413241 3.487000
v -2.247909 7.822241 5.914000
v -2.827909 7.026241 7.314000
v 0.962091 7.822241 -4.668000
v 1.258091 7.026241 -6.155000
v 2.004091 8.413241 3.963000
v 1.500091 6.056241 -7.375000
v -3.208909 7.822241 5.400000
v -4.050909 7.026241 6.660000
v -4.050909 7.822241 -3.148000
v -3.208909 7.822241 -3.839000
v -2.247909 8.413241 -2.401000
v -1.205909 8.778241 -0.841000
v 2.584091 7.026241 -5.752000
v 3.807091 7.822241 4.709000
v 4.878091 7.026241 5.781000
v 5.758091 6.056241 6.660000
v 2.004091 7.822241 -4.352000
v -4.050909 7.822241 4.709000
v 3.060091 6.056241 -6.901000
v 6.814091 3.748241 7.716000
v -0.868909 8.413241 -2.973000
v -0.121909 8.413241 -3.046000
v -5.570909 7.822241 -0.303000
v 7.560091 4.949241 5.914000
v -1.743909 8.778241 -0.303000
v 3.807091 7.026241 -5.099000
v -4.741909 7.822241 -2.306000
v 6.411091 4.949241 7.314000
v -5.254909 7.822241 -1.345000
v -2.827909 8.413241 -1.925000
v 2.965091 7.822241 -3.839000
v -5.121909 7.026241 5.781000
v 4.498091 6.056241 7.695000
v 5.327091 3.748241 8.936000
v -0.502909 8.778241 -1.133000
v -6.001909 7.026241 4.709000
v 4.878091 7.026241 -4.219000
v 2.965091 7.822241 5.400000
v 3.807091 7.026241 6.660000
v -6.654909 7.026241 -1.925000
v 1.343091 8.413241 4.317000
v 2.004091 7.822241 5.914000
v 2.584091 7.026241 7.314000
v -6.001909 7.026241 -3.148000
v 3.060091 6.056241 8.463000
v 6.411091 7.026241 -1.925000
v 4.498091 7.822241 -2.306000
v 5.011091 7.822241 -1.345000
v -4.741909 6.056241 7.695000
v 0.625091 8.413241 4.534000
v 5.758091 7.026241 -3.148000
v 0.962091 7.822241 6.230000
v 1.258091 7.026241 7.716000
v -6.001909 6.056241 6.660000
v 5.327091 7.822241 -0.303000
v 6.814091 7.026241 -0.599000
v -7.803909 6.056241 -2.401000
v -6.654909 4.949241 7.314000
v -5.254909 4.949241 8.463000
v -7.057909 3.748241 7.716000
v -8.657909 4.949241 -2.755000
v -7.035909 6.056241 5.400000
v 6.792091 6.056241 -3.839000
v -7.803909 4.949241 5.914000
v -9.741909 3.748241 -1.133000
v -9.183909 3.748241 -2.973000
v -8.276909 3.748241 6.230000
v 7.560091 6.056241 -2.401000
v -9.183909 4.949241 -1.022000
v 5.011091 4.949241 8.463000
v -8.657909 4.949241 4.317000
v 8.033091 6.056241 -0.841000
v -1.743909 8.778241 1.865000
v -9.183909 3.748241 4.534000
v -9.741909 3.748241 2.694000
v 0.625091 8.413241 -2.973000
v 0.259091 8.778241 -1.133000
v -9.929909 3.748241 0.781000
v 1.343091 8.413241 -2.755000
v 2.004091 8.413241 -2.401000
v -9.183909 4.949241 2.583000
v 3.807091 7.822241 -3.148000
v -9.360909 4.949241 0.781000
v 0.962091 8.778241 -0.841000
v 2.584091 8.413241 -1.925000
v -2.035909 3.748241 10.401000
v -3.874909 3.748241 9.843000
v 1.500091 8.778241 -0.303000
v 3.060091 8.413241 -1.345000
v -5.570909 3.748241 8.936000
v -1.743909 6.056241 8.936000
v 3.414091 8.413241 -0.684000
v -1.923909 4.949241 9.843000
v -3.303909 6.056241 8.463000
v -3.657909 4.949241 9.317000
vn 0.2626 0.4265 0.8655
vn -0.1910 0.9814 0.0189
vn 0.9836 0.1521 0.0973
vn 0.9838 0.1511 0.0967
vn 0.0000 -1.0000 -0.0000
vn 0.9459 0.1512 0.2869
vn 0.0752 0.6393 0.7653
vn -0.0641 0.9979 0.0000
vn -0.1839 0.9828 -0.0182
vn 0.9460 0.1512 0.2869
vn 0.0755 0.6390 0.7655
vn 0.0884 0.4265 0.9002
vn -0.1947 0.9809 0.0000
vn 0.8718 0.1513 0.4659
vn -0.2870 0.1517 -0.9458
vn -0.2874 0.1512 -0.9458
vn -0.0968 0.1518 -0.9837
vn -0.1837 0.9814 -0.0555
vn -0.0971 0.1513 -0.9837
vn -0.1629 0.9828 -0.0872
vn -0.0884 0.4271 -0.8999
vn -0.0889 0.4265 -0.9001
vn 0.7655 0.6390 0.0752
vn 0.9002 0.4265 0.0885
vn 0.9002 0.4264 0.0884
vn 0.8655 0.4265 0.2626
vn -0.1217 0.9814 0.1483
vn 0.8656 0.4264 0.2625
vn -0.2905 0.7871 -0.5441
vn 0.7976 0.4264 0.4266
vn -0.0943 0.9457 -0.3110
vn -0.1428 0.9828 0.1172
vn -0.1354 0.8845 -0.4465
vn -0.2510 0.9458 0.2060
vn -0.1357 0.8844 -0.4466
vn -0.2865 0.9458 0.1529
vn -0.2865 0.9458 0.1532
vn -0.0458 0.8845 -0.4644
vn 0.9460 0.1510 -0.2869
vn -0.0458 0.8844 -0.4644
vn 0.4644 0.8845 0.0458
vn 0.9460 0.1509 -0.2869
vn 0.4646 0.8843 0.0455
vn 0.9837 0.1511 -0.0973
vn -0.0605 0.7869 -0.6141
vn 0.6142 0.7869 0.0601
vn 0.4465 0.8844 0.1356
vn 0.7975 0.4264 -0.4268
vn -0.4118 0.8844 0.2198
vn 0.4467 0.8844 0.1355
vn -0.3623 0.6392 -0.6784
vn 0.8655 0.4267 -0.2625
vn 0.8655 0.4264 -0.2627
vn -0.1793 0.7871 -0.5902
vn -0.2233 0.6392 -0.7360
vn 0.9002 0.4265 -0.0884
vn 0.9002 0.4264 -0.0884
vn -0.1794 0.7871 -0.5902
vn 0.4117 0.8844 0.2200
vn -0.3109 0.9458 0.0943
vn 0.0971 0.1518 -0.9836
vn -0.2625 0.4266 -0.8655
vn 0.4119 0.8843 0.2199
vn 0.0968 0.1513 -0.9837
vn 0.2873 0.1517 -0.9457
vn 0.2870 0.1512 -0.9459
vn -0.4466 0.8844 0.1354
vn -0.2237 0.6388 -0.7361
vn -0.4466 0.8844 0.1356
vn -0.2626 0.4265 -0.8655
vn -0.0602 0.7871 -0.6139
vn 0.0889 0.4271 -0.8998
vn 0.0884 0.4265 -0.9002
vn -0.3232 0.9458 0.0319
vn -0.0750 0.6390 -0.7655
vn -0.4644 0.8844 0.0455
vn 0.2626 0.4266 -0.8655
vn -0.4646 0.8843 0.0459
vn 0.6138 0.7872 0.0605
vn -0.0752 0.6389 -0.7656
vn 0.2626 0.4265 -0.8655
vn -0.3233 0.9458 0.0321
vn 0.7653 0.6393 0.0755
vn 0.5902 0.7871 0.1792
vn 0.5905 0.7869 0.1790
vn 0.7359 0.6392 0.2232
vn -0.7645 0.1510 -0.6267
vn 0.7360 0.6391 0.2232
vn 0.5440 0.7871 0.2907
vn -0.6270 0.1511 -0.7642
vn 0.4659 0.1513 -0.8718
vn 0.4658 0.1510 -0.8719
vn -0.4658 0.1513 -0.8719
vn 0.6270 0.1511 -0.7642
vn -0.4659 0.1510 -0.8718
vn 0.7644 0.1516 -0.6266
vn 0.6993 0.4270 -0.5733
vn 0.1910 0.9814 -0.0189
vn 0.7643 0.1517 -0.6268
vn 0.7641 0.1510 -0.6271
vn 0.8717 0.1517 -0.4659
vn 0.3233 0.9458 -0.0320
vn 0.8716 0.1509 -0.4664
vn 0.0641 0.9979 0.0000
vn 0.1839 0.9828 0.0182
vn 0.3232 0.9458 0.0321
vn 0.1947 0.9809 0.0000
vn -0.5903 0.7871 0.1790
vn -0.5904 0.7869 0.1793
vn 0.3233 0.9458 0.0319
vn -0.5947 0.6388 -0.4881
vn 0.3108 0.9458 0.0943
vn -0.6141 0.7869 0.0606
vn 0.0593 0.9979 0.0246
vn 0.4881 0.6388 -0.5947
vn -0.6990 0.4270 -0.5737
vn 0.4881 0.6388 -0.5948
vn -0.6142 0.7869 -0.0601
vn 0.5737 0.4270 -0.6990
vn -0.6995 0.4264 -0.5735
vn 0.0417 0.9978 0.0508
vn -0.0189 0.9814 0.1909
vn -0.3912 0.7873 -0.4766
vn -0.0320 0.9458 0.3232
vn 0.5736 0.4268 -0.6991
vn 0.0125 0.9979 0.0629
vn -0.3916 0.7871 -0.4766
vn -0.0319 0.9458 0.3233
vn 0.1837 0.9814 0.0555
vn -0.4881 0.6388 -0.5947
vn 0.5947 0.6388 -0.4881
vn -0.0459 0.8843 0.4646
vn 0.3110 0.9457 0.0940
vn -0.5735 0.4270 -0.6991
vn 0.6992 0.4264 -0.5739
vn -0.0458 0.8843 0.4646
vn 0.1629 0.9828 0.0871
vn -0.5737 0.4268 -0.6990
vn 0.1797 0.9809 0.0745
vn -0.2906 0.7871 -0.5441
vn 0.2864 0.9458 0.1531
vn -0.3628 0.6388 -0.6784
vn -0.0536 0.9828 0.1767
vn 0.2866 0.9458 0.1530
vn -0.4261 0.4269 -0.7976
vn -0.0535 0.9828 0.1769
vn 0.1483 0.9814 0.1217
vn -0.0943 0.9458 0.3108
vn -0.4265 0.4264 -0.7976
vn -0.0940 0.9457 0.3111
vn -0.1355 0.8844 0.4467
vn 0.0458 0.8845 -0.4643
vn -0.1354 0.8844 0.4467
vn 0.1172 0.9828 0.1428
vn 0.0458 0.8844 -0.4644
vn -0.0906 0.9814 0.1691
vn 0.0605 0.7871 -0.6138
vn -0.1534 0.9458 0.2864
vn -0.1533 0.9457 0.2865
vn 0.0602 0.7869 -0.6141
vn 0.0752 0.6390 -0.7655
vn -0.2201 0.8844 0.4116
vn 0.0751 0.6388 -0.7657
vn -0.2961 0.8844 -0.3608
vn -0.2964 0.8843 -0.3608
vn -0.0906 0.9814 -0.1691
vn 0.5441 0.7871 0.2907
vn 0.1357 0.8845 -0.4464
vn 0.2509 0.9458 0.2062
vn -0.1529 0.9458 -0.2865
vn 0.3609 0.8843 0.2963
vn 0.4767 0.7871 0.3913
vn -0.1534 0.9457 -0.2865
vn 0.1355 0.8844 -0.4467
vn -0.2198 0.8844 -0.4118
vn -0.2061 0.9458 0.2511
vn -0.2199 0.8844 -0.4118
vn 0.8716 0.1517 0.4661
vn 0.1794 0.7871 -0.5902
vn 0.7639 0.1517 0.6273
vn 0.7643 0.1510 0.6270
vn -0.0944 0.9457 -0.3110
vn 0.1793 0.7871 -0.5902
vn 0.2236 0.6392 -0.7358
vn -0.0316 0.9458 -0.3233
vn -0.0319 0.9457 -0.3234
vn -0.3232 0.9458 -0.0320
vn 0.6782 0.6392 0.3627
vn 0.2233 0.6388 -0.7362
vn 0.6784 0.6390 0.3626
vn -0.0592 0.9979 -0.0246
vn 0.7977 0.4264 0.4265
vn -0.1797 0.9809 -0.0746
vn 0.2198 0.8844 -0.4118
vn 0.4768 0.7871 0.3913
vn -0.2863 0.9458 -0.1533
vn 0.5946 0.6391 0.4880
vn 0.2906 0.7871 -0.5441
vn -0.2867 0.9457 -0.1530
vn 0.2906 0.7871 -0.5442
vn -0.1483 0.9814 -0.1217
vn 0.5946 0.6390 0.4880
vn -0.2510 0.9458 -0.2060
vn 0.6991 0.4266 0.5738
vn -0.0454 0.9979 -0.0454
vn 0.6993 0.4264 0.5737
vn -0.2961 0.8844 0.3608
vn -0.1172 0.9828 -0.1428
vn 0.3915 0.7871 0.4766
vn -0.2060 0.9458 -0.2510
vn -0.1376 0.9809 -0.1376
vn 0.3627 0.6392 -0.6782
vn 0.5737 0.4266 0.6992
vn -0.0246 0.9979 -0.0592
vn -0.0537 0.9828 -0.1767
vn -0.0747 0.9809 -0.1797
vn 0.3625 0.6388 -0.6787
vn 0.4264 0.4269 -0.7974
vn -0.2510 0.9458 0.2062
vn -0.0187 0.9814 -0.1910
vn 0.2511 0.9458 0.2061
vn -0.3608 0.8844 0.2962
vn 0.4262 0.4264 -0.7978
vn 0.3607 0.8844 0.2963
vn -0.3233 0.9458 -0.0319
vn 0.2963 0.8844 -0.3607
vn 0.2061 0.9458 0.2511
vn 0.2961 0.8844 0.3608
vn -0.3608 0.8843 0.2964
vn 0.3914 0.7873 -0.4764
vn -0.4643 0.8845 -0.0458
vn 0.3913 0.7871 -0.4768
vn -0.4646 0.8843 -0.0455
vn -0.4118 0.8843 0.2200
vn -0.5440 0.7871 0.2907
vn -0.3108 0.9458 -0.0943
vn -0.4464 0.8845 -0.1357
vn -0.4467 0.8844 -0.1355
vn 0.3912 0.7873 0.4766
vn -0.3111 0.9457 -0.0940
vn 0.0906 0.9814 0.1691
vn 0.1532 0.9458 0.2865
vn 0.2201 0.8844 0.4116
vn 0.2202 0.8844 0.4116
vn 0.1534 0.9457 0.2865
vn -0.4118 0.8844 -0.2198
vn 0.2905 0.7873 0.5439
vn 0.4118 0.8844 -0.2198
vn 0.2909 0.7871 0.5440
vn 0.3623 0.6392 0.6784
vn -0.2908 0.7873 0.5437
vn 0.0555 0.9814 0.1836
vn 0.4118 0.8844 -0.2199
vn -0.3607 0.8844 -0.2963
vn -0.4764 0.7873 -0.3914
vn 0.0940 0.9458 0.3109
vn -0.3610 0.8843 -0.2962
vn 0.0943 0.9457 0.3110
vn 0.1354 0.8844 0.4467
vn -0.3914 0.7872 0.4765
vn 0.4465 0.8845 -0.1354
vn -0.3913 0.7871 0.4768
vn 0.1355 0.8844 0.4467
vn 0.4466 0.8844 -0.1357
vn 0.1790 0.7871 0.5903
vn -0.5902 0.7871 -0.1794
vn -0.5906 0.7869 -0.1791
vn 0.0182 0.9828 0.1839
vn 0.0319 0.9458 0.3232
vn -0.4882 0.6391 0.5943
vn 0.0320 0.9458 0.3233
vn 0.0381 0.9809 0.1908
vn -0.5441 0.7871 -0.2906
vn -0.5738 0.4266 0.6991
vn -0.5442 0.7871 -0.2906
vn 0.4644 0.8845 -0.0454
vn -0.6782 0.6392 -0.3627
vn 0.0458 0.8843 0.4646
vn 0.0605 0.7872 0.6138
vn -0.6787 0.6388 -0.3625
vn 0.0459 0.8843 0.4646
vn 0.4646 0.8843 -0.0459
vn -0.4768 0.7871 0.3913
vn 0.0605 0.7871 0.6138
vn 0.6138 0.7872 -0.0600
vn -0.4768 0.7871 -0.3913
vn -0.5948 0.6388 -0.4881
vn 0.6269 0.1517 0.7641
vn -0.4768 0.7871 0.3914
vn 0.6273 0.1511 0.7640
vn 0.4766 0.7873 -0.3912
vn -0.5946 0.6391 0.4879
vn 0.4659 0.1517 0.8717
vn -0.9460 0.1510 -0.2869
vn 0.4662 0.1513 0.8717
vn -0.9460 0.1509 -0.2869
vn 0.2869 0.1512 0.9460
vn -0.5946 0.6390 0.4880
vn 0.4766 0.7871 -0.3916
vn -0.6993 0.4266 0.5736
vn -0.8715 0.1517 -0.4663
vn 0.2870 0.1510 0.9459
vn 0.0966 0.1513 0.9837
vn -0.6992 0.4264 0.5739
vn -0.8719 0.1509 -0.4659
vn -0.7641 0.1517 -0.6270
vn -0.6138 0.7872 -0.0605
vn 0.5441 0.7871 -0.2905
vn 0.0968 0.1511 0.9838
vn -0.7652 0.6393 -0.0755
vn 0.4879 0.6391 0.5945
vn -0.5440 0.7871 0.2908
vn 0.4884 0.6388 0.5945
vn 0.5441 0.7871 -0.2906
vn 0.5739 0.4264 0.6992
vn -0.6783 0.6392 0.3625
vn 0.6784 0.6392 -0.3623
vn -0.7358 0.6394 -0.2233
vn -0.6783 0.6390 0.3627
vn 0.6784 0.6388 -0.3628
vn -0.7360 0.6391 -0.2232
vn 0.7975 0.4267 -0.4265
vn -0.8654 0.4267 -0.2627
vn 0.3628 0.6388 0.6784
vn 0.4265 0.4264 0.7976
vn 0.4266 0.4264 0.7976
vn -0.8656 0.4264 -0.2625
vn 0.5903 0.7871 -0.1790
vn -0.7974 0.4267 -0.4267
vn 0.7358 0.6394 -0.2231
vn -0.7642 0.1517 0.6269
vn 0.2231 0.6392 0.7359
vn -0.7977 0.4264 -0.4265
vn 0.5905 0.7868 -0.1795
vn 0.2233 0.6392 0.7360
vn -0.0191 0.9978 0.0629
vn -0.0454 0.9979 0.0454
vn -0.7640 0.1510 0.6273
vn -0.1376 0.9809 0.1376
vn -0.8717 0.1517 0.4659
vn 0.2625 0.4266 0.8655
vn -0.1692 0.9814 0.0905
vn 0.7359 0.6392 -0.2234
vn -0.0593 0.9979 0.0246
vn -0.1768 0.9828 0.0534
vn -0.8717 0.1513 0.4662
vn 0.6141 0.7869 -0.0606
vn -0.3109 0.9458 0.0939
vn -0.1798 0.9809 0.0746
vn 0.7653 0.6393 -0.0751
vn -0.9460 0.1512 0.2869
vn 0.7655 0.6390 -0.0755
vn 0.0187 0.9814 -0.1910
vn 0.0319 0.9458 -0.3233
vn -0.9836 0.1521 0.0967
vn 0.0316 0.9457 -0.3235
vn -0.9837 0.1512 0.0973
vn -0.9836 0.1521 -0.0973
vn 0.0944 0.9457 -0.3109
vn 0.0943 0.9457 -0.3110
vn -0.9838 0.1511 -0.0966
vn 0.1533 0.9458 -0.2863
vn 0.1530 0.9457 -0.2867
vn -0.7976 0.4264 0.4265
vn -0.7976 0.4264 0.4266
vn -0.7359 0.6392 0.2231
vn -0.7360 0.6392 0.2233
vn -0.8656 0.4265 0.2625
vn 0.2060 0.9458 -0.2510
vn -0.8656 0.4264 0.2626
vn -0.6138 0.7872 0.0601
vn 0.2962 0.8843 -0.3610
vn -0.7653 0.6393 0.0752
vn -0.7655 0.6390 0.0755
vn -0.9002 0.4265 0.0884
vn 0.3608 0.8844 -0.2961
vn 0.3608 0.8843 -0.2964
vn -0.9002 0.4264 0.0885
vn 0.0000 0.9823 -0.1874
vn 0.0557 0.9814 -0.1836
vn -0.7655 0.6390 -0.0752
vn 0.0246 0.9979 -0.0592
vn 0.0872 0.9828 -0.1629
vn -0.9002 0.4265 -0.0884
vn -0.9002 0.4264 -0.0884
vn 0.0746 0.9809 -0.1797
vn -0.0968 0.1513 0.9837
vn 0.1217 0.9814 -0.1483
vn -0.0966 0.1511 0.9838
vn -0.2870 0.1512 0.9459
vn 0.0454 0.9979 -0.0454
vn -0.2869 0.1510 0.9460
vn 0.1428 0.9828 -0.1172
vn -0.4661 0.1517 0.8716
vn -0.4659 0.1513 0.8718
vn 0.1376 0.9809 -0.1376
vn -0.6275 0.1511 0.7638
vn 0.2510 0.9458 -0.2060
vn -0.6268 0.1517 0.7643
vn -0.6269 0.1518 0.7641
vn -0.0605 0.7872 0.6138
vn 0.1691 0.9814 -0.0906
vn 0.2865 0.9458 -0.1529
vn -0.0605 0.7871 0.6138
vn 0.2865 0.9457 -0.1534
vn 0.0592 0.9979 -0.0246
vn 0.1768 0.9828 -0.0534
vn -0.0755 0.6393 0.7653
vn -0.0752 0.6390 0.7655
vn 0.1798 0.9809 -0.0747
vn 0.3109 0.9458 -0.0940
vn -0.0884 0.4265 0.9002
vn 0.3110 0.9457 -0.0943
vn 0.3232 0.9458 -0.0319
vn 0.0000 0.9979 -0.0641
vn -0.1790 0.7871 0.5903
vn -0.2232 0.6392 0.7359
vn -0.2232 0.6391 0.7360
vn 0.9836 0.1521 -0.0966
vn -0.2626 0.4266 0.8655
vn -0.2626 0.4265 0.8655
vn -0.2906 0.7871 0.5441
vn -0.3627 0.6392 0.6782
vn -0.3625 0.6388 0.6787
vn -0.4266 0.4264 0.7976
vn -0.4265 0.4264 0.7977
vn -0.4881 0.6388 0.5947
vn -0.5737 0.4264 0.6993
usemtl None
s off
f 95//63 96//63 97//63
f 98//64 99//64 100//64
f 101//65 102//65 103//65
f 103//66 104//66 101//66
f 105//67 106//67 107//67
f 108//67 105//67 107//67
f 109//68 101//68 104//68
f 110//67 107//67 111//67
f 112//69 113//69 114//69
f 115//70 116//70 99//70
f 117//71 100//71 99//71
f 118//72 109//72 104//72
f 119//73 112//73 114//73
f 120//67 108//67 107//67
f 106//67 111//67 107//67
f 110//67 121//67 107//67
f 122//67 107//67 121//67
f 123//74 95//74 113//74
f 116//75 117//75 99//75
f 112//74 123//74 113//74
f 124//76 109//76 118//76
f 107//67 122//67 125//67
f 107//67 126//67 120//67
f 124//67 107//67 109//67
f 127//77 128//77 129//77
f 130//78 127//78 129//78
f 120//79 129//79 128//79
f 116//80 131//80 117//80
f 101//67 109//67 107//67
f 120//81 128//81 132//81
f 102//67 101//67 107//67
f 125//67 102//67 107//67
f 124//67 133//67 107//67
f 134//67 135//67 133//67
f 136//82 131//82 116//82
f 137//83 132//83 138//83
f 132//84 128//84 138//84
f 139//85 140//85 141//85
f 142//67 129//67 143//67
f 107//67 133//67 135//67
f 104//86 103//86 141//86
f 140//87 104//87 141//87
f 144//67 145//67 146//67
f 130//67 146//67 145//67
f 129//67 147//67 130//67
f 148//88 118//88 140//88
f 149//89 150//89 151//89
f 118//90 104//90 140//90
f 152//91 153//91 154//91
f 155//92 118//92 148//92
f 156//67 129//67 157//67
f 158//93 159//93 160//93
f 161//94 151//94 150//94
f 129//67 120//67 126//67
f 157//67 129//67 142//67
f 162//67 130//67 147//67
f 163//67 130//67 164//67
f 158//95 165//95 159//95
f 146//67 130//67 166//67
f 166//67 130//67 167//67
f 168//96 151//96 161//96
f 165//97 152//97 159//97
f 167//67 130//67 169//67
f 164//67 130//67 162//67
f 169//67 130//67 163//67
f 170//98 168//98 161//98
f 147//67 129//67 156//67
f 126//67 143//67 129//67
f 171//99 170//99 161//99
f 172//100 165//100 158//100
f 173//101 174//101 125//101
f 175//102 172//102 158//102
f 176//103 177//103 178//103
f 125//104 122//104 173//104
f 177//105 179//105 178//105
f 102//106 125//106 174//106
f 172//107 180//107 165//107
f 177//108 181//108 179//108
f 177//109 176//109 182//109
f 183//110 184//110 173//110
f 170//111 185//111 168//111
f 182//112 176//112 186//112
f 187//113 153//113 188//113
f 174//114 173//114 189//114
f 190//115 174//115 189//115
f 191//116 153//116 152//116
f 138//117 188//117 153//117
f 190//118 141//118 103//118
f 103//119 174//119 190//119
f 165//120 191//120 152//120
f 192//121 182//121 186//121
f 193//122 170//122 171//122
f 194//123 108//123 132//123
f 138//124 128//124 188//124
f 195//125 192//125 186//125
f 108//126 120//126 132//126
f 105//127 108//127 194//127
f 196//128 105//128 194//128
f 170//129 193//129 197//129
f 153//130 191//130 138//130
f 197//131 185//131 170//131
f 188//132 128//132 127//132
f 165//133 180//133 191//133
f 194//134 132//134 137//134
f 137//135 198//135 194//135
f 199//136 193//136 98//136
f 180//137 137//137 191//137
f 200//138 197//138 193//138
f 196//139 194//139 198//139
f 199//140 200//140 193//140
f 139//141 179//141 181//141
f 137//142 138//142 191//142
f 198//143 201//143 196//143
f 100//144 199//144 98//144
f 140//145 139//145 181//145
f 202//146 177//146 182//146
f 202//147 181//147 177//147
f 148//148 140//148 181//148
f 203//149 204//149 144//149
f 202//150 148//150 181//150
f 205//151 202//151 182//151
f 204//152 206//152 145//152
f 196//153 106//153 105//153
f 145//152 144//152 204//152
f 106//154 196//154 207//154
f 206//155 127//155 130//155
f 111//156 106//156 207//156
f 207//156 208//156 111//156
f 206//157 130//157 145//157
f 208//158 183//158 110//158
f 209//159 183//159 208//159
f 210//160 211//160 212//160
f 183//161 121//161 110//161
f 110//162 111//162 208//162
f 122//163 121//163 183//163
f 210//164 212//164 178//164
f 183//165 173//165 122//165
f 115//166 213//166 211//166
f 214//167 212//167 211//167
f 176//168 212//168 214//168
f 213//169 214//169 211//169
f 215//170 216//170 185//170
f 197//171 215//171 185//171
f 212//172 176//172 178//172
f 217//173 218//173 219//173
f 186//174 176//174 214//174
f 220//175 215//175 197//175
f 115//176 221//176 213//176
f 209//177 222//177 223//177
f 217//178 204//178 218//178
f 224//179 209//179 223//179
f 200//180 225//180 226//180
f 222//181 209//181 208//181
f 204//182 203//182 218//182
f 115//183 227//183 221//183
f 228//184 229//184 230//184
f 187//185 231//185 232//185
f 229//186 228//186 233//186
f 222//187 208//187 207//187
f 115//188 230//188 227//188
f 187//189 232//189 154//189
f 229//190 233//190 234//190
f 213//191 235//191 214//191
f 187//192 236//192 231//192
f 184//193 209//193 224//193
f 236//192 217//192 231//192
f 233//194 237//194 234//194
f 214//195 235//195 186//195
f 217//196 206//196 204//196
f 184//197 183//197 209//197
f 237//198 238//198 234//198
f 239//199 235//199 213//199
f 236//200 206//200 217//200
f 221//201 239//201 213//201
f 154//202 153//202 187//202
f 239//203 195//203 235//203
f 187//204 188//204 236//204
f 150//205 240//205 230//205
f 195//206 186//206 235//206
f 206//207 236//207 127//207
f 240//208 228//208 230//208
f 239//209 221//209 241//209
f 242//210 233//210 228//210
f 188//211 127//211 236//211
f 240//212 242//212 228//212
f 242//213 243//213 233//213
f 244//214 245//214 175//214
f 243//215 237//215 233//215
f 221//216 227//216 246//216
f 246//216 241//216 221//216
f 245//217 172//217 175//217
f 150//218 149//218 240//218
f 247//219 172//219 245//219
f 149//220 248//220 240//220
f 248//221 242//221 240//221
f 247//222 180//222 172//222
f 198//223 137//223 180//223
f 248//224 249//224 242//224
f 247//225 198//225 180//225
f 250//226 251//226 154//226
f 249//224 243//224 242//224
f 154//227 232//227 250//227
f 252//228 253//228 160//228
f 192//229 205//229 182//229
f 244//230 254//230 245//230
f 255//231 195//231 239//231
f 159//232 251//232 252//232
f 256//233 192//233 195//233
f 256//234 257//234 192//234
f 159//235 252//235 160//235
f 258//236 254//236 244//236
f 159//237 152//237 251//237
f 151//238 259//238 149//238
f 152//239 154//239 251//239
f 155//240 124//240 118//240
f 259//238 248//238 149//238
f 254//241 260//241 245//241
f 133//242 124//242 155//242
f 155//243 261//243 133//243
f 262//244 158//244 160//244
f 245//245 260//245 247//245
f 247//246 260//246 201//246
f 263//247 175//247 262//247
f 175//248 158//248 262//248
f 117//249 264//249 100//249
f 265//250 148//250 202//250
f 247//251 201//251 198//251
f 202//252 205//252 265//252
f 115//253 266//253 116//253
f 155//254 148//254 265//254
f 266//255 136//255 116//255
f 267//256 254//256 258//256
f 192//257 257//257 205//257
f 136//258 268//258 131//258
f 205//259 269//259 265//259
f 260//260 254//260 223//260
f 268//261 270//261 131//261
f 267//262 223//262 254//262
f 136//263 266//263 271//263
f 257//264 269//264 205//264
f 272//256 267//256 258//256
f 250//265 136//265 271//265
f 265//266 269//266 261//266
f 253//267 266//267 115//267
f 265//268 261//268 155//268
f 273//269 249//269 248//269
f 271//270 266//270 252//270
f 274//271 257//271 256//271
f 251//272 271//272 252//272
f 252//273 266//273 253//273
f 259//269 273//269 248//269
f 251//272 250//272 271//272
f 260//274 222//274 201//274
f 269//275 275//275 261//275
f 253//276 115//276 276//276
f 262//277 160//277 253//277
f 253//278 276//278 262//278
f 223//279 222//279 260//279
f 222//280 207//280 201//280
f 259//281 151//281 168//281
f 263//282 262//282 276//282
f 241//283 255//283 239//283
f 277//284 273//284 259//284
f 201//285 207//285 196//285
f 255//286 256//286 195//286
f 199//287 100//287 264//287
f 278//288 267//288 272//288
f 241//289 279//289 255//289
f 279//290 280//290 255//290
f 168//291 277//291 259//291
f 278//292 224//292 267//292
f 225//293 199//293 264//293
f 224//294 223//294 267//294
f 241//289 246//289 279//289
f 225//295 200//295 199//295
f 168//296 185//296 277//296
f 185//297 216//297 277//297
f 280//290 256//290 255//290
f 270//298 264//298 117//298
f 281//299 225//299 264//299
f 270//300 281//300 264//300
f 280//301 274//301 256//301
f 131//302 270//302 117//302
f 227//303 282//303 246//303
f 283//304 279//304 246//304
f 280//305 279//305 284//305
f 283//306 284//306 279//306
f 246//307 282//307 283//307
f 285//308 281//308 270//308
f 280//309 286//309 274//309
f 270//308 268//308 285//308
f 287//310 288//310 289//310
f 286//311 280//311 284//311
f 286//312 97//312 274//312
f 268//265 136//265 250//265
f 290//313 243//313 249//313
f 291//314 282//314 227//314
f 288//315 287//315 292//315
f 232//316 285//316 268//316
f 232//317 231//317 285//317
f 293//318 282//318 291//318
f 250//319 232//319 268//319
f 282//320 293//320 283//320
f 283//321 294//321 284//321
f 295//322 290//322 249//322
f 296//323 297//323 289//323
f 273//324 295//324 249//324
f 293//325 294//325 283//325
f 297//326 287//326 289//326
f 294//327 114//327 284//327
f 281//328 298//328 225//328
f 298//329 226//329 225//329
f 229//330 291//330 227//330
f 293//331 291//331 234//331
f 295//332 299//332 290//332
f 229//333 234//333 291//333
f 230//334 229//334 227//334
f 219//335 298//335 281//335
f 300//336 299//336 301//336
f 285//337 219//337 281//337
f 179//338 297//338 296//338
f 302//339 298//339 218//339
f 238//340 294//340 293//340
f 238//341 119//341 294//341
f 218//342 298//342 219//342
f 234//343 238//343 293//343
f 178//344 179//344 296//344
f 303//345 295//345 273//345
f 294//346 119//346 114//346
f 179//347 139//347 297//347
f 219//348 285//348 231//348
f 231//349 217//349 219//349
f 134//350 261//350 275//350
f 277//351 303//351 273//351
f 134//352 133//352 261//352
f 304//353 224//353 278//353
f 303//354 305//354 295//354
f 135//355 134//355 275//355
f 166//356 167//356 306//356
f 275//357 96//357 135//357
f 184//193 224//193 304//193
f 307//358 166//358 306//358
f 107//359 135//359 96//359
f 305//360 299//360 295//360
f 292//361 304//361 278//361
f 308//362 301//362 299//362
f 203//363 146//363 307//363
f 107//364 96//364 95//364
f 95//365 123//365 126//365
f 305//366 308//366 299//366
f 146//367 166//367 307//367
f 144//368 146//368 203//368
f 200//369 226//369 220//369
f 287//370 309//370 292//370
f 95//371 126//371 107//371
f 310//372 220//372 226//372
f 311//373 269//373 257//373
f 277//374 216//374 303//374
f 274//375 311//375 257//375
f 309//376 304//376 292//376
f 311//377 275//377 269//377
f 303//378 216//378 312//378
f 309//379 189//379 304//379
f 302//380 310//380 226//380
f 312//381 305//381 303//381
f 184//382 304//382 189//382
f 302//383 226//383 298//383
f 189//384 173//384 184//384
f 310//385 302//385 307//385
f 97//386 311//386 274//386
f 97//387 96//387 311//387
f 96//388 275//388 311//388
f 310//389 307//389 306//389
f 313//390 309//390 287//390
f 114//327 286//327 284//327
f 203//391 307//391 302//391
f 313//392 190//392 309//392
f 301//393 308//393 162//393
f 114//394 113//394 286//394
f 302//395 218//395 203//395
f 297//396 313//396 287//396
f 113//397 97//397 286//397
f 230//398 115//398 150//398
f 115//399 314//399 150//399
f 162//400 147//400 301//400
f 314//401 161//401 150//401
f 164//402 162//402 308//402
f 97//403 113//403 95//403
f 314//404 171//404 161//404
f 309//405 190//405 189//405
f 115//406 99//406 314//406
f 98//407 171//407 314//407
f 164//408 308//408 315//408
f 297//409 139//409 313//409
f 98//410 193//410 171//410
f 99//411 98//411 314//411
f 141//412 190//412 313//412
f 315//413 316//413 163//413
f 139//414 141//414 313//414
f 317//415 263//415 318//415
f 163//413 164//413 315//413
f 244//416 175//416 263//416
f 319//417 169//417 316//417
f 317//418 244//418 263//418
f 316//419 169//419 163//419
f 167//420 169//420 319//420
f 320//421 258//421 317//421
f 258//422 244//422 317//422
f 319//423 306//423 167//423
f 272//424 320//424 321//424
f 258//425 320//425 272//425
f 312//426 315//426 305//426
f 315//427 308//427 305//427
f 215//428 322//428 216//428
f 322//429 312//429 216//429
f 316//430 315//430 312//430
f 323//431 272//431 321//431
f 322//432 316//432 312//432
f 197//433 200//433 220//433
f 278//434 272//434 323//434
f 324//435 322//435 215//435
f 215//436 220//436 324//436
f 322//437 324//437 319//437
f 288//438 292//438 323//438
f 292//439 278//439 323//439
f 322//440 319//440 316//440
f 263//441 276//441 318//441
f 317//442 318//442 320//442
f 220//443 310//443 324//443
f 318//444 115//444 325//444
f 321//445 320//445 318//445
f 306//446 319//446 324//446
f 310//447 306//447 324//447
f 325//448 321//448 318//448
f 143//449 126//449 123//449
f 326//450 321//450 325//450
f 123//451 327//451 143//451
f 321//431 326//431 323//431
f 327//452 328//452 142//452
f 115//453 329//453 325//453
f 142//454 143//454 327//454
f 325//455 330//455 326//455
f 328//456 331//456 157//456
f 157//457 142//457 328//457
f 329//458 330//458 325//458
f 156//459 301//459 147//459
f 288//460 323//460 326//460
f 331//461 156//461 157//461
f 331//462 301//462 156//462
f 332//463 119//463 238//463
f 326//460 330//460 288//460
f 329//464 333//464 330//464
f 289//465 288//465 330//465
f 237//466 332//466 238//466
f 330//467 333//467 289//467
f 115//468 211//468 329//468
f 210//469 333//469 329//469
f 332//470 334//470 119//470
f 119//471 334//471 112//471
f 211//472 210//472 329//472
f 210//473 296//473 333//473
f 334//474 327//474 112//474
f 296//475 289//475 333//475
f 210//476 178//476 296//476
f 327//474 123//474 112//474
f 318//477 276//477 115//477
f 335//478 332//478 237//478
f 336//479 334//479 332//479
f 335//480 336//480 332//480
f 243//478 335//478 237//478
f 102//481 174//481 103//481
f 328//482 327//482 334//482
f 334//483 336//483 328//483
f 243//484 290//484 335//484
f 300//485 336//485 335//485
f 300//486 335//486 290//486
f 331//487 328//487 336//487
f 300//488 331//488 336//488
f 290//489 299//489 300//489
f 300//490 301//490 331//490
