# Blender v2.82 (sub 7) OBJ File: ''
# www.blender.org
mtllib bottom_bun.mtl
o Bottom_Bun
v 52.808998 2.501000 -1.951000
v 53.000999 2.501000 -0.000000
v 52.389828 0.002000 -0.116910
v 52.220852 0.002000 -1.833970
v 39.402504 0.002000 8.686026
v 39.514977 0.002000 8.720079
v 39.173000 2.501000 9.240000
v 52.240002 2.501000 -3.827000
v 51.314999 2.501000 -5.556000
v 33.192001 2.501000 -1.951000
v 33.000000 2.501000 0.000000
v 48.556000 2.501000 -8.315000
v 50.071999 2.501000 -7.071000
v 48.556000 2.501000 8.315000
v 52.401459 0.002000 0.000000
v 44.717060 0.002000 -9.231483
v 43.000000 0.002000 -9.400460
v 43.000000 2.501000 -10.000000
v 44.951000 2.501000 -9.808000
v 37.444000 2.501000 8.315000
v 37.880825 0.002000 7.871941
v 44.834091 0.002000 -9.219972
v 50.816544 0.002000 -5.222896
v 50.741959 0.002000 -5.313666
v 51.630627 0.002000 -3.701217
v 51.686028 0.002000 -3.597496
v 52.186798 0.002000 -1.946444
v 37.777103 0.002000 7.816543
v 33.780029 0.002000 -1.833970
v 33.768517 0.002000 -1.717060
v 36.352993 0.002000 6.648006
v 36.443764 0.002000 6.722589
v 35.929001 2.501000 7.072000
v 46.597618 0.002000 -8.685025
v 46.485142 0.002000 -8.719199
v 46.827000 2.501000 -9.239000
v 41.049000 2.501000 -9.808000
v 33.599541 0.002000 0.000000
v 48.222897 0.002000 -7.816423
v 48.119297 0.002000 -7.871820
v 34.314976 0.002000 -3.597496
v 34.280800 0.002000 -3.485023
v 33.761002 2.501000 -3.827000
v 35.183578 0.002000 5.222896
v 34.685001 2.501000 5.556000
v 34.370373 0.002000 3.701217
v 33.761002 2.501000 3.827000
v 49.648006 0.002000 -6.647006
v 35.128178 0.002000 -5.119175
v 34.685001 2.501000 -5.556000
v 39.173000 2.501000 -9.239000
v 37.444000 2.501000 -8.315000
v 35.929001 2.501000 -7.071000
v 33.192001 2.501000 1.951000
v 34.314976 0.002000 3.597616
v 35.183578 0.002000 -5.222896
v 33.814201 0.002000 1.946563
v 36.352993 0.002000 -6.647006
v 36.278412 0.002000 -6.556235
v 52.240002 2.501000 3.827000
v 51.314999 2.501000 5.556000
v 52.808998 2.501000 1.951000
v 33.780029 0.002000 1.834090
v 41.049000 2.501000 9.809000
v 33.611050 0.002000 0.117030
v 37.686333 0.002000 -7.741840
v 37.777103 0.002000 -7.816423
v 39.298782 0.002000 -8.629628
v 39.402504 0.002000 -8.685025
v 41.166031 0.002000 -9.219972
v 42.883091 0.002000 -9.388949
v 41.053558 0.002000 -9.185798
v 48.313786 0.002000 7.741960
v 50.071999 2.501000 7.072000
v 49.648006 0.002000 6.648006
v 52.220852 0.002000 1.834090
v 52.232483 0.002000 1.717060
v 48.222897 0.002000 7.816543
v 46.597618 0.002000 8.686026
v 46.701218 0.002000 8.630629
v 46.827000 2.501000 9.240000
v 51.720081 0.002000 3.485143
v 51.686028 0.002000 3.597616
v 44.951000 2.501000 9.809000
v 43.000000 2.501000 10.001000
v 44.834091 0.002000 9.220852
v 44.946564 0.002000 9.186798
v 50.871941 0.002000 5.119296
v 50.816544 0.002000 5.222896
v 49.722588 0.002000 6.557116
v 43.117031 0.002000 9.389830
v 43.000000 0.002000 9.401461
v 41.166031 0.002000 9.220852
v 41.282940 0.002000 9.232483
vn 0.9680 -0.2323 -0.0953
vn -0.2819 -0.2322 0.9309
vn 0.0000 1.0000 0.0000
vn 0.9679 -0.2322 -0.0963
vn 0.0953 -0.2322 -0.9680
vn -0.4588 -0.2323 0.8576
vn 0.0000 -1.0000 0.0000
vn -0.4582 -0.2322 0.8580
vn 0.0952 -0.2322 -0.9680
vn -0.9680 -0.2322 -0.0953
vn -0.6175 -0.2323 0.7515
vn 0.2827 -0.2323 -0.9307
vn -0.6170 -0.2322 0.7520
vn 0.2823 -0.2322 -0.9308
vn 0.4587 -0.2323 -0.8577
vn -0.9306 -0.2323 -0.2828
vn 0.4584 -0.2322 -0.8578
vn -0.7519 -0.2323 0.6170
vn -0.8578 -0.2323 0.4584
vn 0.6170 -0.2323 -0.7519
vn -0.9308 -0.2322 -0.2823
vn -0.8578 -0.2323 -0.4584
vn -0.8577 -0.2322 0.4586
vn -0.8579 -0.2322 -0.4583
vn -0.9308 -0.2323 0.2823
vn -0.9308 -0.2322 0.2823
vn -0.7515 -0.2323 -0.6175
vn -0.9307 -0.2322 0.2828
vn -0.9680 -0.2322 0.0952
vn -0.7517 -0.2322 -0.6172
vn -0.7517 -0.2323 -0.6172
vn -0.6172 -0.2323 -0.7517
vn -0.9680 -0.2322 0.0953
vn -0.6175 -0.2322 -0.7515
vn 0.6167 -0.2322 0.7522
vn 0.9679 -0.2323 0.0962
vn -0.4582 -0.2323 -0.8580
vn 0.6170 -0.2322 0.7519
vn 0.9680 -0.2322 0.0953
vn 0.4586 -0.2322 0.8577
vn -0.4584 -0.2323 -0.8578
vn 0.9308 -0.2323 0.2823
vn 0.4588 -0.2322 0.8576
vn -0.2823 -0.2323 -0.9308
vn 0.2819 -0.2323 0.9309
vn 0.9309 -0.2322 0.2819
vn -0.2828 -0.2322 -0.9307
vn 0.8576 -0.2322 0.4588
vn -0.0953 -0.2322 -0.9680
vn 0.7520 -0.2323 -0.6169
vn 0.2823 -0.2322 0.9308
vn 0.8577 -0.2322 0.4586
vn 0.7519 -0.2323 0.6170
vn 0.0953 -0.2323 0.9680
vn 0.7515 -0.2322 -0.6175
vn 0.7522 -0.2322 0.6167
vn 0.8579 -0.2323 -0.4583
vn 0.8576 -0.2322 -0.4588
vn 0.0962 -0.2322 0.9679
vn 0.9309 -0.2323 -0.2819
vn 0.9308 -0.2323 -0.2823
vn -0.0963 -0.2323 0.9679
vn -0.0953 -0.2322 0.9680
vn -0.2823 -0.2323 0.9308
usemtl None
s off
f 1//1 2//1 3//1
f 1//1 3//1 4//1
f 5//2 6//2 7//2
f 8//3 9//3 1//3
f 2//3 1//3 9//3
f 10//3 11//3 12//3
f 13//3 14//3 9//3
f 15//4 3//4 2//4
f 16//5 17//5 18//5
f 16//5 18//5 19//5
f 7//6 20//6 21//6
f 7//6 21//6 5//6
f 22//7 3//7 16//7
f 23//7 3//7 24//7
f 25//7 3//7 23//7
f 26//7 27//7 25//7
f 27//7 3//7 25//7
f 4//7 3//7 27//7
f 15//7 16//7 3//7
f 28//8 21//8 20//8
f 22//9 16//9 19//9
f 29//10 30//10 10//10
f 31//11 32//11 33//11
f 34//12 35//12 36//12
f 37//3 12//3 18//3
f 30//10 38//10 11//10
f 30//10 11//10 10//10
f 20//13 33//13 32//13
f 20//13 32//13 28//13
f 35//14 22//14 19//14
f 35//14 19//14 36//14
f 39//15 40//15 12//15
f 41//16 42//16 43//16
f 40//17 34//17 36//17
f 40//17 36//17 12//17
f 44//18 31//18 45//18
f 33//18 45//18 31//18
f 46//19 44//19 45//19
f 46//19 45//19 47//19
f 48//20 39//20 12//20
f 42//21 29//21 10//21
f 42//21 10//21 43//21
f 46//7 16//7 44//7
f 49//22 41//22 43//22
f 49//22 43//22 50//22
f 49//7 16//7 41//7
f 19//3 18//3 36//3
f 12//3 36//3 18//3
f 37//3 51//3 12//3
f 12//3 51//3 52//3
f 52//3 53//3 12//3
f 12//3 53//3 50//3
f 50//3 43//3 12//3
f 12//3 43//3 10//3
f 11//3 54//3 12//3
f 55//23 46//23 47//23
f 56//24 49//24 50//24
f 57//25 55//25 47//25
f 57//26 47//26 54//26
f 57//7 16//7 55//7
f 58//27 59//27 53//27
f 60//3 9//3 61//3
f 2//3 9//3 62//3
f 62//3 9//3 60//3
f 63//28 57//28 54//28
f 64//3 13//3 7//3
f 38//29 65//29 11//29
f 59//30 56//30 50//30
f 50//31 53//31 59//31
f 66//32 58//32 53//32
f 66//32 53//32 52//32
f 65//33 63//33 54//33
f 65//33 54//33 11//33
f 66//7 16//7 58//7
f 16//7 38//7 30//7
f 16//7 30//7 29//7
f 16//7 29//7 42//7
f 16//7 42//7 41//7
f 16//7 49//7 56//7
f 16//7 56//7 59//7
f 16//7 59//7 58//7
f 16//7 66//7 67//7
f 16//7 67//7 68//7
f 68//7 69//7 16//7
f 70//7 71//7 72//7
f 71//7 17//7 16//7
f 35//7 3//7 22//7
f 40//7 3//7 34//7
f 34//7 3//7 35//7
f 48//7 3//7 39//7
f 39//7 3//7 40//7
f 67//34 66//34 52//34
f 14//35 73//35 74//35
f 75//35 74//35 73//35
f 76//36 77//36 62//36
f 74//3 61//3 9//3
f 69//37 68//37 51//37
f 14//38 78//38 73//38
f 2//39 62//39 77//39
f 2//39 77//39 15//39
f 79//40 80//40 81//40
f 68//41 67//41 52//41
f 68//41 52//41 51//41
f 62//42 60//42 82//42
f 62//42 82//42 76//42
f 14//43 81//43 80//43
f 14//43 80//43 78//43
f 82//7 83//7 16//7
f 72//44 69//44 51//44
f 72//44 51//44 37//44
f 72//7 16//7 69//7
f 14//3 13//3 81//3
f 84//3 81//3 13//3
f 74//3 9//3 14//3
f 85//3 84//3 13//3
f 54//3 47//3 12//3
f 13//3 12//3 47//3
f 47//3 45//3 13//3
f 45//3 33//3 13//3
f 33//3 20//3 13//3
f 20//3 7//3 13//3
f 85//3 13//3 64//3
f 86//45 87//45 84//45
f 83//46 82//46 60//46
f 70//47 72//47 37//47
f 60//48 61//48 88//48
f 60//48 88//48 83//48
f 12//20 13//20 48//20
f 88//7 89//7 16//7
f 71//49 70//49 37//49
f 71//49 37//49 18//49
f 13//50 9//50 24//50
f 13//50 24//50 48//50
f 81//51 84//51 87//51
f 81//51 87//51 79//51
f 89//52 88//52 61//52
f 24//7 3//7 48//7
f 16//7 72//7 71//7
f 75//53 90//53 74//53
f 84//54 85//54 91//54
f 84//54 91//54 86//54
f 23//55 24//55 9//55
f 61//56 74//56 90//56
f 61//56 90//56 89//56
f 17//49 71//49 18//49
f 26//57 25//57 8//57
f 9//58 8//58 25//58
f 9//58 25//58 23//58
f 92//59 91//59 85//59
f 15//7 77//7 16//7
f 77//7 76//7 16//7
f 76//7 82//7 16//7
f 88//7 16//7 83//7
f 90//7 16//7 89//7
f 75//7 16//7 90//7
f 4//60 27//60 1//60
f 8//61 1//61 27//61
f 8//61 27//61 26//61
f 93//62 94//62 64//62
f 94//63 92//63 85//63
f 94//63 85//63 64//63
f 64//64 7//64 6//64
f 64//64 6//64 93//64
f 6//7 16//7 93//7
f 6//7 5//7 16//7
f 21//7 16//7 5//7
f 94//7 93//7 16//7
f 28//7 16//7 21//7
f 32//7 16//7 28//7
f 31//7 16//7 32//7
f 44//7 16//7 31//7
f 55//7 16//7 46//7
f 63//7 16//7 57//7
f 65//7 16//7 63//7
f 38//7 16//7 65//7
f 92//7 94//7 16//7
f 75//7 73//7 16//7
f 73//7 78//7 16//7
f 78//7 80//7 16//7
f 80//7 79//7 16//7
f 87//7 16//7 79//7
f 87//7 86//7 16//7
f 91//7 16//7 86//7
f 92//7 16//7 91//7
