# Blender v2.82 (sub 7) OBJ File: ''
# www.blender.org
mtllib cheddar.mtl
o Cheddar
v 9.501000 0.000000 -8.720000
v 9.501000 0.601000 -8.720000
v 9.501000 0.000000 10.281000
v 9.501000 0.601000 10.281000
v -9.500000 0.601000 -8.720000
v -0.058752 0.601000 -7.322217
v -6.616000 0.601000 8.564000
v -7.175546 0.601000 8.190284
v -9.500000 0.601000 10.281000
v -9.500000 0.000000 10.281000
v -9.500000 0.000000 -8.720000
v -4.343000 0.601000 -3.144000
v -6.616000 0.601000 0.813000
v -4.024000 0.601000 -1.539000
v -4.024000 0.601000 -4.750000
v 3.299000 0.298000 0.064000
v 7.871000 0.298000 6.906000
v 4.905000 0.298000 -0.255000
v 6.510000 0.298000 0.064000
v 7.871000 0.298000 0.973000
v 8.781000 0.298000 2.334000
v 1.938000 0.298000 0.973000
v -5.010000 0.601000 8.884000
v -9.100246 0.601000 4.157579
v -8.886000 0.601000 3.083000
v 6.510000 0.601000 0.064000
v 4.905000 0.601000 -0.255000
v 3.728000 0.601000 -4.750000
v 3.941680 0.601000 -3.674233
v 7.871000 0.601000 0.973000
v -3.405000 0.601000 8.564000
v -3.405000 0.298000 8.564000
v 8.781000 0.601000 2.334000
v -2.044000 0.601000 7.655000
v -2.044000 0.298000 7.655000
v -0.058752 0.298000 -7.322217
v -2.960555 0.601000 -6.213484
v -2.960555 0.298000 -6.213484
v -1.135000 0.601000 6.294000
v -1.135000 0.298000 6.294000
v 2.017546 0.298000 0.357284
v 2.017546 0.601000 0.357284
v 3.941680 0.298000 -3.674233
v -0.815000 0.601000 4.688000
v -0.815000 0.298000 4.688000
v -1.135000 0.601000 3.083000
v -1.135000 0.298000 3.083000
v 3.299000 0.601000 7.816000
v 1.938000 0.601000 6.906000
v -0.148000 0.298000 1.051000
v -1.753000 0.298000 0.731000
v -1.753000 0.601000 0.731000
v -0.148000 0.601000 1.051000
v -2.044000 0.298000 1.722000
v -2.044000 0.601000 1.722000
v -2.197445 0.601000 1.619516
v -2.197445 0.298000 1.619516
v -3.114000 0.298000 -0.178000
v -3.114000 0.601000 -0.178000
v 4.905000 0.298000 8.135000
v 3.299000 0.298000 7.816000
v 4.905000 0.601000 8.135000
v -4.024000 0.298000 -1.539000
v 1.938000 0.298000 6.906000
v -4.343000 0.298000 -3.144000
v 1.029000 0.298000 5.545000
v 1.029000 0.601000 5.545000
v 0.710000 0.298000 3.940000
v 0.710000 0.601000 3.940000
v -4.024000 0.298000 -4.750000
v 1.029000 0.298000 2.334000
v 1.029000 0.601000 2.334000
v -3.114000 0.601000 -6.111000
v -3.114000 0.298000 -6.111000
v 1.458000 0.601000 -7.020000
v 1.938000 0.601000 0.973000
v 1.458000 0.601000 0.731000
v 2.819000 0.601000 -6.111000
v 9.100000 0.298000 3.940000
v 9.100000 0.601000 3.940000
v 8.781000 0.298000 5.545000
v 8.781000 0.601000 5.545000
v 7.871000 0.601000 6.906000
v 1.458000 0.298000 -7.020000
v 6.510000 0.298000 7.816000
v 6.510000 0.601000 7.816000
v 3.299000 0.601000 0.064000
v 2.819000 0.298000 -6.111000
v 3.728000 0.298000 -4.750000
v 1.458000 0.298000 0.731000
v -5.099248 0.601000 0.510783
v -5.099248 0.298000 0.510783
v -9.100246 0.298000 4.157579
v -7.175546 0.298000 8.190284
v -5.010000 0.298000 8.884000
v -7.977000 0.601000 1.722000
v -6.616000 0.298000 0.813000
v -7.977000 0.298000 1.722000
v -8.886000 0.298000 3.083000
v -6.616000 0.298000 8.564000
vn 1.0000 0.0000 0.0000
vn 0.0000 1.0000 -0.0000
vn -1.0000 0.0000 0.0000
vn 0.0000 -1.0000 0.0000
vn 0.0000 0.0000 1.0000
vn -0.1955 0.0000 -0.9807
vn 0.0000 0.0000 -1.0000
vn -0.5554 0.0000 -0.8316
vn 0.3569 0.0000 0.9341
vn -0.8316 0.0000 -0.5554
vn -0.9025 0.0000 -0.4307
vn -0.9807 0.0000 -0.1954
vn -0.9807 0.0000 0.1955
vn 0.1955 0.0000 -0.9807
vn -0.8316 0.0000 0.5554
vn -0.5554 0.0000 0.8316
vn 0.5554 0.0000 -0.8316
vn 0.1948 0.0000 -0.9808
vn 0.8313 0.0000 -0.5558
vn 0.5558 0.0000 -0.8313
vn 0.9808 0.0000 -0.1949
vn 0.8316 0.0000 -0.5554
vn 0.9808 0.0000 0.1948
vn 0.8316 0.0000 0.5554
vn 0.8313 0.0000 0.5558
vn -0.8313 0.0000 0.5558
vn -0.9808 0.0000 0.1948
vn -0.9808 0.0000 -0.1949
vn 0.5554 0.0000 0.8316
vn -0.8313 0.0000 -0.5558
vn -0.1954 0.0000 0.9807
vn -0.5558 0.0000 -0.8313
vn -0.1949 0.0000 -0.9808
vn 0.1948 0.0000 0.9808
vn -0.1954 0.0000 -0.9807
vn -0.3569 0.0000 0.9341
vn 0.9025 0.0000 -0.4307
vn -0.1949 0.0000 0.9808
vn 0.1954 0.0000 0.9807
vn 0.9807 0.0000 0.1955
vn 0.1954 0.0000 -0.9807
usemtl None
s off
f 1//1 2//1 3//1
f 4//1 3//1 2//1
f 5//2 6//2 2//2
f 7//2 8//2 9//2
f 10//3 9//3 5//3
f 10//3 5//3 11//3
f 10//4 11//4 3//4
f 1//4 3//4 11//4
f 12//2 13//2 14//2
f 5//2 12//2 15//2
f 16//2 17//2 18//2
f 19//2 18//2 20//2
f 20//2 18//2 21//2
f 22//2 17//2 16//2
f 23//2 7//2 9//2
f 24//2 25//2 5//2
f 9//2 24//2 5//2
f 9//5 3//5 4//5
f 26//2 2//2 27//2
f 28//2 29//2 2//2
f 30//2 2//2 26//2
f 31//6 32//6 23//6
f 11//7 2//7 1//7
f 3//5 9//5 10//5
f 33//2 2//2 30//2
f 2//7 11//7 5//7
f 34//8 35//8 32//8
f 34//8 32//8 31//8
f 36//9 6//9 37//9
f 36//9 37//9 38//9
f 39//10 40//10 35//10
f 39//10 35//10 34//10
f 5//2 37//2 6//2
f 41//11 42//11 43//11
f 44//12 45//12 40//12
f 44//12 40//12 39//12
f 46//13 47//13 45//13
f 46//13 45//13 44//13
f 31//2 48//2 34//2
f 43//11 42//11 29//11
f 48//2 49//2 34//2
f 50//14 51//14 52//14
f 50//14 52//14 53//14
f 47//15 46//15 54//15
f 55//15 54//15 46//15
f 54//16 55//16 56//16
f 54//16 56//16 57//16
f 52//17 51//17 58//17
f 52//17 58//17 59//17
f 46//2 53//2 55//2
f 56//2 55//2 52//2
f 52//2 59//2 56//2
f 60//18 61//18 48//18
f 60//18 48//18 62//18
f 63//19 14//19 59//19
f 63//19 59//19 58//19
f 48//20 61//20 64//20
f 48//20 64//20 49//20
f 14//21 63//21 65//21
f 14//21 65//21 12//21
f 66//22 67//22 49//22
f 66//22 49//22 64//22
f 5//2 13//2 12//2
f 67//21 66//21 68//21
f 67//21 68//21 69//21
f 70//23 15//23 12//23
f 70//23 12//23 65//23
f 71//23 72//23 69//23
f 71//23 69//23 68//23
f 37//2 5//2 73//2
f 73//2 5//2 15//2
f 72//24 71//24 22//24
f 74//25 15//25 70//25
f 75//2 2//2 6//2
f 76//2 77//2 72//2
f 53//2 46//2 72//2
f 21//26 33//26 30//26
f 74//25 73//25 15//25
f 78//2 2//2 75//2
f 53//2 72//2 77//2
f 79//27 80//27 33//27
f 79//27 33//27 21//27
f 28//2 2//2 78//2
f 81//28 82//28 80//28
f 81//28 80//28 79//28
f 38//29 37//29 73//29
f 38//29 73//29 74//29
f 80//2 2//2 33//2
f 29//2 27//2 2//2
f 17//30 83//30 82//30
f 17//30 82//30 81//30
f 84//31 75//31 6//31
f 85//32 86//32 83//32
f 85//32 83//32 17//32
f 84//31 6//31 36//31
f 76//2 87//2 42//2
f 76//2 42//2 77//2
f 86//33 85//33 60//33
f 86//33 60//33 62//33
f 88//16 78//16 75//16
f 88//16 75//16 84//16
f 42//2 87//2 29//2
f 27//2 29//2 87//2
f 89//15 78//15 88//15
f 35//2 40//2 32//2
f 32//2 40//2 45//2
f 47//2 32//2 45//2
f 82//2 4//2 80//2
f 83//2 4//2 82//2
f 86//2 4//2 83//2
f 2//2 80//2 4//2
f 89//15 28//15 78//15
f 4//2 86//2 62//2
f 67//2 39//2 49//2
f 48//2 31//2 62//2
f 32//2 47//2 54//2
f 32//2 54//2 57//2
f 43//27 29//27 28//27
f 43//27 28//27 89//27
f 69//2 44//2 67//2
f 69//2 72//2 46//2
f 52//2 55//2 53//2
f 44//2 69//2 46//2
f 44//2 39//2 67//2
f 39//2 34//2 49//2
f 90//8 77//8 42//8
f 90//8 42//8 41//8
f 9//2 4//2 23//2
f 23//2 4//2 31//2
f 62//2 31//2 4//2
f 76//29 16//29 87//29
f 27//34 87//34 16//34
f 14//2 91//2 59//2
f 22//2 71//2 68//2
f 22//2 68//2 66//2
f 22//2 66//2 64//2
f 22//2 64//2 61//2
f 22//2 61//2 60//2
f 22//2 60//2 85//2
f 22//2 85//2 17//2
f 81//2 18//2 17//2
f 79//2 18//2 81//2
f 21//2 18//2 79//2
f 77//35 90//35 53//35
f 24//2 9//2 8//2
f 56//36 91//36 92//36
f 56//36 92//36 57//36
f 53//35 90//35 50//35
f 93//37 8//37 94//37
f 72//24 22//24 76//24
f 93//37 24//37 8//37
f 76//29 22//29 16//29
f 56//2 59//2 91//2
f 91//2 14//2 13//2
f 18//34 27//34 16//34
f 32//6 95//6 23//6
f 19//38 26//38 27//38
f 19//38 27//38 18//38
f 96//2 5//2 25//2
f 13//2 5//2 96//2
f 20//16 30//16 26//16
f 20//16 26//16 19//16
f 13//39 97//39 91//39
f 92//39 91//39 97//39
f 30//26 20//26 21//26
f 97//29 13//29 96//29
f 97//29 96//29 98//29
f 98//24 96//24 25//24
f 98//24 25//24 99//24
f 70//2 90//2 74//2
f 43//2 38//2 41//2
f 65//2 90//2 70//2
f 63//2 90//2 65//2
f 58//2 90//2 63//2
f 51//2 90//2 58//2
f 50//2 90//2 51//2
f 41//2 38//2 90//2
f 99//40 25//40 24//40
f 99//40 24//40 93//40
f 88//2 84//2 38//2
f 7//17 100//17 94//17
f 7//17 94//17 8//17
f 23//41 95//41 100//41
f 23//41 100//41 7//41
f 89//2 38//2 43//2
f 88//2 38//2 89//2
f 36//2 38//2 84//2
f 74//2 90//2 38//2
f 32//2 93//2 94//2
f 32//2 94//2 100//2
f 32//2 100//2 95//2
f 98//2 32//2 97//2
f 97//2 32//2 92//2
f 99//2 32//2 98//2
f 32//2 99//2 93//2
f 57//2 92//2 32//2
