# Blender v2.82 (sub 7) OBJ File: ''
# www.blender.org
mtllib lettuce.mtl
o Lettuce
v -8.600424 -0.001000 -4.280620
v -8.420988 -0.001000 -4.632763
v -7.954000 -0.001000 -3.700000
v 1.459956 0.506000 -9.338096
v 1.459956 -0.001000 -9.338096
v 1.024179 -0.001000 -9.560122
v 1.024179 0.506000 -9.560122
v -6.639136 -0.001000 8.296449
v -6.639136 0.506000 8.296449
v -6.942378 -0.001000 8.134500
v -6.942378 0.506000 8.134500
v 0.557968 0.506000 -9.797656
v 0.557968 -0.001000 -9.797656
v 0.208142 -0.001000 -9.975892
v 0.208142 0.506000 -9.975892
v -5.957362 -0.001000 8.660557
v -5.957362 0.506000 8.660557
v -6.214081 -0.001000 8.523454
v -6.214081 0.506000 8.523454
v 6.198430 -0.001000 6.911434
v 5.557000 -0.001000 5.840000
v 6.395622 -0.001000 6.778430
v -5.126831 0.506000 9.104112
v -5.650152 0.506000 8.824626
v -5.126831 -0.001000 9.104112
v -5.650152 -0.001000 8.824626
v -4.821084 0.506000 9.267399
v -4.821084 -0.001000 9.267399
v -4.381045 -0.001000 9.502406
v -4.381045 0.506000 9.502406
v -3.788865 0.506000 9.818666
v -4.084367 0.506000 9.660851
v -3.788865 -0.001000 9.818666
v -4.084367 -0.001000 9.660851
v -0.318126 -0.001000 -10.244024
v -0.518987 -0.001000 -10.346363
v -0.318126 0.344680 -10.244024
v -3.556805 -0.001000 9.786045
v -3.338000 -0.001000 8.537000
v -3.556805 0.506000 9.786045
v -0.518987 0.506000 -10.346363
v -0.318067 0.506000 -10.243995
v -4.730000 -0.001000 8.574000
v -4.730000 0.506000 8.574000
v -5.959000 0.506000 7.638000
v -7.396442 -0.001000 7.892001
v -6.733000 0.506000 7.154000
v -7.396442 0.506000 7.892001
v -1.105665 -0.001000 -10.645274
v -1.370825 -0.001000 -10.780373
v -1.105665 0.224952 -10.645274
v -8.361000 -0.001000 6.577000
v -8.361000 0.506000 6.577000
v -8.636809 0.506000 7.229569
v -8.636809 -0.001000 7.229569
v -1.370825 0.506000 -10.780373
v -1.105567 0.506000 -10.645224
v 2.169708 -0.001000 -8.976479
v 1.957327 -0.001000 -9.084686
v 2.169708 0.287408 -8.976479
v 5.581672 -0.001000 7.176514
v 5.417980 -0.001000 7.135697
v -9.388806 0.506000 4.366370
v -9.388806 -0.001000 4.366370
v -8.638000 -0.001000 4.107000
v 1.957327 0.506000 -9.084686
v 2.169673 0.506000 -8.976496
v -9.534684 0.506000 3.328266
v -9.534684 -0.001000 3.328266
v -8.560000 -0.001000 3.867000
v -1.377000 0.506000 -9.987000
v -2.136535 0.506000 -10.391975
v -1.800000 0.506000 -9.466000
v -9.567692 -0.001000 3.093369
v -9.567692 0.287222 3.093369
v -8.323000 -0.001000 2.986000
v 6.453000 -0.001000 5.667000
v -9.315954 0.483470 4.884808
v -9.299557 0.506000 4.865996
v -9.315954 -0.001000 4.884808
v -9.315954 0.506000 4.884807
v 6.702000 -0.001000 5.632000
v 6.858576 -0.001000 6.466174
v -9.038253 0.506000 5.747607
v -9.179276 0.344603 5.857444
v -9.179270 0.506000 5.857495
v -8.244000 -0.001000 5.129000
v -8.256803 -0.001000 7.432517
v -8.256803 0.506000 7.432517
v -9.147872 0.506000 6.080932
v -9.147872 -0.001000 6.080932
v -7.963000 0.506000 5.997000
v -7.963000 -0.001000 5.997000
v -9.261413 0.506000 5.272943
v -9.261413 -0.001000 5.272943
v 7.448000 -0.001000 4.829000
v 7.698124 -0.001000 5.899909
v -8.638000 0.506000 4.107000
v -8.560000 0.506000 3.867000
v 0.958000 0.506000 -8.596000
v 0.806000 0.506000 -8.797000
v -7.372181 0.506000 -0.156736
v -9.326234 0.506000 3.072541
v -8.323000 0.506000 2.986000
v 9.491358 -0.001000 4.690398
v 9.245308 -0.001000 4.856355
v 8.801000 -0.001000 4.299000
v 9.507117 -0.001000 4.261197
v -9.456894 -0.001000 3.881844
v -9.456894 0.506000 3.881844
v 7.263839 -0.001000 6.192829
v 2.819471 -0.001000 6.487760
v 4.494000 -0.001000 6.107000
v 4.674514 -0.001000 6.950315
v -8.244000 0.506000 5.129000
v -9.179276 -0.001000 5.857444
v -9.056265 -0.001000 6.732835
v -9.056265 0.506000 6.732835
v -8.195901 0.506000 7.465042
v -8.195901 -0.001000 7.465042
v -7.692000 0.506000 6.625000
v -7.692000 -0.001000 6.625000
v -2.253000 -0.001000 8.687000
v -1.385791 -0.001000 8.923975
v -1.662574 -0.001000 9.519768
v -7.710590 0.506000 7.631439
v -7.712287 0.423014 7.723320
v -7.712287 -0.001000 7.723320
v -5.959000 -0.001000 7.638000
v -7.712316 0.506000 7.723306
v -1.423000 -0.001000 8.662000
v -6.733000 -0.001000 7.154000
v -0.344000 -0.001000 8.469000
v -0.843952 -0.001000 9.404692
v -5.689000 -0.001000 8.108000
v -5.689000 0.506000 8.108000
v 1.544000 0.506000 -7.896000
v -0.257000 0.506000 -9.060000
v -1.130000 0.506000 -9.327000
v -2.783000 0.506000 -8.984000
v -3.953000 0.506000 9.007000
v 0.562000 -0.001000 8.359000
v 0.065947 -0.001000 9.276785
v -3.953000 -0.001000 9.007000
v 0.456912 -0.001000 9.221827
v -3.338000 0.506000 8.537000
v 8.023789 -0.001000 5.680253
v 1.561749 -0.001000 9.066516
v 0.900551 -0.001000 9.159463
v -2.995042 0.506000 9.483822
v -2.918092 0.302048 9.696259
v -2.918024 0.506000 9.696250
v -3.007215 0.506000 -9.950335
v -2.613163 0.506000 -10.058731
v -2.687185 0.506000 -10.112666
v -2.918092 -0.001000 9.696259
v -2.112139 0.506000 9.582965
v -2.112139 -0.001000 9.582965
v -9.535906 -0.001000 2.421680
v -9.535906 0.506000 2.421680
v -8.097000 -0.001000 1.913000
v -7.372181 -0.001000 -0.156736
v -0.389004 -0.001000 9.340739
v -2.623096 -0.001000 9.654791
v -7.525000 -0.001000 -4.506000
v -9.106964 -0.001000 -3.286533
v -8.803612 -0.001000 -3.881862
v -8.934777 -0.001000 1.705341
v -8.934777 0.506000 1.705341
v -8.097000 0.506000 1.913000
v -9.065617 0.506000 2.189931
v -9.428491 0.165461 2.293678
v -9.428491 -0.001000 2.293678
v -9.428358 0.506000 2.293520
v 8.512769 -0.001000 5.350442
v 8.105000 -0.001000 4.196000
v -9.567693 0.506000 3.093363
v -3.624000 0.506000 -8.628000
v -3.772746 0.506000 -9.562028
v -3.465719 0.506000 -9.717764
v -9.106964 0.506000 -3.286533
v 8.699979 -0.001000 5.224172
v -1.752739 -0.001000 -10.586652
v -1.752739 0.506000 -10.586652
v -4.462211 0.506000 -9.212306
v -4.164000 0.506000 -8.676000
v -4.202387 0.506000 -9.344098
v -2.136535 -0.001000 -10.391975
v -2.199103 0.506000 -10.360239
v 3.465545 -0.001000 -5.709000
v -2.199103 -0.001000 -10.360239
v 8.550000 -0.001000 3.678000
v 9.522891 -0.001000 3.831604
v -2.687167 -0.001000 -10.112675
v -3.007215 -0.001000 -9.950335
v -2.687167 0.423365 -10.112675
v -3.465719 -0.001000 -9.717764
v -3.772746 -0.001000 -9.562028
v -4.202387 -0.001000 -9.344098
v -4.462211 -0.001000 -9.212306
v 9.525443 -0.001000 3.762090
v -5.301641 0.506000 -8.786515
v -5.095000 0.506000 -8.158000
v -4.772526 0.506000 -9.054902
v -5.301641 -0.001000 -8.786515
v -4.772526 -0.001000 -9.054902
v -6.760633 -0.001000 -7.891214
v -6.760633 0.506000 -7.891214
v -6.653954 0.506000 -8.100572
v -6.653954 -0.001000 -8.100572
v -5.610250 0.506000 -8.629977
v -5.610250 -0.001000 -8.629977
v -6.056058 -0.001000 -8.403847
v -6.056058 0.506000 -8.403847
v -7.188728 -0.001000 -7.051075
v -7.188728 0.506000 -7.051075
v -7.053201 0.302458 -7.317049
v -7.053201 -0.001000 -7.317049
v 8.605000 -0.001000 2.583000
v 9.545538 -0.001000 3.214813
v -7.053209 0.506000 -7.317032
v -6.355702 -0.001000 -8.251856
v -6.355702 0.506000 -8.251856
v -7.628786 -0.001000 -6.187462
v -7.628786 0.506000 -6.187462
v -7.422698 0.506000 -6.591910
v -7.422698 -0.001000 -6.591910
v -8.600424 0.506000 -4.280620
v -8.212465 0.506000 -5.041990
v -8.003807 0.506000 -5.451482
v -8.003807 -0.001000 -5.451482
v -5.896000 0.506000 -7.770000
v -8.212465 -0.001000 -5.041990
v -7.300047 0.506000 -5.619792
v -7.300047 -0.001000 -5.619792
v -8.420988 0.506000 -4.632763
v -6.609000 -0.001000 -6.194000
v -6.609000 0.506000 -6.194000
v -5.864000 0.506000 -6.997000
v -8.803612 0.506000 -3.881862
v -5.095000 -0.001000 -8.158000
v 9.590227 -0.001000 1.997734
v 8.702000 -0.001000 1.676000
v 9.577589 -0.001000 2.341925
v 9.558725 -0.001000 2.855673
v -3.624000 -0.001000 -8.628000
v -2.783000 -0.001000 -8.984000
v 9.005000 -0.001000 1.227000
v 9.607889 -0.001000 1.516723
v 6.702000 0.506000 5.632000
v 6.858576 0.506000 6.466174
v 7.263839 0.506000 6.192829
v 9.618570 -0.001000 1.225814
v 8.023789 0.506000 5.680253
v 7.448000 0.506000 4.829000
v 7.698116 0.506000 5.899915
v -6.835438 0.506000 -7.258442
v 9.653111 -0.001000 0.285097
v 9.631341 -0.001000 0.878019
v 9.003000 -0.001000 0.161000
v 9.665825 -0.001000 -0.061131
v 9.052000 -0.001000 -0.728000
v 8.512818 0.506000 5.350410
v 8.699979 0.506000 5.224172
v 8.352156 0.506000 5.271786
v 9.684172 -0.001000 -0.560811
v -7.064000 0.506000 -5.500000
v 8.361000 -0.001000 -1.074000
v 9.578333 -0.001000 -1.424921
v 9.696501 -0.001000 -0.896575
v 9.708797 -0.001000 -1.231481
v -0.308904 0.506000 -10.065400
v -0.257000 -0.001000 -9.060000
v 8.801000 0.506000 4.299000
v 8.975834 0.506000 4.700302
v 9.507117 0.506000 4.261197
v 9.245354 0.506000 4.856324
v 9.491358 0.506000 4.690398
v 9.050926 -0.001000 -2.206906
v 8.020000 -0.001000 -2.116000
v -7.525000 0.506000 -4.506000
v -1.111417 0.506000 -10.333682
v -1.130000 -0.001000 -9.327000
v 7.851733 -0.001000 -2.998275
v 8.508723 -0.001000 -3.010829
v 8.762639 -0.001000 -2.634348
v 9.217662 -0.001000 -1.959688
v 2.293000 0.506000 -7.097000
v 7.634000 -0.001000 -2.851000
v -7.954000 0.506000 -3.700000
v 7.674079 0.506000 5.893443
v 6.988000 -0.001000 -3.735000
v 7.789784 -0.001000 -4.076798
v 8.046963 -0.001000 -3.695480
v 6.492000 -0.001000 -4.501000
v 7.533304 -0.001000 -4.457081
v 7.312407 -0.001000 -4.784604
v -1.377000 -0.001000 -9.987000
v 6.688951 -0.001000 -5.709000
v 7.062143 -0.001000 -5.155670
v 8.105000 0.506000 4.196000
v 4.494000 0.506000 6.107000
v 5.417980 0.506000 7.135697
v 5.557000 0.506000 5.840000
v 5.581672 0.506000 7.176514
v 8.605000 0.506000 2.583000
v 9.525443 0.506000 3.762090
v 8.550000 0.506000 3.678000
v 9.522891 0.506000 3.831604
v 6.074118 0.506000 6.703785
v 6.453000 0.506000 5.667000
v 6.395622 0.506000 6.778430
v 1.544000 -0.001000 -7.896000
v 2.048302 0.506000 -8.766834
v 9.463126 0.506000 3.253156
v 9.545537 0.506000 3.214842
v 9.558725 0.506000 2.855673
v 0.806000 -0.001000 -8.797000
v 9.577589 0.506000 2.341925
v 9.590227 0.506000 1.997734
v 8.702000 0.506000 1.676000
v 9.618570 0.506000 1.225814
v 9.005000 0.506000 1.227000
v 9.607889 0.506000 1.516723
v -9.014832 -0.001000 7.027683
v 9.631341 0.506000 0.878019
v 9.003000 0.506000 0.161000
v 9.653111 0.506000 0.285097
v 0.958000 -0.001000 -8.596000
v 2.700130 0.506000 -8.565517
v 2.700130 -0.001000 -8.565517
v 9.665825 0.506000 -0.061131
v 9.052000 0.506000 -0.728000
v 9.684172 0.506000 -0.560811
v 2.293000 -0.001000 -7.097000
v 2.942039 -0.001000 -7.662716
v 4.674514 0.506000 6.950315
v 2.819471 0.506000 6.487760
v 9.578333 0.506000 -1.424921
v 9.708797 0.506000 -1.231481
v 6.198517 0.506000 6.911375
v 2.744022 -0.001000 -8.401711
v 2.744022 0.168194 -8.401711
v 8.361000 0.506000 -1.074000
v 9.696501 0.506000 -0.896575
v 9.217691 0.506000 -1.959644
v 9.050926 0.506000 -2.206906
v 9.060743 0.506000 -1.797452
v -1.423000 0.506000 8.662000
v -2.253000 0.506000 8.687000
v -1.385791 0.506000 8.923975
v -1.662574 0.506000 9.519768
v 8.020000 0.506000 -2.116000
v -0.389004 0.506000 9.340739
v -0.344000 0.506000 8.469000
v -0.843952 0.506000 9.404692
v 8.762639 0.506000 -2.634348
v 8.508723 0.506000 -3.010829
v 7.851733 0.506000 -2.998275
v 7.634000 0.506000 -2.851000
v 6.988000 0.506000 -3.735000
v 7.789784 0.506000 -4.076798
v 8.046963 0.506000 -3.695480
v 0.456912 0.506000 9.221827
v 0.562000 0.506000 8.359000
v 0.065947 0.506000 9.276785
v 6.492000 0.506000 -4.501000
v 7.533304 0.506000 -4.457081
v -1.800000 -0.001000 -9.466000
v 0.900551 0.506000 9.159463
v 1.561749 0.506000 9.066516
v 7.312407 0.506000 -4.784604
v 3.465545 0.506000 -5.709000
v 7.062143 0.506000 -5.155670
v 6.688951 0.506000 -5.709000
v -4.164000 -0.001000 -8.676000
v 2.942039 0.506000 -7.662716
v -5.896000 -0.001000 -7.770000
v 2.744004 0.506000 -8.401779
v -5.864000 -0.001000 -6.997000
v 2.621726 0.506000 -8.047933
v -7.064000 -0.001000 -5.500000
v 6.198430 0.287723 6.911434
v 7.698124 0.483540 5.899909
v -9.014832 0.506000 7.027683
v 8.512769 0.344703 5.350442
v 9.245308 0.225026 4.856355
v 9.217662 0.302380 -1.959688
v 9.545538 0.424051 3.214813
v -2.623096 0.506000 9.654791
vn 0.0000 -1.0000 0.0000
vn 0.4540 0.0000 -0.8910
vn -0.4711 0.0000 0.8821
vn 0.9850 0.0000 0.1725
vn 0.8005 0.0000 0.5993
vn 0.6956 0.0000 0.7185
vn 0.7437 0.0000 0.6685
vn 0.9211 0.0000 0.3893
vn 0.3265 0.0000 0.9452
vn -0.4838 0.0000 0.8752
vn 0.0000 1.0000 -0.0000
vn -0.0859 0.0000 -0.9963
vn -0.7538 -0.0001 -0.6571
vn -0.7538 0.0000 -0.6571
vn -0.6147 0.0003 -0.7888
vn -0.6145 0.0000 -0.7889
vn -0.9927 0.0000 0.1209
vn 0.0707 0.0000 0.9975
vn 0.1401 0.0000 0.9901
vn -0.0165 0.0000 -0.9999
vn -0.5584 0.0000 -0.8296
vn 0.8575 0.0000 0.5144
vn -0.9998 0.0000 -0.0185
vn -0.9998 -0.0003 -0.0188
vn -0.9780 0.0000 -0.2088
vn -0.9609 0.0000 -0.2768
vn 0.8995 0.0000 0.4369
vn -0.9985 0.0000 0.0541
vn -0.9915 0.0000 -0.1302
vn 0.7567 0.0000 0.6538
vn -0.9804 0.0000 -0.1970
vn 0.9850 0.0000 0.1726
vn -0.9401 0.0003 0.3408
vn -0.9402 0.0000 0.3406
vn -0.9879 0.0000 0.1553
vn -0.4218 0.0000 0.9067
vn -0.2406 0.0000 0.9706
vn -0.2749 0.0000 -0.9615
vn -0.2746 -0.0003 -0.9616
vn -0.8746 0.0000 0.4848
vn -0.4524 0.0000 -0.8918
vn -0.8910 0.0000 -0.4540
vn -0.6682 0.0000 0.7440
vn -0.8654 0.0000 0.5011
vn -0.8283 0.0000 0.5603
vn -0.7062 0.0000 0.7081
vn -0.9500 0.0000 0.3123
vn -0.9876 0.0000 0.1573
vn -0.9741 0.0000 0.2260
vn -0.9132 0.0000 0.4076
vn -0.8474 0.0000 0.5310
vn -0.4393 0.0000 -0.8983
vn 0.9987 -0.0000 -0.0516
vn 0.9987 -0.0004 -0.0512
vn 0.9998 -0.0000 0.0185
vn 0.9998 -0.0004 0.0188
vn 0.8283 0.0000 0.5603
vn 0.9706 0.0000 -0.2406
vn 0.4705 0.0000 -0.8824
vn -0.9615 0.0000 -0.2749
vn 0.8654 0.0000 0.5011
vn -0.8577 0.0000 -0.5141
vn -0.8916 0.0000 -0.4528
vn -0.5011 0.0000 -0.8654
vn -0.6571 0.0000 -0.7538
vn 0.9451 0.0000 0.3267
vn 0.5889 0.0002 -0.8082
vn 0.5890 0.0000 -0.8081
vn 0.7321 0.0000 -0.6812
vn 0.7779 0.0000 -0.6283
vn -0.8740 0.0000 0.4860
vn 0.5286 0.0000 -0.8489
vn 0.6755 0.0000 -0.7374
vn -0.9696 0.0000 0.2448
vn 0.7235 0.0000 -0.6903
vn 0.2598 0.0001 -0.9657
vn 0.2599 0.0000 -0.9656
vn 0.4393 0.0000 -0.8983
vn -0.4525 0.0000 0.8917
vn -0.4526 0.0000 0.8917
vn -0.0516 0.0000 -0.9987
vn -0.6149 0.0000 0.7886
vn 0.1401 0.0000 -0.9901
vn 0.5592 0.0000 0.8290
vn 0.2093 0.0000 -0.9778
vn 0.1392 0.0000 0.9903
vn -0.2419 0.0000 0.9703
vn -0.8580 0.0000 0.5137
vn -0.8917 0.0000 0.4526
vn 0.9987 0.0000 0.0516
vn 0.9998 0.0000 -0.0185
vn 0.9778 0.0000 -0.2093
vn -0.7440 0.0000 0.6682
vn 0.8291 0.0000 -0.5592
vn 0.9993 0.0000 0.0367
vn -0.8578 0.0005 0.5140
vn 0.8988 0.0000 0.4384
vn 0.9927 0.0000 0.1209
vn 0.9069 0.0000 0.4213
vn 0.9340 0.0000 0.3572
vn 0.9901 0.0000 -0.1406
vn -0.7886 0.0000 0.6149
vn -0.9210 0.0000 0.3895
vn 0.9452 0.0001 0.3266
vn 0.8654 0.0002 0.5010
vn -0.5603 0.0000 -0.8283
vn -0.0191 0.0000 -0.9998
vn -0.2770 0.0000 -0.9609
vn 0.1875 0.0000 -0.9823
vn 0.3406 0.0000 -0.9402
vn 0.2749 0.0000 -0.9615
vn -0.0535 0.0000 -0.9986
vn -0.2597 0.0000 0.9657
vn -0.2600 -0.0004 0.9656
vn -0.4396 0.0003 0.8982
vn -0.4398 0.0000 0.8981
vn -0.5010 0.0002 0.8654
vn -0.5011 0.0000 0.8654
vn 0.5435 0.0000 0.8394
vn 0.8283 0.0000 -0.5603
vn 0.7065 0.0000 -0.7077
vn 0.8655 0.0000 -0.5009
vn 0.0859 0.0000 -0.9963
vn 0.4218 0.0000 0.9067
vn 0.4216 -0.0003 0.9068
vn 0.2406 0.0000 0.9706
vn 0.1732 0.0000 0.9849
vn -0.0019 0.0000 -1.0000
vn 0.4867 0.0000 0.8736
vn 0.3178 0.0000 0.9482
vn 0.2557 0.0000 -0.9668
vn 0.2530 0.0000 0.9675
vn 0.7188 0.0000 0.6952
vn 0.7186 -0.0003 0.6954
vn -0.0878 0.0000 -0.9961
vn 0.5724 0.0000 0.8200
vn 0.8983 0.0000 0.4393
vn 0.0000 0.0000 -1.0000
vn -0.3267 0.0000 -0.9451
vn -0.3922 0.0000 -0.9199
vn 0.7980 0.0000 0.6026
vn 0.7541 0.0000 0.6567
vn 0.9659 0.0000 -0.2588
vn -0.9903 0.0000 0.1392
vn -0.7660 0.0000 -0.6428
usemtl None
s off
f 1//1 2//1 3//1
f 4//2 5//2 6//2
f 4//2 6//2 7//2
f 8//3 9//3 10//3
f 11//3 10//3 9//3
f 12//2 13//2 14//2
f 12//2 14//2 15//2
f 16//3 17//3 18//3
f 19//3 18//3 17//3
f 20//1 21//1 22//1
f 23//3 24//3 25//3
f 26//3 25//3 24//3
f 27//3 28//3 29//3
f 27//3 29//3 30//3
f 31//3 32//3 33//3
f 34//3 33//3 32//3
f 35//2 36//2 37//2
f 38//4 39//4 40//4
f 36//2 41//2 37//2
f 42//2 37//2 41//2
f 43//5 44//5 23//5
f 43//5 23//5 25//5
f 8//6 45//6 9//6
f 46//7 47//7 48//7
f 49//2 50//2 51//2
f 52//8 53//8 54//8
f 52//8 54//8 55//8
f 50//2 56//2 51//2
f 57//2 51//2 56//2
f 58//2 59//2 60//2
f 61//1 62//1 21//1
f 63//9 64//9 65//9
f 66//2 60//2 59//2
f 67//2 60//2 66//2
f 68//10 69//10 70//10
f 71//11 72//11 73//11
f 74//12 75//12 76//12
f 22//1 21//1 77//1
f 78//13 79//13 65//13
f 78//14 65//14 80//14
f 79//13 78//13 81//13
f 77//1 82//1 83//1
f 84//15 85//15 86//15
f 84//16 87//16 85//16
f 53//17 52//17 88//17
f 53//17 88//17 89//17
f 90//18 91//18 92//18
f 93//18 92//18 91//18
f 87//19 94//19 95//19
f 82//1 96//1 97//1
f 63//9 65//9 98//9
f 68//10 70//10 99//10
f 100//11 101//11 102//11
f 103//12 104//12 76//12
f 105//1 106//1 107//1
f 108//1 105//1 107//1
f 109//20 110//20 70//20
f 99//20 70//20 110//20
f 111//1 83//1 82//1
f 112//1 113//1 114//1
f 79//14 98//14 65//14
f 113//1 21//1 62//1
f 94//19 87//19 115//19
f 116//16 85//16 87//16
f 115//16 87//16 84//16
f 117//21 118//21 93//21
f 92//21 93//21 118//21
f 119//22 120//22 121//22
f 122//22 121//22 120//22
f 123//1 124//1 125//1
f 121//23 122//23 126//23
f 127//23 126//23 122//23
f 127//23 122//23 128//23
f 39//1 129//1 123//1
f 126//24 127//24 130//24
f 124//1 123//1 131//1
f 132//7 47//7 46//7
f 11//25 47//25 132//25
f 11//25 132//25 10//25
f 129//6 45//6 8//6
f 19//26 45//26 129//26
f 19//26 129//26 18//26
f 131//1 133//1 134//1
f 135//27 17//27 16//27
f 17//27 135//27 136//27
f 24//28 136//28 135//28
f 24//28 135//28 26//28
f 137//11 100//11 102//11
f 101//11 138//11 102//11
f 102//11 139//11 140//11
f 73//11 140//11 139//11
f 44//29 43//29 28//29
f 44//29 28//29 27//29
f 141//30 30//30 29//30
f 133//1 142//1 143//1
f 144//30 141//30 29//30
f 145//1 143//1 142//1
f 141//31 144//31 34//31
f 141//31 34//31 32//31
f 146//32 40//32 39//32
f 147//1 97//1 96//1
f 112//1 148//1 142//1
f 149//1 142//1 148//1
f 150//33 151//33 152//33
f 153//11 140//11 154//11
f 155//11 153//11 154//11
f 146//34 39//34 150//34
f 151//34 150//34 39//34
f 151//34 39//34 156//34
f 157//35 123//35 158//35
f 159//36 76//36 160//36
f 104//36 160//36 76//36
f 112//1 142//1 161//1
f 162//1 3//1 112//1
f 163//1 134//1 133//1
f 164//1 39//1 123//1
f 3//1 165//1 112//1
f 162//1 166//1 3//1
f 167//1 3//1 166//1
f 168//37 161//37 169//37
f 170//37 169//37 161//37
f 73//11 154//11 140//11
f 170//38 161//38 171//38
f 172//38 171//38 161//38
f 172//38 161//38 173//38
f 171//39 172//39 174//39
f 103//12 76//12 75//12
f 175//1 96//1 176//1
f 103//12 75//12 177//12
f 178//11 102//11 140//11
f 179//11 178//11 140//11
f 179//11 140//11 180//11
f 181//40 166//40 162//40
f 181//40 162//40 102//40
f 182//1 175//1 176//1
f 56//41 50//41 183//41
f 56//41 183//41 184//41
f 185//11 186//11 187//11
f 72//41 188//41 189//41
f 113//1 112//1 165//1
f 96//1 190//1 176//1
f 106//1 176//1 107//1
f 189//41 188//41 191//41
f 178//11 187//11 186//11
f 107//1 176//1 192//1
f 107//1 192//1 193//1
f 194//41 195//41 196//41
f 153//41 196//41 195//41
f 155//41 196//41 153//41
f 21//1 165//1 77//1
f 77//1 165//1 82//1
f 180//41 197//41 198//41
f 180//41 198//41 179//41
f 187//41 199//41 200//41
f 187//41 200//41 185//41
f 201//1 193//1 192//1
f 202//11 203//11 204//11
f 205//41 202//41 206//41
f 204//41 206//41 202//41
f 207//42 208//42 209//42
f 207//42 209//42 210//42
f 113//1 165//1 21//1
f 211//41 212//41 213//41
f 211//41 213//41 214//41
f 215//42 216//42 217//42
f 215//42 217//42 218//42
f 192//1 219//1 220//1
f 203//11 178//11 186//11
f 186//11 204//11 203//11
f 221//42 217//42 216//42
f 210//41 209//41 222//41
f 223//41 222//41 209//41
f 224//42 225//42 226//42
f 224//42 226//42 227//42
f 3//43 228//43 1//43
f 229//42 230//42 231//42
f 203//11 211//11 232//11
f 214//11 232//11 211//11
f 233//42 229//42 231//42
f 234//44 225//44 224//44
f 234//44 224//44 235//44
f 1//42 236//42 2//42
f 237//45 238//45 216//45
f 237//45 216//45 215//45
f 232//11 239//11 203//11
f 207//46 239//46 208//46
f 1//42 228//42 236//42
f 240//42 167//42 181//42
f 166//42 181//42 167//42
f 241//47 203//47 202//47
f 241//47 202//47 205//47
f 242//1 219//1 243//1
f 244//1 219//1 242//1
f 192//1 176//1 219//1
f 245//1 220//1 219//1
f 223//11 209//11 232//11
f 243//1 219//1 190//1
f 246//48 178//48 179//48
f 246//48 179//48 198//48
f 209//11 208//11 232//11
f 247//49 140//49 153//49
f 247//49 153//49 195//49
f 243//1 248//1 249//1
f 191//50 73//50 189//50
f 250//11 251//11 252//11
f 239//11 232//11 208//11
f 183//51 71//51 184//51
f 253//1 249//1 248//1
f 203//11 239//11 178//11
f 102//11 178//11 239//11
f 254//11 255//11 256//11
f 219//1 176//1 190//1
f 102//11 239//11 238//11
f 216//11 238//11 257//11
f 221//11 216//11 257//11
f 100//52 66//52 59//52
f 239//11 257//11 238//11
f 258//1 259//1 260//1
f 261//1 260//1 262//1
f 263//11 264//11 265//11
f 266//1 261//1 262//1
f 267//11 238//11 234//11
f 225//11 234//11 238//11
f 225//11 238//11 226//11
f 268//1 269//1 262//1
f 270//1 262//1 271//1
f 271//1 262//1 269//1
f 259//1 248//1 260//1
f 262//1 260//1 268//1
f 238//11 267//11 102//11
f 268//1 260//1 243//1
f 243//1 190//1 268//1
f 272//53 273//53 37//53
f 274//11 275//11 276//11
f 277//11 278//11 275//11
f 278//11 276//11 275//11
f 272//54 37//54 42//54
f 279//1 268//1 280//1
f 267//11 230//11 281//11
f 229//11 281//11 230//11
f 282//55 283//55 51//55
f 267//11 281//11 102//11
f 284//1 285//1 280//1
f 286//1 280//1 285//1
f 282//56 51//56 57//56
f 287//1 268//1 279//1
f 288//11 137//11 102//11
f 289//1 284//1 280//1
f 248//1 243//1 260//1
f 290//11 102//11 281//11
f 268//1 190//1 280//1
f 228//11 290//11 236//11
f 281//11 236//11 290//11
f 291//11 255//11 250//11
f 280//1 190//1 289//1
f 289//1 190//1 292//1
f 240//11 181//11 290//11
f 293//1 294//1 292//1
f 294//1 289//1 292//1
f 100//57 5//57 4//57
f 292//1 190//1 295//1
f 291//11 256//11 255//11
f 101//58 13//58 12//58
f 292//1 295//1 296//1
f 297//1 296//1 295//1
f 298//51 71//51 183//51
f 190//1 299//1 295//1
f 300//1 295//1 299//1
f 264//11 301//11 265//11
f 302//11 303//11 304//11
f 305//11 304//11 303//11
f 255//11 265//11 301//11
f 72//59 71//59 298//59
f 72//59 298//59 188//59
f 306//11 304//11 255//11
f 275//11 274//11 301//11
f 101//60 7//60 6//60
f 307//11 308//11 309//11
f 274//11 309//11 308//11
f 304//11 310//11 311//11
f 312//11 311//11 310//11
f 137//61 313//61 314//61
f 301//11 274//11 308//11
f 138//53 273//53 272//53
f 315//11 306//11 308//11
f 64//1 109//1 65//1
f 139//62 41//62 36//62
f 316//11 317//11 315//11
f 311//11 251//11 250//11
f 306//11 315//11 317//11
f 101//60 6//60 318//60
f 65//1 87//1 80//1
f 80//1 87//1 95//1
f 255//11 311//11 250//11
f 308//11 306//11 301//11
f 319//11 320//11 306//11
f 320//11 321//11 306//11
f 322//11 323//11 324//11
f 55//1 325//1 52//1
f 117//1 52//1 325//1
f 35//53 37//53 273//53
f 321//11 324//11 323//11
f 139//55 283//55 282//55
f 326//11 327//11 323//11
f 138//63 15//63 14//63
f 328//11 327//11 326//11
f 329//52 100//52 59//52
f 327//11 321//11 323//11
f 311//11 255//11 304//11
f 137//64 330//64 331//64
f 327//11 332//11 333//11
f 334//11 333//11 332//11
f 335//65 288//65 336//65
f 337//11 302//11 338//11
f 339//11 333//11 340//11
f 312//11 310//11 341//11
f 342//66 343//66 335//66
f 327//11 333//11 344//11
f 339//11 344//11 333//11
f 345//11 340//11 333//11
f 76//1 133//1 70//1
f 313//64 137//64 331//64
f 346//11 347//11 348//11
f 349//11 350//11 351//11
f 352//11 351//11 350//11
f 352//11 350//11 157//11
f 58//61 60//61 313//61
f 353//11 348//11 347//11
f 100//57 329//57 5//57
f 344//11 348//11 353//11
f 354//11 355//11 356//11
f 356//11 355//11 349//11
f 357//11 358//11 353//11
f 318//58 13//58 101//58
f 358//11 359//11 353//11
f 360//11 353//11 359//11
f 360//11 361//11 304//11
f 321//11 304//11 306//11
f 273//63 138//63 14//63
f 69//1 76//1 70//1
f 362//11 361//11 363//11
f 321//11 327//11 344//11
f 65//1 109//1 70//1
f 283//62 139//62 36//62
f 364//11 365//11 366//11
f 360//11 363//11 361//11
f 49//55 51//55 283//55
f 355//11 366//11 365//11
f 365//11 338//11 355//11
f 146//11 45//11 44//11
f 361//11 367//11 304//11
f 368//11 367//11 361//11
f 369//50 73//50 191//50
f 370//11 371//11 365//11
f 371//11 338//11 365//11
f 372//11 367//11 368//11
f 154//67 196//67 155//67
f 353//11 360//11 304//11
f 373//11 304//11 367//11
f 374//11 375//11 367//11
f 73//68 369//68 154//68
f 196//68 154//68 369//68
f 196//68 369//68 194//68
f 373//11 367//11 375//11
f 355//11 338//11 349//11
f 349//11 338//11 350//11
f 102//11 290//11 181//11
f 302//11 373//11 338//11
f 140//69 247//69 197//69
f 140//69 197//69 180//69
f 178//70 246//70 199//70
f 178//70 199//70 187//70
f 200//71 186//71 185//71
f 376//71 186//71 200//71
f 204//72 186//72 376//72
f 204//72 376//72 206//72
f 203//73 241//73 212//73
f 203//73 212//73 211//73
f 338//11 373//11 102//11
f 288//11 102//11 373//11
f 344//11 353//11 304//11
f 301//11 306//11 255//11
f 321//11 344//11 304//11
f 302//11 304//11 373//11
f 377//11 288//11 373//11
f 214//74 213//74 232//74
f 378//74 232//74 213//74
f 330//11 137//11 379//11
f 232//75 378//75 222//75
f 232//75 222//75 223//75
f 87//1 65//1 133//1
f 70//1 133//1 65//1
f 380//46 239//46 207//46
f 257//76 217//76 221//76
f 91//1 116//1 93//1
f 87//1 93//1 116//1
f 379//11 137//11 381//11
f 239//77 380//77 257//77
f 217//77 257//77 380//77
f 217//77 380//77 218//77
f 238//78 237//78 227//78
f 238//78 227//78 226//78
f 117//1 93//1 52//1
f 93//1 122//1 52//1
f 52//1 122//1 88//1
f 234//79 235//79 267//79
f 382//80 267//80 235//80
f 267//81 382//81 231//81
f 267//81 231//81 230//81
f 229//82 233//82 281//82
f 165//82 281//82 233//82
f 281//83 165//83 2//83
f 281//83 2//83 236//83
f 111//84 251//84 83//84
f 3//43 290//43 228//43
f 87//1 133//1 93//1
f 161//1 133//1 76//1
f 290//85 3//85 167//85
f 290//85 167//85 240//85
f 94//11 115//11 81//11
f 120//1 88//1 122//1
f 251//84 111//84 252//84
f 356//86 134//86 354//86
f 163//86 354//86 134//86
f 122//1 93//1 132//1
f 145//86 366//86 143//86
f 86//11 90//11 84//11
f 366//86 145//86 364//86
f 148//86 371//86 370//86
f 148//86 370//86 149//86
f 115//11 84//11 92//11
f 20//84 22//84 383//84
f 128//1 122//1 132//1
f 147//84 384//84 97//84
f 385//11 54//11 53//11
f 385//11 53//11 118//11
f 341//84 383//84 312//84
f 22//84 312//84 383//84
f 46//1 128//1 132//1
f 114//87 337//87 338//87
f 114//87 338//87 112//87
f 61//87 305//87 303//87
f 61//87 303//87 62//87
f 256//84 384//84 254//84
f 147//84 254//84 384//84
f 162//1 112//1 161//1
f 132//1 93//1 133//1
f 132//1 133//1 129//1
f 129//1 8//1 132//1
f 175//84 182//84 386//84
f 10//1 132//1 8//1
f 20//88 383//88 21//88
f 263//84 386//84 264//84
f 264//84 386//84 182//84
f 18//1 129//1 135//1
f 77//89 83//89 251//89
f 77//90 312//90 22//90
f 105//84 278//84 387//84
f 105//84 387//84 106//84
f 21//91 305//91 61//91
f 16//1 18//1 135//1
f 131//1 129//1 133//1
f 113//92 302//92 337//92
f 277//84 387//84 278//84
f 133//1 161//1 142//1
f 302//93 113//93 303//93
f 269//94 339//94 340//94
f 269//94 340//94 271//94
f 26//1 135//1 43//1
f 26//1 43//1 25//1
f 346//94 388//94 347//94
f 279//94 388//94 287//94
f 279//94 347//94 388//94
f 21//91 304//91 305//91
f 357//94 286//94 358//94
f 43//1 144//1 28//1
f 29//1 28//1 144//1
f 310//88 304//88 21//88
f 286//94 285//94 358//94
f 144//1 43//1 39//1
f 38//1 33//1 144//1
f 34//1 144//1 33//1
f 77//90 311//90 312//90
f 38//1 144//1 39//1
f 131//1 123//1 129//1
f 135//1 129//1 43//1
f 293//94 363//94 294//94
f 311//89 77//89 251//89
f 39//1 43//1 129//1
f 337//92 114//92 113//92
f 278//95 105//95 108//95
f 278//95 108//95 276//95
f 156//1 39//1 164//1
f 158//1 123//1 125//1
f 113//93 62//93 303//93
f 103//11 99//11 104//11
f 310//96 383//96 341//96
f 310//88 21//88 383//88
f 309//95 193//95 201//95
f 309//95 201//95 307//95
f 112//97 338//97 371//97
f 112//97 371//97 148//97
f 142//98 365//98 364//98
f 142//98 364//98 145//98
f 389//95 220//95 245//95
f 163//90 355//90 354//90
f 351//99 352//99 125//99
f 351//99 125//99 124//99
f 162//1 161//1 168//1
f 390//100 164//100 350//100
f 123//100 350//100 164//100
f 245//95 317//95 389//95
f 350//35 123//35 157//35
f 351//101 124//101 349//101
f 131//101 349//101 124//101
f 68//11 99//11 103//11
f 349//102 131//102 134//102
f 349//102 134//102 356//102
f 316//95 389//95 317//95
f 133//90 355//90 163//90
f 159//1 173//1 76//1
f 76//1 173//1 161//1
f 355//89 133//89 143//89
f 355//89 143//89 366//89
f 365//103 142//103 149//103
f 365//103 149//103 370//103
f 74//1 76//1 69//1
f 320//95 319//95 242//95
f 244//95 242//95 319//95
f 288//65 377//65 336//65
f 63//11 98//11 110//11
f 99//11 98//11 338//11
f 381//104 343//104 379//104
f 288//66 335//66 381//66
f 381//66 335//66 343//66
f 314//105 60//105 67//105
f 314//61 313//61 60//61
f 99//11 110//11 98//11
f 253//95 322//95 249//95
f 324//95 249//95 322//95
f 259//95 258//95 326//95
f 328//95 326//95 258//95
f 332//95 261//95 266//95
f 332//95 266//95 334//95
f 79//11 115//11 98//11
f 340//95 345//95 271//95
f 270//95 271//95 345//95
f 359//106 284//106 289//106
f 359//106 289//106 360//106
f 359//107 358//107 285//107
f 359//107 285//107 284//107
f 79//11 81//11 115//11
f 268//108 339//108 269//108
f 260//109 327//109 328//109
f 260//109 328//109 258//109
f 49//1 298//1 50//1
f 90//11 92//11 84//11
f 243//110 320//110 242//110
f 245//111 306//111 317//111
f 121//11 47//11 92//11
f 118//11 53//11 92//11
f 53//11 89//11 121//11
f 119//11 121//11 89//11
f 92//11 53//11 121//11
f 107//112 274//112 276//112
f 107//112 276//112 108//112
f 104//11 338//11 170//11
f 47//11 338//11 92//11
f 115//11 338//11 98//11
f 92//11 338//11 115//11
f 104//11 99//11 338//11
f 121//11 126//11 47//11
f 48//11 47//11 126//11
f 130//11 48//11 126//11
f 250//113 82//113 291//113
f 291//113 82//113 384//113
f 291//114 384//114 256//114
f 11//11 9//11 47//11
f 265//115 386//115 263//115
f 45//11 47//11 9//11
f 265//116 96//116 386//116
f 275//117 387//117 277//117
f 19//11 136//11 45//11
f 301//118 176//118 275//118
f 275//118 176//118 387//118
f 183//1 50//1 298//1
f 17//11 136//11 19//11
f 274//119 107//119 193//119
f 274//119 193//119 309//119
f 136//11 44//11 45//11
f 45//11 338//11 47//11
f 255//120 254//120 147//120
f 23//11 44//11 24//11
f 250//121 252//121 111//121
f 136//11 24//11 44//11
f 30//11 141//11 27//11
f 44//11 27//11 141//11
f 82//121 250//121 111//121
f 32//11 31//11 141//11
f 31//11 40//11 141//11
f 338//11 45//11 146//11
f 146//11 141//11 40//11
f 350//11 338//11 146//11
f 97//113 384//113 82//113
f 141//11 146//11 44//11
f 96//120 255//120 147//120
f 390//11 350//11 150//11
f 152//11 390//11 150//11
f 146//11 150//11 350//11
f 273//1 283//1 35//1
f 338//11 102//11 170//11
f 265//116 255//116 96//116
f 175//116 386//116 96//116
f 36//1 35//1 283//1
f 176//122 264//122 182//122
f 169//11 170//11 102//11
f 176//122 301//122 264//122
f 170//11 171//11 104//11
f 104//11 171//11 174//11
f 106//118 387//118 176//118
f 160//11 104//11 174//11
f 192//123 308//123 307//123
f 192//123 307//123 201//123
f 103//11 177//11 68//11
f 308//124 192//124 315//124
f 389//124 315//124 192//124
f 389//124 192//124 220//124
f 316//125 315//125 389//125
f 245//111 219//111 306//111
f 66//11 314//11 67//11
f 66//11 100//11 314//11
f 335//1 313//1 342//1
f 319//126 306//126 219//126
f 319//126 219//126 244//126
f 243//110 321//110 320//110
f 324//127 321//127 243//127
f 324//127 243//127 249//127
f 248//128 323//128 322//128
f 248//128 322//128 253//128
f 313//1 329//1 59//1
f 42//11 41//11 272//11
f 326//129 323//129 248//129
f 326//129 248//129 259//129
f 318//1 6//1 5//1
f 327//130 260//130 261//130
f 327//130 261//130 332//130
f 262//131 333//131 334//131
f 262//131 334//131 266//131
f 57//11 56//11 282//11
f 333//132 262//132 270//132
f 333//132 270//132 345//132
f 339//108 268//108 344//108
f 56//11 184//11 282//11
f 71//11 282//11 184//11
f 344//133 268//133 348//133
f 388//133 348//133 268//133
f 388//133 268//133 287//133
f 348//134 388//134 346//134
f 280//135 353//135 347//135
f 280//135 347//135 279//135
f 353//136 280//136 286//136
f 353//136 286//136 357//136
f 360//137 289//137 294//137
f 360//137 294//137 363//137
f 49//1 283//1 298//1
f 293//94 362//94 363//94
f 7//11 101//11 4//11
f 15//11 138//11 12//11
f 297//94 372//94 296//94
f 368//94 296//94 372//94
f 298//1 283//1 369//1
f 374//94 300//94 375//94
f 299//94 375//94 300//94
f 272//11 139//11 138//11
f 375//138 299//138 190//138
f 375//138 190//138 373//138
f 335//1 336//1 190//1
f 297//139 367//139 372//139
f 41//11 139//11 272//11
f 292//140 361//140 362//140
f 292//140 362//140 293//140
f 361//141 292//141 296//141
f 361//141 296//141 368//141
f 295//139 367//139 297//139
f 367//142 295//142 300//142
f 367//142 300//142 374//142
f 335//1 246//1 313//1
f 336//143 377//143 373//143
f 336//143 373//143 190//143
f 342//143 331//143 343//143
f 379//143 343//143 330//143
f 330//143 343//143 331//143
f 288//11 381//11 137//11
f 137//11 314//11 100//11
f 69//144 68//144 75//144
f 331//1 342//1 313//1
f 100//11 4//11 101//11
f 110//144 109//144 63//144
f 64//144 63//144 109//144
f 273//1 329//1 313//1
f 101//11 12//11 138//11
f 95//144 78//144 80//144
f 58//1 313//1 59//1
f 139//11 102//11 138//11
f 81//144 78//144 94//144
f 5//1 329//1 318//1
f 95//144 94//144 78//144
f 116//144 91//144 85//144
f 14//1 13//1 273//1
f 282//11 71//11 139//11
f 86//144 85//144 90//144
f 90//144 85//144 91//144
f 13//1 318//1 273//1
f 71//11 73//11 139//11
f 189//11 73//11 72//11
f 325//144 385//144 118//144
f 325//144 118//144 117//144
f 177//144 75//144 68//144
f 69//144 75//144 74//144
f 38//86 40//86 31//86
f 38//86 31//86 33//86
f 156//86 164//86 151//86
f 152//86 151//86 390//86
f 390//86 151//86 164//86
f 125//86 352//86 157//86
f 125//86 157//86 158//86
f 102//145 162//145 168//145
f 102//145 168//145 169//145
f 173//145 159//145 172//145
f 159//145 160//145 172//145
f 174//145 172//145 160//145
f 298//1 369//1 188//1
f 385//3 325//3 55//3
f 385//3 55//3 54//3
f 89//3 88//3 120//3
f 89//3 120//3 119//3
f 128//3 46//3 127//3
f 46//3 48//3 127//3
f 130//3 127//3 48//3
f 191//1 188//1 369//1
f 273//1 247//1 283//1
f 318//1 329//1 273//1
f 190//1 246//1 335//1
f 246//1 247//1 313//1
f 369//1 283//1 247//1
f 194//1 369//1 247//1
f 194//1 247//1 195//1
f 246//1 198//1 247//1
f 197//1 247//1 198//1
f 273//1 313//1 247//1
f 246//1 376//1 199//1
f 200//1 199//1 376//1
f 376//1 241//1 206//1
f 246//1 190//1 241//1
f 205//1 206//1 241//1
f 212//1 241//1 378//1
f 213//1 212//1 378//1
f 378//1 241//1 380//1
f 380//1 207//1 378//1
f 222//1 378//1 210//1
f 210//1 378//1 207//1
f 376//1 246//1 241//1
f 380//1 241//1 190//1
f 190//1 96//1 380//1
f 218//1 380//1 215//1
f 215//1 380//1 237//1
f 382//1 235//1 237//1
f 227//1 237//1 224//1
f 235//1 224//1 237//1
f 237//1 380//1 96//1
f 382//1 237//1 96//1
f 231//1 382//1 165//1
f 233//1 231//1 165//1
f 165//1 382//1 96//1
f 96//1 82//1 165//1
f 165//1 3//1 2//1
