# Blender v2.82 (sub 7) OBJ File: ''
# www.blender.org
mtllib pickles.mtl
o Pickles
v -3.846000 -0.001000 -1.597000
v -2.979000 -0.001000 -5.957000
v -2.979000 -0.001000 -0.299000
v -1.681000 -0.001000 0.568000
v -4.151000 -0.001000 -3.128000
v -3.846000 -0.001000 -4.659000
v -0.150000 -0.001000 0.872000
v -2.221000 1.001000 1.843000
v -2.221000 0.000000 1.843000
v -2.364574 0.000000 1.747099
v -2.364574 1.001000 1.747099
v -2.979000 1.000000 -5.957000
v -3.846000 1.000000 -4.659000
v -2.835426 1.000000 -6.052901
v -4.151000 1.000000 -3.128000
v -0.064032 1.000000 -7.111874
v -1.354000 1.001000 3.141000
v -1.354000 0.000000 3.141000
v -1.050000 1.001000 4.672000
v -1.050000 0.000000 4.672000
v -2.835426 -0.001000 -6.052901
v 1.253000 1.001000 2.441000
v 0.949000 1.001000 3.972000
v 2.121000 1.001000 1.143000
v 3.419000 1.001000 0.276000
v 1.253000 1.001000 5.503000
v 2.121000 1.001000 6.801000
v 3.419000 1.001000 7.668000
v 4.949000 1.001000 7.972000
v 4.949000 1.001000 -0.029000
v 6.480000 1.001000 7.668000
v 6.480000 1.001000 0.276000
v 7.778000 1.001000 6.801000
v 8.645000 1.001000 5.503000
v 8.950000 1.001000 3.972000
v 8.645000 1.001000 2.441000
v 7.778000 1.001000 1.143000
v -1.354000 1.001000 6.203000
v -1.354000 0.000000 6.203000
v 4.949000 0.000000 7.972000
v 6.480000 0.000000 7.668000
v -2.221000 1.001000 7.501000
v -2.221000 0.000000 7.501000
v -3.846000 1.000000 -1.597000
v 7.778000 0.000000 6.801000
v -3.519000 1.001000 8.368000
v -3.519000 0.000000 8.368000
v -2.979000 1.000000 -0.299000
v 8.645000 0.000000 5.503000
v -1.681000 1.000000 0.568000
v 8.950000 0.000000 3.972000
v -5.050000 1.001000 8.672000
v -5.050000 0.000000 8.672000
v 8.645000 0.000000 2.441000
v 7.778000 0.000000 1.143000
v -8.950032 1.001000 4.165175
v -8.950032 0.000000 4.165175
v -7.113936 0.000000 8.012025
v -7.113936 1.001000 8.012025
v 6.480000 0.000000 0.276000
v -0.150000 1.000000 0.872000
v 4.949000 0.000000 -0.029000
v -5.135968 1.001000 0.688126
v -5.135968 0.000000 0.688126
v -0.064032 -0.001000 -7.111874
v -6.581000 1.001000 0.976000
v -8.746000 1.001000 3.141000
v 1.913937 1.000000 0.212025
v 1.381000 1.000000 0.568000
v -7.879000 1.001000 1.843000
v 3.546000 -0.001000 -4.659000
v 1.913937 -0.001000 0.212025
v 2.679000 -0.001000 -5.957000
v 3.749560 -0.001000 -3.633835
v 1.381000 -0.001000 -6.824000
v 1.381000 -0.001000 0.568000
v -7.879000 0.000000 1.843000
v -6.581000 0.000000 0.976000
v -8.746000 0.000000 3.141000
v -6.581000 1.001000 8.368000
v -6.581000 0.000000 8.368000
v 3.749560 1.000000 -3.633835
v 2.679000 1.000000 -5.957000
v 3.419000 0.000000 0.276000
v 1.381000 1.000000 -6.824000
v 2.121000 0.000000 1.143000
v 1.253000 0.000000 2.441000
v 0.949000 0.000000 3.972000
v 1.253000 0.000000 5.503000
v 2.121000 0.000000 6.801000
v 3.419000 0.000000 7.668000
v 3.546000 1.000000 -4.659000
vn 0.0000 -1.0000 0.0000
vn 0.5554 0.0000 -0.8316
vn 0.0000 1.0000 0.0000
vn 0.8316 0.0000 -0.5554
vn 0.9809 0.0000 -0.1948
vn -0.5554 0.0000 -0.8316
vn 0.9809 0.0000 0.1948
vn -0.9807 0.0000 -0.1954
vn -0.8316 0.0000 -0.5554
vn 0.1948 0.0000 0.9809
vn 0.8316 0.0000 0.5554
vn -0.9807 0.0000 0.1954
vn 0.5554 0.0000 0.8316
vn -0.8316 0.0000 0.5554
vn -0.5554 0.0000 0.8316
vn 0.9807 0.0000 0.1954
vn 0.9807 0.0000 -0.1954
vn -0.9025 0.0000 0.4307
vn -0.1948 0.0000 0.9809
vn 0.1954 0.0000 -0.9807
vn 0.3569 0.0000 -0.9341
vn -0.3569 0.0000 -0.9341
vn -0.1955 0.0000 -0.9807
vn -0.8313 0.0000 -0.5559
vn 0.9025 0.0000 0.4307
vn -0.9809 0.0000 -0.1948
vn -0.9809 0.0000 0.1948
vn -0.1954 0.0000 -0.9807
vn -0.8313 0.0000 0.5559
vn -0.1949 0.0000 0.9808
usemtl None
s off
f 1//1 2//1 3//1
f 4//1 3//1 2//1
f 5//1 6//1 1//1
f 2//1 1//1 6//1
f 7//1 4//1 2//1
f 8//2 9//2 10//2
f 8//2 10//2 11//2
f 12//3 13//3 14//3
f 15//3 16//3 13//3
f 9//4 8//4 17//4
f 9//4 17//4 18//4
f 17//5 19//5 20//5
f 17//5 20//5 18//5
f 14//6 21//6 2//6
f 14//6 2//6 12//6
f 22//3 23//3 24//3
f 25//3 24//3 23//3
f 23//3 26//3 25//3
f 26//3 27//3 25//3
f 27//3 28//3 25//3
f 28//3 29//3 25//3
f 30//3 25//3 29//3
f 31//3 32//3 29//3
f 33//3 32//3 31//3
f 34//3 32//3 33//3
f 35//3 32//3 34//3
f 36//3 32//3 35//3
f 37//3 32//3 36//3
f 30//3 29//3 32//3
f 38//7 39//7 20//7
f 38//7 20//7 19//7
f 13//8 5//8 15//8
f 2//9 13//9 12//9
f 29//10 40//10 41//10
f 29//10 41//10 31//10
f 38//11 42//11 43//11
f 38//11 43//11 39//11
f 15//12 5//12 1//12
f 15//12 1//12 44//12
f 6//9 13//9 2//9
f 41//13 45//13 33//13
f 41//13 33//13 31//13
f 42//13 46//13 47//13
f 42//13 47//13 43//13
f 6//8 5//8 13//8
f 1//14 48//14 44//14
f 45//11 49//11 34//11
f 45//11 34//11 33//11
f 48//15 4//15 50//15
f 49//16 51//16 35//16
f 49//16 35//16 34//16
f 46//10 52//10 53//10
f 46//10 53//10 47//10
f 51//17 54//17 36//17
f 51//17 36//17 35//17
f 48//14 1//14 3//14
f 54//4 55//4 37//4
f 54//4 37//4 36//4
f 48//15 3//15 4//15
f 56//18 57//18 58//18
f 56//18 58//18 59//18
f 60//2 32//2 55//2
f 55//2 32//2 37//2
f 50//19 4//19 61//19
f 61//19 4//19 7//19
f 60//20 62//20 30//20
f 60//20 30//20 32//20
f 63//21 11//21 64//21
f 10//21 64//21 11//21
f 14//22 16//22 21//22
f 65//22 21//22 16//22
f 56//3 8//3 11//3
f 56//3 11//3 63//3
f 63//3 66//3 56//3
f 56//3 66//3 67//3
f 68//3 48//3 69//3
f 70//3 67//3 66//3
f 71//1 72//1 73//1
f 74//1 72//1 71//1
f 75//1 73//1 72//1
f 21//1 65//1 72//1
f 76//1 7//1 21//1
f 2//1 21//1 7//1
f 72//1 76//1 21//1
f 75//1 72//1 65//1
f 69//10 7//10 76//10
f 76//13 68//13 69//13
f 77//1 78//1 79//1
f 57//1 78//1 64//1
f 38//3 56//3 42//3
f 46//3 42//3 56//3
f 19//3 56//3 38//3
f 17//3 56//3 19//3
f 8//3 56//3 17//3
f 52//3 46//3 56//3
f 59//3 80//3 56//3
f 52//3 56//3 80//3
f 76//13 72//13 68//13
f 9//1 57//1 10//1
f 64//1 10//1 57//1
f 80//19 81//19 53//19
f 80//19 53//19 52//19
f 82//5 74//5 71//5
f 57//1 79//1 78//1
f 59//15 58//15 81//15
f 59//15 81//15 80//15
f 83//4 71//4 73//4
f 53//1 81//1 57//1
f 58//1 57//1 81//1
f 30//23 62//23 25//23
f 84//23 25//23 62//23
f 67//8 79//8 57//8
f 67//8 57//8 56//8
f 73//2 75//2 85//2
f 73//2 85//2 83//2
f 24//6 25//6 86//6
f 84//6 86//6 25//6
f 70//9 79//9 67//9
f 65//20 16//20 75//20
f 86//24 87//24 22//24
f 86//24 22//24 24//24
f 57//1 9//1 18//1
f 57//1 18//1 20//1
f 57//1 20//1 39//1
f 57//1 39//1 43//1
f 57//1 43//1 47//1
f 57//1 47//1 53//1
f 70//9 77//9 79//9
f 82//25 68//25 74//25
f 72//25 74//25 68//25
f 87//26 88//26 23//26
f 87//26 23//26 22//26
f 14//3 13//3 16//3
f 15//3 44//3 16//3
f 66//6 78//6 77//6
f 66//6 77//6 70//6
f 23//27 88//27 89//27
f 23//27 89//27 26//27
f 85//3 16//3 48//3
f 78//28 63//28 64//28
f 89//29 90//29 27//29
f 89//29 27//29 26//29
f 63//28 78//28 66//28
f 91//15 28//15 27//15
f 91//15 27//15 90//15
f 48//3 16//3 44//3
f 61//3 69//3 48//3
f 51//1 49//1 54//1
f 55//1 54//1 49//1
f 55//1 49//1 45//1
f 55//1 45//1 41//1
f 55//1 41//1 40//1
f 55//1 40//1 91//1
f 55//1 91//1 90//1
f 55//1 90//1 89//1
f 55//1 89//1 88//1
f 55//1 88//1 87//1
f 55//1 87//1 86//1
f 40//30 29//30 28//30
f 40//30 28//30 91//30
f 48//3 50//3 61//3
f 55//1 86//1 60//1
f 86//1 84//1 60//1
f 7//10 69//10 61//10
f 62//1 60//1 84//1
f 85//20 75//20 16//20
f 83//3 85//3 48//3
f 68//3 82//3 48//3
f 92//3 48//3 82//3
f 83//3 48//3 92//3
f 82//5 71//5 92//5
f 71//4 83//4 92//4
