# Blender v2.82 (sub 7) OBJ File: ''
# www.blender.org
mtllib tomato.mtl
o Tomato
v -2.003000 0.000000 -6.372000
v -1.735000 0.000000 -6.621000
v -2.001928 0.000000 -6.372000
v -3.611000 1.001000 -5.458000
v -5.000000 1.001000 -6.703000
v -4.305000 1.001000 -5.042000
v -5.115000 1.001000 -4.334000
v -6.364000 1.001000 -5.584000
v -3.218000 1.001000 -5.472000
v 4.901000 1.001000 0.216000
v 4.901000 0.000000 0.216000
v 5.086000 0.000000 0.031000
v 5.086000 1.001000 0.031000
v 4.650000 1.001000 0.283000
v 4.650000 0.000000 0.283000
v -2.002700 0.000000 -6.371280
v -2.003000 0.000000 -6.371000
v -3.218000 0.000000 -5.472000
v -3.444000 0.000000 -7.535000
v 1.094000 1.001000 -0.313000
v 3.674000 1.001000 -1.375000
v 1.094000 1.000000 -0.313000
v 2.347000 1.001000 0.781000
v 4.750000 1.001000 1.782000
v 2.347000 1.000000 0.781000
v 3.674000 0.000000 -1.375000
v 4.750000 0.000000 1.782000
v 1.095059 1.001000 -0.315572
v 1.916618 1.000000 -2.311063
v -1.002000 0.000000 -6.805000
v -1.756000 0.000000 -8.047000
v -2.980402 1.001000 -4.895008
v -2.981000 1.001000 -4.895000
v -3.147000 1.001000 -4.639000
v -3.128000 1.001000 -4.199000
v -2.930000 1.001000 -3.694000
v -2.606000 1.001000 -3.259000
v -2.243000 1.001000 -3.010000
v -2.204388 1.001000 -3.010506
v 0.000000 0.000000 -8.220000
v 1.916618 1.001000 -2.311063
v 6.614921 0.000000 2.559633
v 6.555000 1.001000 2.281000
v 6.614921 1.001000 2.559633
v -3.217000 1.001000 -1.680000
v -3.091156 1.001000 -1.135631
v -3.077000 1.001000 -1.439000
v -3.458000 1.001000 -1.820000
v -3.077000 1.001000 -1.160000
v -3.737000 1.001000 -1.820000
v -3.978000 1.001000 -1.680000
v -4.061942 1.001000 -1.535499
v 1.756000 0.000000 -8.047000
v 1.002000 0.000000 -6.805000
v 0.000000 0.000000 -6.872000
v -2.156000 1.001000 -2.893000
v -0.775168 1.001000 -3.425939
v -1.152655 1.001000 -4.331679
v 3.218000 1.000000 -5.472000
v 3.216941 1.001000 -5.469429
v 2.316168 1.000000 -3.281534
v 2.003000 0.000000 -6.372000
v 2.001928 0.000000 -6.372000
v 1.735000 0.000000 -6.621000
v 4.858610 1.001000 1.827288
v 4.858610 0.000000 1.827288
v 7.152000 1.001000 2.783583
v 7.152000 0.000000 2.783583
v 2.002700 0.000000 -6.371280
v 2.003000 0.000000 -6.371000
v 3.444000 0.000000 -7.535000
v 3.218000 0.000000 -5.472000
v 2.316168 1.001000 -3.281534
v 6.253000 0.000000 3.999000
v 6.239000 0.000000 4.392000
v 6.253000 1.000000 3.999000
v 6.239000 1.001000 4.392000
v 6.253000 1.001000 3.999000
v -1.094000 1.001000 -0.313000
v -0.000999 1.001000 -1.568396
v -2.002002 1.001000 -6.369604
v -2.002584 1.001000 -6.371000
v -2.003000 1.001000 -6.371000
v 1.916489 0.000000 -2.311137
v 1.941000 0.000000 -2.297000
v 1.916489 0.223205 -2.311137
v 5.823000 0.000000 5.086000
v 5.823000 1.001000 5.086000
v 2.461000 1.001000 -3.198000
v 2.316027 0.148136 -3.281615
v 5.115000 0.000000 5.895000
v 5.115000 1.001000 5.895000
v 1.094000 0.000000 -0.313000
v 6.364000 0.000000 -5.584000
v 4.305000 0.000000 -5.042000
v 5.000000 0.000000 -6.703000
v 4.305000 0.000000 6.603000
v 4.305000 1.001000 6.603000
v -4.750000 1.001000 -0.221000
v -6.250429 1.001000 -2.436940
v -4.858552 1.001000 -0.266219
v 3.611000 0.000000 7.020000
v 3.611000 1.001000 7.020000
v 3.218000 0.000000 7.034000
v 3.218000 1.001000 7.034000
v 1.500000 0.000000 -5.775000
v 1.779217 0.000000 -5.834788
v 1.222000 0.000000 -5.472000
v 1.779000 0.000000 -5.835000
v 1.019000 0.000000 -5.008000
v 1.020000 0.000000 -4.103000
v 0.945000 0.000000 -4.507000
v -6.252292 1.001000 -2.437708
v -6.253000 1.001000 -2.437000
v -6.614974 1.001000 -0.997878
v -2.347000 1.001000 0.781000
v -1.094000 1.001000 1.875000
v -1.096572 1.001000 -0.314059
v 2.606000 1.001000 4.820000
v 2.606000 0.000000 4.820000
v 2.243000 0.000000 4.571000
v 2.243000 1.001000 4.571000
v 2.930000 1.001000 5.255000
v 2.930000 0.000000 5.255000
v -0.565000 0.000000 -4.121000
v -0.498000 0.000000 -3.869000
v -0.749000 0.000000 -4.305000
v -1.001000 0.000000 -4.372000
v -0.565000 0.000000 -3.617000
v -0.775516 0.000000 -3.425845
v -0.749000 0.000000 -3.433000
v 2.003000 1.001000 7.933000
v 2.001932 1.001000 7.933000
v 1.735000 1.001000 8.183000
v 2.003000 1.001000 7.932000
v 2.002700 1.001000 7.932281
v 3.444000 1.001000 9.096000
v 2.002584 0.000000 -6.371000
v 3.147000 0.000000 6.200000
v 2.981000 1.001000 6.457000
v 2.981000 0.000000 6.457000
v 3.218000 1.001000 -5.472000
v 1.002000 1.001000 8.367000
v 1.756000 1.001000 9.608000
v 6.364000 1.001000 7.145000
v 5.000000 1.001000 8.264000
v 0.000000 1.001000 8.434000
v -1.002000 1.001000 8.367000
v 0.000000 1.001000 9.781000
v 3.077000 1.001000 2.722000
v 3.077000 0.000000 2.722000
v 3.077000 0.000000 3.001000
v 3.077000 1.001000 3.001000
v 2.316027 0.000000 -3.281615
v 7.402000 0.000000 -0.954000
v 7.153000 0.000000 -1.220928
v 7.153000 0.000000 -1.222000
v 8.315000 0.000000 -2.664000
v 3.128000 1.001000 5.761000
v 3.128000 0.000000 5.761000
v 0.000000 1.001000 -1.566000
v -0.000000 1.000000 -1.566000
v -2.002584 1.000417 -6.371000
v -2.002583 1.000000 -6.371000
v 7.152280 0.000000 -1.221700
v 7.152000 0.000000 -1.222000
v 6.253000 0.000000 -2.437000
v 3.147000 1.001000 6.200000
v 0.774977 1.001000 4.987093
v 0.749000 1.001000 4.994000
v 0.565000 1.001000 5.179000
v 0.498000 1.001000 5.430000
v 0.565000 1.001000 5.682000
v 0.749000 1.001000 5.866000
v 1.001000 1.001000 5.934000
v 1.152645 1.001000 5.893080
v -1.152654 1.000000 -4.331679
v 3.737000 0.000000 3.381000
v 3.737000 1.001000 3.381000
v 3.458000 1.001000 3.381000
v 3.458000 0.000000 3.381000
v -0.775168 1.000000 -3.425939
v 8.828000 0.000000 -0.975000
v 3.217000 0.000000 3.242000
v 3.217000 1.001000 3.242000
v 2.002002 1.001000 7.930605
v 2.980494 1.001000 6.457006
v 2.204421 1.001000 4.571632
v 3.091337 1.000000 2.697319
v 3.091412 0.223487 2.697191
v 3.091337 1.001000 2.697319
v -0.775516 0.223710 -3.425845
v 8.828000 1.001000 2.537000
v 9.000000 1.001000 0.781000
v 7.586000 1.001000 1.782000
v 4.062212 1.001000 3.097035
v 3.978000 1.001000 3.242000
v 4.062212 1.000000 3.097036
v 3.978000 0.000000 3.242000
v 4.062294 0.148011 3.096895
v -1.001000 1.001000 -4.372000
v -1.153036 0.148338 -4.331578
v -1.153036 0.000000 -4.331578
v 7.402000 1.001000 2.515000
v 4.214000 0.000000 0.031000
v 4.207063 0.000000 0.005393
v 5.153000 0.000000 -0.220000
v 0.000000 0.000000 -1.566000
v 7.153000 1.001000 2.782924
v 1.094000 1.001000 1.875000
v 2.156000 1.001000 4.454000
v 1.094000 1.000000 1.875000
v 7.153000 1.001000 2.784000
v -2.002584 0.999583 -6.371000
v 2.156000 0.000000 4.454000
v 2.204421 0.000000 4.571632
v 7.152279 1.001000 2.783700
v 7.152000 1.001000 2.784000
v 7.484000 1.001000 5.781000
v 8.315000 1.001000 4.225000
v 2.980494 0.000000 6.457006
v 3.611000 0.000000 -5.458000
v 5.789000 1.001000 1.800000
v 6.250429 1.001000 3.997941
v 6.253000 1.001000 2.003000
v 5.288000 1.001000 1.726000
v 4.884000 1.001000 1.801000
v 1.046969 0.000000 -4.076952
v 4.398000 1.001000 0.216000
v 4.214000 1.001000 0.031000
v 5.153000 1.001000 -0.220000
v -2.002584 0.000000 -6.371000
v 5.115000 0.000000 -4.334000
v 1.096572 1.001000 1.876059
v 5.823000 0.000000 -3.524000
v -7.402000 0.000000 -0.954000
v -7.402000 1.001000 -0.954000
v -7.586000 1.001000 -0.221000
v -7.586000 0.000000 -0.221000
v -7.153000 0.000000 -1.220928
v -7.153000 1.001000 -1.220928
v -7.152000 0.000000 -1.222000
v -7.152000 1.001000 -1.222000
v -7.152280 1.001000 -1.221700
v -7.152280 0.000000 -1.221700
v 6.239000 0.000000 -2.830000
v 6.252963 0.000000 -2.438037
v 6.253000 0.000000 -2.438000
v 7.484000 0.000000 -4.220000
v -7.153000 0.000000 -1.222000
v -7.153000 1.001000 -1.222000
v -7.152000 0.000000 -1.221583
v -7.152000 1.001000 -1.221583
v 6.252965 0.000000 -2.437985
v -5.789000 1.001000 -0.238000
v -5.789000 0.000000 -0.238000
v -5.288000 0.000000 -0.164000
v -5.288000 1.001000 -0.164000
v -6.253000 1.001000 -0.441000
v -6.253000 0.000000 -0.441000
v 3.091412 0.000000 2.697191
v 6.252292 0.000000 -2.437708
v 5.676011 0.000000 -2.200179
v -6.555000 1.001000 -0.719000
v -6.555000 0.000000 -0.719000
v 4.062294 0.000000 3.096895
v -6.614974 0.000000 -0.997878
v 1.094000 0.000000 1.875000
v -4.858552 0.000000 -0.266219
v -4.884000 1.001000 -0.240000
v -4.884000 0.000000 -0.240000
v 4.039000 0.000000 -1.826000
v 4.475000 0.000000 -2.149000
v 4.980000 0.000000 -2.347000
v 5.420000 0.000000 -2.366000
v 3.790000 0.000000 -1.462000
v 3.790638 0.000000 -1.423075
v -4.750000 0.000000 -0.221000
v 5.676000 0.000000 -2.201000
v 2.601000 0.000000 -2.677000
v 2.461000 0.000000 -2.436000
v 2.601000 0.000000 -2.956000
v 2.461000 0.000000 -3.198000
v 2.220000 0.000000 -2.297000
v 5.112577 0.000000 -0.372036
v 2.002583 1.001000 7.932000
v 0.000999 1.001000 3.130396
v 7.152000 0.000000 -1.221583
v -6.252963 1.001000 -2.438037
v -6.252963 1.000024 -2.438037
v -6.239000 1.001000 -2.830000
v -6.252963 1.000000 -2.438037
v -6.252963 0.999976 -2.438037
v -6.239000 0.000000 -2.830000
v -6.252963 0.000000 -2.438037
v 2.349396 1.001000 0.780001
v -6.252965 1.000014 -2.437985
v -6.252965 1.000000 -2.437985
v -6.252965 0.999986 -2.437985
v -6.252965 1.001000 -2.437985
v -6.253000 0.000000 -2.437000
v -6.252965 0.000000 -2.437985
v -6.253000 1.001000 -2.438000
v -6.253000 1.000000 -2.438000
v 4.207157 1.001000 0.005741
v 4.207157 1.000000 0.005741
v 4.207063 0.223619 0.005393
v -1.756000 1.001000 9.608000
v 2.347000 0.000000 0.781000
v 1.002000 0.000000 -3.969000
v -1.735000 1.001000 8.183000
v -2.003000 1.001000 7.933000
v -2.001932 1.001000 7.933000
v -2.002700 1.001000 7.932281
v -2.003000 1.001000 7.932000
v -3.218000 1.001000 7.034000
v -3.444000 1.001000 9.096000
v -6.253000 0.000000 -2.438000
v 0.000000 0.000000 9.781000
v -1.779151 1.001000 7.395853
v -1.779000 1.001000 7.396000
v -1.500000 1.001000 7.336000
v -1.222000 1.001000 7.034000
v -1.019000 1.001000 6.570000
v -3.216941 1.001000 7.031428
v -0.945000 1.001000 6.069000
v -1.020000 1.001000 5.665000
v -1.046982 1.001000 5.638939
v -1.756000 0.000000 9.608000
v -1.002000 1.001000 5.531000
v -2.315836 1.001000 4.842725
v -2.002583 1.001000 7.932000
v -5.823000 0.000000 -3.524000
v -5.823000 1.001000 -3.524000
v -7.153000 1.001000 2.784000
v -7.153000 1.001000 2.782924
v -7.402000 1.001000 2.515000
v -3.444000 0.000000 9.096000
v -5.115000 0.000000 -4.334000
v -8.828000 0.000000 -0.975000
v -5.000000 1.001000 8.264000
v -5.000000 0.000000 8.264000
v -7.152000 1.001000 2.784000
v -7.152279 1.001000 2.783700
v -4.305000 0.000000 -5.042000
v -8.315000 0.000000 -2.664000
v -7.586000 1.001000 1.782000
v -8.828000 1.001000 2.537000
v -8.315000 1.001000 4.225000
v -6.364000 1.001000 7.145000
v -6.364000 0.000000 7.145000
v -3.611000 0.000000 -5.458000
v -7.653000 1.001000 0.781000
v -9.000000 1.001000 0.781000
v -7.484000 0.000000 -4.220000
v -7.484000 1.001000 5.781000
v -7.484000 0.000000 5.781000
v -6.239000 1.001000 4.392000
v -6.252292 0.999724 -2.437708
v -6.252291 1.000000 -2.437708
v -8.315000 0.000000 4.225000
v -6.252292 0.000000 -2.437708
v -6.252292 1.000275 -2.437708
v -2.204388 0.000000 -3.010506
v -2.243000 0.000000 -3.010000
v -4.650000 1.001000 1.278000
v -4.901000 1.001000 1.346000
v -4.398000 1.001000 1.346000
v -4.214000 1.001000 1.530000
v -5.086000 1.001000 1.530000
v -5.153000 1.001000 1.782000
v -8.828000 0.000000 2.537000
v -9.000000 0.000000 0.781000
v -2.606000 0.000000 -3.259000
v -4.206939 1.001000 1.556168
v -5.112679 1.001000 1.933654
v -2.930000 0.000000 -3.694000
v -8.828000 1.001000 -0.975000
v 0.000000 0.000000 8.434000
v -1.002000 0.000000 8.367000
v -3.128000 0.000000 -4.199000
v -1.735000 0.000000 8.183000
v -2.001932 0.000000 7.933000
v -3.147000 0.000000 -4.639000
v -2.002700 0.000000 7.932281
v -2.003000 0.000000 7.932000
v -4.305000 1.001000 6.603000
v -3.611000 1.001000 7.020000
v -2.003000 0.000000 7.933000
v -2.981000 0.000000 -4.895000
v -5.115000 1.001000 5.895000
v -6.364000 0.000000 -5.584000
v -5.823000 1.001000 5.086000
v -2.002583 0.000000 7.932000
v -2.980402 0.000000 -4.895008
v -1.046982 0.000000 5.638939
v -1.020000 0.000000 5.665000
v -3.217000 0.000000 -1.680000
v -5.000000 0.000000 -6.703000
v -0.945000 0.000000 6.069000
v -6.253000 1.001000 3.999000
v -3.077000 0.000000 -1.439000
v -1.019000 0.000000 6.570000
v -1.222000 0.000000 7.034000
v -3.077000 0.000000 -1.160000
v -5.676008 1.001000 3.761402
v -7.150604 1.001000 2.783001
v -1.500000 0.000000 7.336000
v -3.091156 1.000000 -1.135632
v -3.091412 0.223487 -1.135191
v -1.779000 0.000000 7.396000
v -5.676000 1.001000 3.762000
v -5.420000 1.001000 3.928000
v -4.980000 1.001000 3.909000
v -4.475000 1.001000 3.711000
v -4.039000 1.001000 3.387000
v -3.790000 1.001000 3.024000
v -3.790639 1.001000 2.985030
v -1.779151 0.000000 7.395853
v -4.061942 1.000000 -1.535500
v -3.978000 0.000000 -1.680000
v -4.062223 0.147984 -1.535016
v -3.737000 0.000000 -1.820000
v -1.002000 0.000000 5.531000
v -2.220000 1.001000 3.858000
v -2.461000 1.001000 3.998000
v -1.941000 1.001000 3.858000
v -2.601000 1.001000 4.239000
v -2.601000 1.001000 4.518000
v -2.461000 1.001000 4.759000
v -3.458000 0.000000 -1.820000
v -3.091412 0.000000 -1.135191
v -3.674000 1.001000 2.937000
v -0.000000 1.001000 3.128000
v -0.000000 1.000000 3.128000
v -2.156000 0.000000 -2.893000
v -2.349396 1.001000 0.781998
v -7.152000 1.001000 2.783583
v -7.402000 0.000000 2.515000
v -7.153000 0.000000 2.782924
v -1.094000 0.000000 -0.313000
v -1.916319 1.001000 3.872337
v -7.152279 1.000000 2.783700
v -7.152279 0.999699 2.783700
v -7.152279 0.000000 2.783700
v -7.152000 0.000000 2.784000
v -4.062223 0.000000 -1.535016
v -7.152279 1.000301 2.783700
v -7.153000 1.000000 2.784000
v -7.153000 0.000000 2.784000
v -1.094000 1.000000 -0.313000
v -1.095059 1.001000 1.877571
v -7.586000 0.000000 1.782000
v -7.653000 0.000000 0.781000
v -7.152000 0.999583 2.783583
v -7.152000 0.000000 2.783583
v -7.152000 1.000000 2.783583
v -7.152000 1.000417 2.783583
v -4.650000 0.000000 1.278000
v -4.398000 0.000000 1.346000
v -4.214000 0.000000 1.530000
v -4.206939 1.000000 1.556168
v -4.207033 0.223632 1.555820
v 2.001932 0.000000 7.933000
v 2.003000 0.000000 7.933000
v 1.735000 0.000000 8.183000
v -5.153000 0.000000 1.782000
v -5.112781 0.148423 1.933272
v -5.112781 0.000000 1.933272
v -5.086000 0.000000 1.530000
v -4.901000 0.000000 1.346000
v 0.000000 1.001000 -8.220000
v 1.756000 1.001000 -8.047000
v 2.002700 0.000000 7.932281
v 2.003000 0.000000 7.932000
v 5.000000 0.000000 8.264000
v 3.444000 0.000000 9.096000
v -2.347000 1.000000 0.781000
v -2.347000 0.000000 0.781000
v 1.756000 0.000000 9.608000
v 1.002000 0.000000 8.367000
v 3.444000 1.001000 -7.535000
v 0.498000 0.000000 5.430000
v 0.775180 0.000000 4.987040
v 0.565000 0.000000 5.682000
v 0.749000 0.000000 5.866000
v 0.565000 0.000000 5.179000
v 0.749000 0.000000 4.994000
v 5.000000 1.001000 -6.703000
v -5.112679 1.000000 1.933654
v 1.152867 0.000000 5.893020
v 1.001000 0.000000 5.934000
v 6.364000 1.001000 -5.584000
v 9.000000 0.000000 0.781000
v 7.586000 0.000000 -0.221000
v 7.653000 0.000000 0.781000
v 7.586000 0.000000 1.782000
v 8.828000 0.000000 2.537000
v 8.315000 0.000000 4.225000
v 7.153000 0.000000 2.784000
v 7.402000 0.000000 2.515000
v -4.207033 0.000000 1.555820
v 7.153000 0.000000 2.782924
v 7.152279 0.000000 2.783700
v 7.152000 0.000000 2.784000
v 7.484000 0.000000 5.781000
v 6.364000 0.000000 7.145000
v 7.484000 1.001000 -4.220000
v 4.884000 0.000000 1.801000
v 5.288000 0.000000 1.726000
v 5.789000 0.000000 1.800000
v 6.253000 0.000000 2.003000
v 6.555000 0.000000 2.281000
v 8.315000 1.001000 -2.664000
v 4.398000 0.000000 0.216000
v 8.828000 1.001000 -0.975000
v -3.218000 0.000000 7.034000
v -3.611000 0.000000 7.020000
v -3.218000 1.000000 7.034000
v -4.305000 0.000000 6.603000
v -5.115000 0.000000 5.895000
v -5.823000 0.000000 5.086000
v -6.239000 0.000000 4.392000
v -8.315000 1.001000 -2.664000
v -6.253000 0.000000 3.999000
v -3.790639 0.000000 2.985030
v -3.790000 0.000000 3.024000
v -7.484000 1.001000 -4.220000
v -4.039000 0.000000 3.387000
v -4.475000 0.000000 3.711000
v -4.980000 0.000000 3.909000
v -5.420000 0.000000 3.928000
v -5.676000 0.000000 3.762000
v -0.000000 0.000000 3.128000
v 2.002583 0.000000 7.932000
v -5.676008 0.000000 3.761402
v -2.601000 0.000000 4.239000
v -2.601000 0.000000 4.518000
v -2.220000 0.000000 3.858000
v -2.461000 0.000000 3.998000
v -1.941000 0.000000 3.858000
v 2.002700 1.000300 7.932281
v 2.002700 1.000000 7.932281
v -1.916319 1.000000 3.872337
v -1.916448 0.223244 3.872263
v 2.002700 0.999700 7.932281
v -2.461000 0.000000 4.759000
v -2.315977 0.148089 4.842644
v -2.315977 0.000000 4.842644
v 2.003000 1.000000 7.933000
v -3.444000 1.001000 -7.535000
v -3.674000 0.000000 2.937000
v -1.756000 1.001000 -8.047000
v 2.002583 0.999582 7.932000
v 2.002583 1.000000 7.932000
v -1.735000 1.001000 -6.621000
v -2.001928 1.001000 -6.372000
v 2.002583 1.000418 7.932000
v -2.002700 1.000301 -6.371280
v -2.002700 1.000000 -6.371280
v -2.002700 0.999699 -6.371280
v -2.002700 1.001000 -6.371280
v 0.775180 0.224046 4.987040
v 0.774977 1.000000 4.987093
v -2.003000 1.001000 -6.372000
v -2.003000 1.000000 -6.372000
v 1.152644 1.000000 5.893080
v 1.152867 0.148168 5.893020
v -2.315835 1.000000 4.842726
v -1.094000 1.000000 1.875000
v -1.002000 1.001000 -6.805000
v 0.000000 1.001000 -6.872000
v -1.916448 0.000000 3.872263
v -1.094000 0.000000 1.875000
v 1.002000 1.001000 -6.805000
v 1.735000 1.001000 -6.621000
v 2.001928 1.001000 -6.372000
v 2.003000 1.001000 -6.371000
v 2.002700 1.001000 -6.371280
v 2.003000 1.001000 -6.372000
v 2.002584 1.001000 -6.371000
v 1.046969 1.001000 -4.076952
v 1.020000 1.001000 -4.103000
v 0.945000 1.001000 -4.507000
v 1.019000 1.001000 -5.008000
v 1.222000 1.001000 -5.472000
v 1.500000 1.001000 -5.775000
v 7.653000 1.001000 0.781000
v 1.779000 1.001000 -5.835000
v 1.779217 1.001000 -5.834788
v -0.565000 1.001000 -3.617000
v -0.498000 1.001000 -3.869000
v -0.749000 1.001000 -3.433000
v -0.749000 1.001000 -4.305000
v -0.565000 1.001000 -4.121000
v 1.002000 1.001000 -3.969000
v 7.153000 1.001000 -1.220928
v 7.402000 1.001000 -0.954000
v 7.152280 1.000301 -1.221700
v 7.152000 1.001000 -1.222000
v 7.152280 1.000000 -1.221700
v 7.152280 0.999699 -1.221700
v 7.152280 1.001000 -1.221700
v 7.153000 1.000000 -1.222000
v 7.153000 1.001000 -1.222000
v 6.253000 1.001000 -2.437000
v 6.253000 1.001000 -2.438000
v 7.586000 1.001000 -0.221000
v 7.152000 0.999583 -1.221583
v 7.152000 1.000000 -1.221583
v 5.112679 1.001000 -0.371655
v 7.150604 1.001000 -1.221002
v 7.152000 1.000417 -1.221583
v 7.152000 1.001000 -1.221583
v 5.112679 1.000000 -0.371654
v 5.112577 0.148338 -0.372036
v 3.611000 1.001000 -5.458000
v 5.115000 1.001000 -4.334000
v 4.305000 1.001000 -5.042000
v 5.823000 1.001000 -3.524000
v 6.239000 1.001000 -2.830000
v 6.252963 1.001000 -2.438037
v 6.252965 1.001000 -2.437985
v 6.252292 1.001000 -2.437708
v 5.676011 1.001000 -2.200179
v 3.790638 1.001000 -1.423075
v 3.790000 1.001000 -1.462000
v 4.039000 1.001000 -1.826000
v 5.676000 1.001000 -2.201000
v 5.420000 1.001000 -2.366000
v 4.475000 1.001000 -2.149000
v 4.980000 1.001000 -2.347000
v 6.252963 1.000024 -2.438037
v 6.252963 1.000000 -2.438037
v 1.941000 1.001000 -2.297000
v 2.220000 1.001000 -2.297000
v 2.461000 1.001000 -2.436000
v 2.601000 1.001000 -2.677000
v 2.601000 1.001000 -2.956000
v 6.252963 0.999976 -2.438037
v 6.253000 1.000000 -2.438000
vn 0.0000 -1.0000 0.0000
vn 0.0000 1.0000 -0.0000
vn 0.7071 0.0000 0.7071
vn 0.2579 0.0000 0.9662
vn -0.3806 0.0000 -0.9247
vn 0.3845 0.0000 -0.9231
vn 0.9247 0.0000 0.3807
vn 0.9247 -0.0002 0.3807
vn 0.9247 0.0004 0.3807
vn 0.9776 0.0000 -0.2102
vn 0.3849 0.0000 -0.9230
vn -0.9994 0.0000 -0.0356
vn 0.0000 1.0000 0.0004
vn -0.4996 0.0000 0.8663
vn -0.8577 0.0000 -0.5141
vn 0.4996 0.0000 -0.8662
vn -0.7525 0.0000 -0.6586
vn -0.6581 0.0000 -0.7529
vn -0.5150 0.0000 -0.8572
vn -0.0356 0.0000 -0.9994
vn 0.9247 0.0000 0.3806
vn 0.0000 1.0000 0.0003
vn 0.5657 0.0000 -0.8246
vn 0.8020 0.0000 -0.5973
vn 0.8400 0.0000 0.5426
vn 0.9246 0.0000 0.3809
vn -1.0000 0.0000 0.0000
vn 0.9247 0.0000 0.3808
vn 0.9312 0.0000 -0.3644
vn 0.9229 0.0000 -0.3849
vn 0.9229 0.0000 -0.3850
vn 0.9991 0.0000 -0.0432
vn 0.9231 0.0003 -0.3846
vn 0.0000 0.0000 1.0000
vn 0.9230 0.0005 -0.3847
vn 0.9230 0.0004 -0.3847
vn -0.8647 0.0000 0.5023
vn -0.8647 0.0000 -0.5023
vn -0.8647 0.0000 -0.5024
vn 0.2605 0.0000 0.9655
vn 0.8647 0.0000 0.5023
vn -0.2569 0.0000 -0.9664
vn 0.4996 0.0000 0.8662
vn -0.4996 0.0000 0.8662
vn 0.9230 0.0000 -0.3849
vn 0.9247 0.0000 -0.3808
vn 0.9230 -0.0010 -0.3847
vn -0.0164 0.0000 -0.9999
vn 0.9230 -0.0005 -0.3847
vn 0.0132 0.0000 0.9999
vn 0.9247 0.0000 -0.3806
vn 0.9230 0.0000 -0.3847
vn 0.9231 0.0000 -0.3845
vn -0.3807 0.0000 0.9247
vn 0.9699 0.0000 0.2435
vn 0.7312 0.0000 0.6821
vn 0.7313 0.0000 0.6821
vn 0.7310 0.0000 0.6824
vn 1.0000 0.0000 0.0000
vn -0.3807 0.0002 0.9247
vn -0.3847 0.0000 0.9230
vn -0.3845 0.0000 0.9231
vn -0.3807 0.0008 0.9247
vn -0.1461 0.0000 0.9893
vn -0.3807 0.0004 0.9247
vn -0.4008 0.0000 0.9162
vn -0.6773 0.0000 0.7357
vn -0.9776 0.0000 0.2102
vn 0.7176 0.0000 0.6965
vn -0.3806 0.0000 0.9247
vn 0.1849 0.0000 0.9828
vn -0.3807 -0.0002 0.9247
vn 0.0000 1.0000 -0.0004
vn -0.3808 0.0000 0.9247
vn 0.9994 0.0000 0.0356
vn 0.9994 0.0000 0.0354
vn 0.9994 0.0000 0.0358
vn 0.3848 0.0000 0.9230
vn 0.9994 0.0000 0.0344
vn 0.9993 0.0000 0.0362
vn 0.9994 0.0000 0.0353
vn 0.7095 0.0000 0.7047
vn 0.7120 0.0000 0.7022
vn 0.3846 0.0007 0.9231
vn 0.3848 0.0005 0.9230
vn 0.7128 0.0000 0.7014
vn 0.0000 1.0000 0.0001
vn -0.9652 0.0000 0.2615
vn 0.3849 0.0000 0.9230
vn 0.3786 0.0000 -0.9255
vn 0.7117 0.0000 0.7025
vn 0.3836 0.0000 -0.9235
vn 0.3847 -0.0005 0.9230
vn 0.3831 0.0000 -0.9237
vn 0.3876 0.0000 -0.9218
vn -0.0980 0.0000 0.9952
vn 0.3909 0.0000 -0.9204
vn 0.3801 0.0000 -0.9249
vn -0.2903 0.0000 0.9569
vn 0.8577 0.0000 0.5141
vn 0.7529 0.0000 0.6581
vn -0.4715 0.0000 0.8819
vn 0.6581 0.0000 0.7529
vn -0.6343 0.0000 0.7731
vn 0.5141 0.0000 0.8577
vn 0.0356 0.0000 0.9994
vn -0.7728 0.0000 0.6346
vn -0.7054 -0.0034 -0.7088
vn -0.8821 0.0000 0.4711
vn -0.7071 0.0000 -0.7071
vn -0.7070 0.0000 -0.7072
vn -0.7075 0.0034 -0.7067
vn -0.7069 0.0000 -0.7073
vn 0.0131 0.0000 0.9999
vn -0.9568 0.0000 0.2908
vn -0.9952 0.0000 0.0975
vn -0.5657 0.0000 0.8246
vn -0.8020 0.0000 0.5973
vn -0.9952 0.0000 -0.0975
vn 0.0667 0.0000 -0.9978
vn -0.9310 0.0000 0.3650
vn 0.2435 0.0000 -0.9699
vn 0.6836 0.0000 -0.7299
vn -0.9991 0.0000 0.0431
vn 0.6828 0.0000 -0.7306
vn 0.6841 0.0000 -0.7294
vn 0.0000 0.0000 -1.0000
vn -0.8390 0.0000 -0.5441
vn 0.9231 0.0000 0.3846
vn -0.0127 0.0000 -0.9999
vn 0.6947 0.0000 -0.7193
vn 0.8647 0.0000 -0.5023
vn 0.9832 0.0000 -0.1825
vn 0.9893 0.0000 0.1461
vn 0.9162 0.0000 0.4008
vn 0.7357 0.0000 0.6773
vn 0.8646 0.0005 0.5024
vn 0.2102 0.0000 0.9776
vn -0.6959 0.0000 0.7181
vn 0.9231 0.0000 0.3847
vn -0.5023 0.0000 -0.8647
vn 0.5023 0.0000 -0.8647
vn 0.9229 0.0000 0.3849
vn -0.9247 0.0000 0.3808
vn 0.9230 0.0000 0.3849
vn 0.7325 0.0000 -0.6808
vn 0.7324 0.0000 -0.6809
vn 0.7318 0.0000 -0.6815
vn 0.0000 1.0000 -0.0001
vn 0.7319 0.0000 -0.6814
vn 0.7322 0.0000 -0.6811
vn -0.3848 0.0000 -0.9230
vn -0.3844 0.0000 -0.9232
vn -0.3847 0.0000 -0.9230
vn -0.9247 0.0000 0.3807
vn -0.9247 0.0000 0.3806
vn -0.3851 0.0000 -0.9229
vn 0.9699 0.0000 -0.2435
vn 0.3807 0.0000 -0.9247
vn 0.9978 0.0000 -0.0668
vn 0.9978 0.0000 0.0667
vn 0.3809 0.0003 -0.9246
vn 0.3806 0.0000 -0.9247
vn -1.0000 0.0027 0.0000
vn -1.0000 -0.0027 0.0000
vn 0.2605 0.0000 -0.9655
vn 0.7071 0.0000 -0.7071
vn 0.3809 0.0007 -0.9246
vn 0.9655 -0.0000 -0.2605
vn 0.3808 0.0006 -0.9247
vn -0.9664 0.0000 0.2569
vn -0.9664 0.0000 -0.2569
vn 0.3808 0.0004 -0.9247
vn -0.7052 0.0000 -0.7090
vn 0.0980 0.0000 -0.9952
vn -0.2615 0.0000 -0.9652
vn -0.3849 0.0000 0.9230
vn 0.2903 0.0000 -0.9569
vn -0.3849 0.0000 -0.9230
vn -0.3850 0.0000 -0.9229
vn 0.4715 0.0000 -0.8819
vn -0.9664 0.0008 0.2570
vn 0.6343 0.0000 -0.7731
vn -0.3848 0.0000 0.9230
vn -0.3847 0.0010 -0.9230
vn -0.3847 0.0005 -0.9230
vn 0.3808 0.0000 -0.9247
vn -0.3845 0.0000 -0.9231
vn 0.3809 -0.0007 -0.9246
vn 0.7728 0.0000 -0.6346
vn -0.3843 0.0000 -0.9232
vn -0.3847 -0.0005 -0.9230
vn 0.8821 0.0000 -0.4711
vn 0.3810 0.0000 -0.9246
vn -0.3847 -0.0002 -0.9231
vn 0.9568 0.0000 -0.2906
vn -0.3847 -0.0004 -0.9230
vn -0.3847 -0.0009 -0.9230
vn 0.3811 0.0000 -0.9245
vn 0.9952 0.0000 -0.0975
vn 0.0356 0.0000 -0.9994
vn 0.9952 0.0000 0.0975
vn 0.5150 0.0000 -0.8572
vn 0.6581 0.0000 -0.7529
vn 0.9568 0.0000 0.2908
vn 0.7525 0.0000 -0.6586
vn 0.8577 0.0000 -0.5141
vn -0.9568 0.0000 -0.2906
vn 0.9994 0.0000 -0.0356
vn 0.8821 0.0000 0.4711
vn 0.7728 0.0000 0.6346
vn 0.9999 0.0000 -0.0164
vn -0.8821 0.0000 -0.4711
vn 0.8246 0.0000 0.5657
vn -0.7728 0.0000 -0.6346
vn 0.5965 0.0000 0.8026
vn 0.6343 0.0000 0.7731
vn 0.3650 0.0000 0.9310
vn 0.0431 0.0000 0.9991
vn 0.4715 0.0000 0.8819
vn -0.5441 0.0000 0.8390
vn -0.9999 0.0000 0.0128
vn -0.6343 0.0000 -0.7731
vn 0.2903 0.0000 0.9569
vn 0.0980 0.0000 0.9952
vn -0.6836 0.0000 -0.7299
vn -0.6820 -0.0019 -0.7313
vn -0.6833 0.0000 -0.7301
vn -0.6841 0.0000 -0.7294
vn -0.6886 0.0019 -0.7251
vn -0.6837 0.0000 -0.7297
vn 0.0004 0.0000 -1.0000
vn -0.4715 0.0000 -0.8819
vn -0.9230 0.0010 0.3849
vn 0.3808 0.0000 0.9247
vn -0.9229 -0.0009 0.3849
vn -0.2903 0.0000 -0.9569
vn -0.9230 0.0000 0.3847
vn -0.9230 0.0000 0.3849
vn -0.9232 0.0000 0.3843
vn -0.9229 0.0000 0.3850
vn -0.2435 0.0000 -0.9699
vn -0.0980 0.0000 -0.9952
vn -0.0667 0.0000 -0.9978
vn 0.6821 0.0000 0.7312
vn -0.9247 0.0000 -0.3806
vn 0.0019 0.0000 1.0000
vn 0.6851 0.0000 0.7284
vn -0.9662 0.0000 -0.2579
vn 0.6758 0.0000 0.7371
vn 0.6820 0.0000 0.7313
vn 0.6813 0.0000 0.7320
vn 0.6830 0.0000 0.7304
vn -0.7090 0.0000 -0.7052
vn -0.9247 0.0000 -0.3807
vn -0.2570 0.0000 -0.9664
vn -0.2569 0.0001 -0.9664
vn 0.5023 0.0001 -0.8647
vn 0.2605 -0.0001 0.9655
vn -0.4996 0.0005 0.8662
vn 0.9232 0.0000 -0.3843
vn -0.2605 0.0000 0.9655
vn 0.3806 0.0000 0.9247
vn -0.7071 0.0000 0.7071
vn -0.9247 0.0002 -0.3807
vn 0.9231 0.0000 -0.3847
vn 0.9235 0.0000 -0.3837
vn 0.9232 0.0000 -0.3844
vn 0.2435 0.0000 0.9699
vn -0.9230 0.0000 0.3848
vn -0.9227 0.0000 0.3856
vn 0.0667 0.0000 0.9978
vn -0.9230 0.0003 0.3848
vn -0.0667 0.0000 0.9978
vn -0.9247 0.0000 -0.3808
vn -0.9230 0.0002 0.3848
vn -0.2435 0.0000 0.9699
vn -0.6821 0.0000 0.7312
vn -0.9230 0.0004 0.3847
vn -0.6813 0.0000 0.7320
vn -0.6825 0.0000 0.7309
vn -0.9247 -0.0004 -0.3808
vn -0.9247 -0.0004 -0.3807
vn -0.9232 0.0000 -0.3844
vn -0.9233 0.0000 -0.3840
vn -0.9247 -0.0001 -0.3807
vn 0.0053 0.0000 -1.0000
vn -0.9246 0.0000 -0.3809
vn -0.9230 -0.0010 0.3847
vn -0.0054 0.0000 -1.0000
vn 0.0009 0.0000 -1.0000
vn -0.6947 0.0000 0.7193
vn -0.9230 -0.0003 0.3848
vn -0.9832 0.0000 0.1825
vn -0.9893 0.0000 -0.1461
vn -0.9231 0.0000 0.3847
vn -0.9162 0.0000 -0.4008
vn -0.7369 0.0000 -0.6761
vn -0.9978 0.0000 0.0667
vn -0.9978 0.0000 -0.0668
vn -0.2102 0.0000 -0.9776
vn -0.9699 0.0000 -0.2435
vn -0.7325 0.0000 -0.6808
vn 0.6989 0.0000 -0.7153
vn 0.6973 0.0000 -0.7168
vn -0.7324 0.0000 -0.6809
vn -0.7319 0.0000 -0.6814
vn 0.9664 0.0000 0.2569
vn 0.3850 0.0000 -0.9229
vn -0.2569 -0.0001 -0.9664
vn -0.7193 0.0000 -0.6947
vn 0.2569 0.0000 -0.9664
vn -0.1825 0.0000 -0.9832
vn 0.9664 0.0000 -0.2569
vn -0.9231 0.0000 -0.3845
vn 0.1461 0.0000 -0.9893
vn 0.4008 0.0000 -0.9162
vn 0.6773 0.0000 -0.7357
vn -0.9230 0.0000 -0.3849
vn -0.9229 0.0000 -0.3849
vn -0.2569 0.0000 0.9664
vn -0.7090 0.0000 0.7052
vn -0.7312 0.0000 0.6821
vn -0.7305 0.0000 0.6829
vn -0.7312 0.0000 0.6822
vn -0.7313 0.0000 0.6821
vn -0.7309 0.0000 0.6824
vn 0.3846 0.0000 0.9231
vn 0.3849 0.0000 0.9229
vn 0.3844 0.0000 0.9232
vn -0.9699 0.0000 0.2435
vn 0.9664 0.0008 -0.2570
vn 0.9662 0.0000 0.2579
vn 0.3847 0.0004 0.9230
vn 0.3843 0.0000 0.9232
vn 0.3847 -0.0010 0.9230
vn 0.3845 0.0000 0.9231
vn -0.0356 0.0000 0.9994
vn -0.5141 0.0000 0.8577
vn 0.0000 1.0000 -0.0003
vn -0.6581 0.0000 0.7529
vn -0.7529 0.0000 0.6581
vn -0.8577 0.0000 0.5141
vn -0.9994 0.0000 0.0358
vn -0.9994 0.0000 0.0356
vn -0.9994 0.0000 0.0354
vn -0.9994 0.0000 0.0353
vn -0.7128 0.0000 0.7014
vn -0.7077 0.0000 0.7065
vn -0.7120 0.0000 0.7022
vn -0.7117 0.0000 0.7025
vn -0.3830 0.0000 -0.9237
vn -0.3909 0.0000 -0.9204
vn -0.3798 0.0000 -0.9251
vn 0.7070 0.0000 -0.7072
vn -0.3811 0.0000 -0.9245
vn -0.9999 0.0000 0.0164
vn -0.8254 0.0000 -0.5646
vn -0.5953 0.0000 -0.8035
vn 0.5418 0.0000 -0.8405
vn 0.9999 0.0000 -0.0128
vn -0.3650 0.0000 -0.9310
vn -0.0431 0.0000 -0.9991
vn -0.4996 -0.0001 0.8663
vn 0.4995 0.0000 -0.8663
vn 0.8656 0.0000 -0.5008
usemtl None
s off
f 1//1 2//1 3//1
f 4//2 5//2 6//2
f 7//2 6//2 8//2
f 9//2 5//2 4//2
f 10//3 11//3 12//3
f 10//3 12//3 13//3
f 14//4 15//4 11//4
f 14//4 11//4 10//4
f 16//1 17//1 1//1
f 17//1 18//1 1//1
f 2//1 1//1 19//1
f 20//5 21//5 22//5
f 23//6 24//6 25//6
f 26//5 22//5 21//5
f 27//6 25//6 24//6
f 20//7 22//7 28//7
f 29//8 28//8 22//8
f 30//1 2//1 31//1
f 19//1 31//1 2//1
f 32//2 33//2 34//2
f 32//2 34//2 35//2
f 32//2 35//2 36//2
f 32//2 36//2 37//2
f 32//2 37//2 38//2
f 32//2 38//2 39//2
f 31//1 40//1 30//1
f 29//9 41//9 28//9
f 42//10 43//10 44//10
f 45//2 46//2 47//2
f 48//2 46//2 45//2
f 49//2 47//2 46//2
f 46//2 48//2 50//2
f 46//2 50//2 51//2
f 46//2 51//2 52//2
f 40//1 53//1 54//1
f 54//1 55//1 40//1
f 55//1 30//1 40//1
f 56//2 57//2 39//2
f 39//2 58//2 32//2
f 59//9 60//9 61//9
f 53//1 62//1 63//1
f 53//1 63//1 64//1
f 64//1 54//1 53//1
f 27//11 24//11 65//11
f 27//11 65//11 66//11
f 67//11 68//11 44//11
f 42//11 44//11 68//11
f 69//1 62//1 70//1
f 71//1 72//1 62//1
f 71//1 62//1 53//1
f 60//7 73//7 61//7
f 74//12 75//12 76//12
f 75//12 77//12 76//12
f 78//12 76//12 77//12
f 79//2 80//2 56//2
f 9//2 32//2 81//2
f 82//13 83//13 81//13
f 9//2 81//2 83//2
f 84//14 85//14 86//14
f 77//15 75//15 87//15
f 77//15 87//15 88//15
f 61//16 89//16 90//16
f 88//17 87//17 91//17
f 88//17 91//17 92//17
f 93//5 22//5 26//5
f 94//1 95//1 96//1
f 92//18 91//18 97//18
f 92//18 97//18 98//18
f 52//2 99//2 46//2
f 100//2 101//2 52//2
f 98//19 97//19 102//19
f 98//19 102//19 103//19
f 103//20 102//20 104//20
f 103//20 104//20 105//20
f 84//21 86//21 93//21
f 22//21 93//21 86//21
f 106//1 107//1 108//1
f 107//1 72//1 108//1
f 109//1 107//1 106//1
f 110//1 108//1 72//1
f 111//1 112//1 72//1
f 112//1 110//1 72//1
f 113//22 114//22 100//22
f 114//2 115//2 100//2
f 99//2 52//2 101//2
f 116//2 117//2 118//2
f 119//23 120//23 121//23
f 119//23 121//23 122//23
f 86//8 29//8 22//8
f 123//24 124//24 120//24
f 123//24 120//24 119//24
f 125//1 126//1 127//1
f 128//1 127//1 126//1
f 128//1 126//1 129//1
f 130//1 128//1 131//1
f 132//2 133//2 134//2
f 59//8 61//8 90//8
f 135//2 136//2 132//2
f 137//2 105//2 132//2
f 107//1 70//1 72//1
f 138//1 70//1 107//1
f 70//1 62//1 72//1
f 139//25 140//25 141//25
f 60//26 59//26 142//26
f 137//2 132//2 134//2
f 143//2 144//2 134//2
f 145//2 98//2 146//2
f 147//2 148//2 149//2
f 150//27 151//27 152//27
f 150//27 152//27 153//27
f 154//28 72//28 90//28
f 155//1 156//1 157//1
f 155//1 157//1 158//1
f 124//29 123//29 159//29
f 124//29 159//29 160//29
f 59//28 90//28 72//28
f 161//30 162//30 80//30
f 137//2 134//2 144//2
f 163//31 81//31 164//31
f 165//1 166//1 157//1
f 166//1 167//1 157//1
f 168//32 139//32 160//32
f 168//32 160//32 159//32
f 140//25 139//25 168//25
f 169//2 170//2 171//2
f 169//2 171//2 172//2
f 169//2 172//2 173//2
f 169//2 173//2 174//2
f 169//2 174//2 175//2
f 169//2 175//2 176//2
f 177//33 164//33 81//33
f 178//34 179//34 180//34
f 178//34 180//34 181//34
f 57//35 80//35 182//35
f 162//36 182//36 80//36
f 158//1 183//1 155//1
f 153//37 152//37 184//37
f 153//37 184//37 185//37
f 176//2 186//2 187//2
f 186//2 135//2 105//2
f 105//2 187//2 186//2
f 187//2 188//2 176//2
f 81//36 58//36 177//36
f 189//38 190//38 150//38
f 191//39 189//39 150//39
f 130//40 131//40 192//40
f 193//2 194//2 195//2
f 196//41 197//41 198//41
f 199//41 200//41 197//41
f 177//42 201//42 202//42
f 202//42 128//42 203//42
f 179//43 178//43 199//43
f 179//43 199//43 197//43
f 204//2 193//2 195//2
f 205//1 206//1 207//1
f 181//44 180//44 185//44
f 181//44 185//44 184//44
f 130//45 192//45 208//45
f 162//45 208//45 192//45
f 209//2 193//2 204//2
f 210//46 211//46 212//46
f 193//2 209//2 213//2
f 177//47 214//47 164//47
f 215//46 212//46 211//46
f 216//48 188//48 121//48
f 122//48 121//48 188//48
f 214//49 177//49 202//49
f 217//2 218//2 213//2
f 218//2 78//2 213//2
f 219//2 220//2 77//2
f 193//2 213//2 220//2
f 141//50 140//50 187//50
f 141//50 187//50 221//50
f 192//49 182//49 162//49
f 96//1 222//1 71//1
f 223//2 224//2 225//2
f 226//2 224//2 223//2
f 65//2 224//2 227//2
f 227//2 224//2 226//2
f 188//51 215//51 211//51
f 81//52 163//52 82//52
f 215//51 188//51 216//51
f 72//1 71//1 222//1
f 228//1 111//1 72//1
f 104//51 221//51 105//51
f 222//1 96//1 95//1
f 229//2 14//2 230//2
f 10//2 13//2 230//2
f 14//2 10//2 230//2
f 13//2 231//2 230//2
f 203//53 232//53 202//53
f 214//53 202//53 232//53
f 187//51 105//51 221//51
f 95//1 94//1 233//1
f 43//2 225//2 44//2
f 210//54 212//54 234//54
f 77//2 220//2 78//2
f 235//1 233//1 94//1
f 236//55 237//55 238//55
f 236//55 238//55 239//55
f 220//2 213//2 78//2
f 240//56 241//56 237//56
f 240//56 237//56 236//56
f 242//57 243//57 244//57
f 242//58 244//58 245//58
f 92//2 145//2 88//2
f 246//1 158//1 247//1
f 248//1 247//1 158//1
f 235//1 249//1 246//1
f 94//1 249//1 235//1
f 158//1 246//1 249//1
f 250//59 251//59 241//59
f 250//59 241//59 240//59
f 191//60 234//60 189//60
f 212//54 189//54 234//54
f 98//2 145//2 92//2
f 77//2 88//2 219//2
f 244//61 251//61 250//61
f 244//62 250//62 245//62
f 196//63 198//63 224//63
f 243//27 242//27 252//27
f 243//27 252//27 253//27
f 248//1 158//1 167//1
f 254//1 248//1 167//1
f 103//2 146//2 98//2
f 255//64 256//64 257//64
f 255//64 257//64 258//64
f 76//65 224//65 198//65
f 105//2 137//2 103//2
f 137//2 146//2 103//2
f 219//2 88//2 145//2
f 259//66 260//66 256//66
f 259//66 256//66 255//66
f 261//38 151//38 190//38
f 151//38 150//38 190//38
f 262//1 167//1 263//1
f 264//67 265//67 260//67
f 264//67 260//67 259//67
f 198//41 197//41 200//41
f 266//41 200//41 199//41
f 115//68 267//68 265//68
f 115//68 265//68 264//68
f 158//1 157//1 167//1
f 268//46 212//46 215//46
f 269//69 101//69 270//69
f 269//69 270//69 271//69
f 212//70 268//70 190//70
f 261//70 190//70 268//70
f 271//71 270//71 257//71
f 258//71 257//71 270//71
f 122//2 187//2 119//2
f 123//2 119//2 187//2
f 272//1 273//1 263//1
f 274//1 275//1 263//1
f 273//1 274//1 263//1
f 276//1 272//1 263//1
f 277//1 276//1 263//1
f 253//62 252//62 115//62
f 267//62 115//62 252//62
f 159//2 187//2 168//2
f 123//2 187//2 159//2
f 278//62 99//62 101//62
f 278//62 101//62 269//62
f 279//1 263//1 275//1
f 191//2 150//2 153//2
f 191//2 153//2 185//2
f 191//2 185//2 180//2
f 191//2 180//2 179//2
f 191//2 179//2 197//2
f 191//2 197//2 196//2
f 212//72 190//72 189//72
f 122//2 188//2 187//2
f 140//2 168//2 187//2
f 280//1 281//1 282//1
f 283//1 282//1 281//1
f 281//1 284//1 283//1
f 284//1 85//1 283//1
f 85//1 84//1 283//1
f 200//72 76//72 198//72
f 166//1 285//1 263//1
f 263//1 167//1 166//1
f 286//73 135//73 186//73
f 135//2 132//2 105//2
f 169//2 176//2 188//2
f 188//2 211//2 169//2
f 287//2 169//2 211//2
f 211//2 210//2 287//2
f 224//74 76//74 78//74
f 191//2 196//2 24//2
f 277//1 263//1 285//1
f 288//1 285//1 166//1
f 285//1 206//1 277//1
f 289//75 290//75 291//75
f 292//76 293//76 291//76
f 294//75 291//75 293//75
f 65//2 24//2 196//2
f 196//2 224//2 65//2
f 224//2 78//2 44//2
f 200//74 74//74 76//74
f 290//77 292//77 291//77
f 154//1 283//1 84//1
f 218//2 44//2 78//2
f 44//2 225//2 224//2
f 67//2 44//2 218//2
f 24//2 23//2 191//2
f 234//2 191//2 23//2
f 23//2 20//2 234//2
f 295//75 294//75 293//75
f 74//74 200//74 266//74
f 23//78 25//78 296//78
f 297//79 114//79 298//79
f 299//80 298//80 114//80
f 300//81 114//81 297//81
f 114//81 301//81 299//81
f 302//81 299//81 301//81
f 303//82 304//82 290//82
f 303//83 290//83 289//83
f 305//84 296//84 306//84
f 25//85 306//85 296//85
f 290//86 304//86 292//86
f 305//2 21//2 296//2
f 296//87 20//87 23//87
f 210//2 234//2 20//2
f 20//2 28//2 79//2
f 205//88 307//88 206//88
f 308//2 149//2 148//2
f 309//6 25//6 27//6
f 310//1 228//1 154//1
f 72//1 154//1 228//1
f 154//1 84//1 310//1
f 208//1 310//1 84//1
f 84//1 93//1 208//1
f 311//2 308//2 148//2
f 147//2 149//2 143//2
f 144//2 143//2 149//2
f 307//89 25//89 309//89
f 292//86 304//86 293//86
f 312//2 308//2 313//2
f 311//2 313//2 308//2
f 298//90 304//90 297//90
f 203//1 128//1 130//1
f 129//1 131//1 128//1
f 206//89 307//89 309//89
f 314//2 315//2 312//2
f 315//2 316//2 312//2
f 312//2 316//2 317//2
f 293//3 304//3 318//3
f 293//91 318//91 295//91
f 308//2 312//2 317//2
f 304//92 298//92 299//92
f 25//93 307//93 306//93
f 297//94 304//94 303//94
f 297//95 303//95 300//95
f 308//96 319//96 149//96
f 320//2 321//2 322//2
f 320//2 322//2 323//2
f 324//2 325//2 323//2
f 326//2 325//2 324//2
f 327//2 325//2 326//2
f 328//2 325//2 327//2
f 319//96 308//96 329//96
f 304//97 299//97 318//97
f 302//98 318//98 299//98
f 323//2 325//2 320//2
f 330//2 331//2 328//2
f 332//2 320//2 315//2
f 308//99 317//99 329//99
f 333//100 334//100 291//100
f 333//100 291//100 294//100
f 335//2 336//2 337//2
f 338//99 329//99 317//99
f 339//101 7//101 334//101
f 339//101 334//101 333//101
f 250//1 240//1 340//1
f 236//1 340//1 240//1
f 236//1 239//1 340//1
f 317//102 341//102 342//102
f 317//102 342//102 338//102
f 343//73 344//73 335//73
f 345//103 6//103 7//103
f 345//103 7//103 339//103
f 340//1 346//1 250//1
f 245//1 250//1 242//1
f 347//2 348//2 337//2
f 337//2 349//2 335//2
f 342//104 341//104 350//104
f 342//104 350//104 351//104
f 352//105 4//105 6//105
f 352//105 6//105 345//105
f 353//2 354//2 347//2
f 346//1 355//1 250//1
f 18//106 9//106 4//106
f 18//106 4//106 352//106
f 351//107 356//107 357//107
f 356//2 358//2 349//2
f 354//2 348//2 347//2
f 267//1 301//1 260//1
f 265//1 267//1 260//1
f 256//1 260//1 301//1
f 271//1 257//1 301//1
f 359//108 114//108 360//108
f 349//2 337//2 348//2
f 356//107 351//107 350//107
f 257//1 256//1 301//1
f 356//109 361//109 357//109
f 301//110 114//110 359//110
f 362//111 301//111 359//111
f 363//112 360//112 114//112
f 113//113 363//113 114//113
f 349//109 361//109 356//109
f 355//1 318//1 242//1
f 252//1 242//1 267//1
f 242//1 250//1 355//1
f 364//114 39//114 38//114
f 364//114 38//114 365//114
f 366//2 367//2 368//2
f 369//2 368//2 367//2
f 369//2 367//2 370//2
f 369//2 370//2 371//2
f 348//115 372//115 361//115
f 348//115 361//115 349//115
f 354//116 373//116 372//116
f 354//116 372//116 348//116
f 294//1 295//1 355//1
f 37//117 374//117 365//117
f 37//117 365//117 38//117
f 118//2 46//2 116//2
f 369//2 371//2 375//2
f 375//2 371//2 376//2
f 36//118 377//118 374//118
f 36//118 374//118 37//118
f 355//1 295//1 318//1
f 354//119 378//119 373//119
f 379//120 380//120 148//120
f 379//120 148//120 147//120
f 301//1 242//1 318//1
f 302//1 301//1 318//1
f 35//121 381//121 377//121
f 35//121 377//121 36//121
f 148//122 380//122 382//122
f 148//122 382//122 311//122
f 311//123 382//123 383//123
f 311//123 383//123 313//123
f 34//124 384//124 381//124
f 34//124 381//124 35//124
f 301//1 362//1 269//1
f 314//125 385//125 386//125
f 314//126 386//126 315//126
f 387//2 341//2 388//2
f 294//1 355//1 333//1
f 383//127 389//127 312//127
f 383//127 312//127 313//127
f 33//128 390//128 384//128
f 33//128 384//128 34//128
f 391//2 350//2 387//2
f 314//129 312//129 389//129
f 314//129 389//129 385//129
f 355//1 392//1 333//1
f 393//2 350//2 391//2
f 341//2 317//2 388//2
f 315//34 386//34 394//34
f 315//34 394//34 332//34
f 32//130 395//130 390//130
f 32//130 390//130 33//130
f 345//1 339//1 392//1
f 339//1 333//1 392//1
f 358//2 356//2 393//2
f 341//2 387//2 350//2
f 396//131 328//131 327//131
f 396//131 327//131 397//131
f 47//132 398//132 45//132
f 399//1 19//1 352//1
f 392//1 399//1 345//1
f 18//1 352//1 19//1
f 352//1 345//1 399//1
f 326//133 400//133 397//133
f 326//133 397//133 327//133
f 335//2 349//2 401//2
f 358//2 401//2 349//2
f 350//2 393//2 356//2
f 47//132 402//132 398//132
f 324//134 403//134 400//134
f 324//134 400//134 326//134
f 323//135 404//135 403//135
f 323//135 403//135 324//135
f 49//59 405//59 402//59
f 49//59 402//59 47//59
f 203//1 130//1 364//1
f 406//2 407//2 401//2
f 322//136 408//136 404//136
f 322//136 404//136 323//136
f 409//41 410//41 49//41
f 46//137 409//137 49//137
f 321//138 411//138 408//138
f 321//138 408//138 322//138
f 406//13 412//13 413//13
f 406//2 413//2 414//2
f 406//2 414//2 415//2
f 406//2 415//2 416//2
f 406//2 416//2 417//2
f 406//2 417//2 418//2
f 320//139 419//139 411//139
f 320//139 411//139 321//139
f 374//1 377//1 395//1
f 377//1 381//1 395//1
f 381//1 384//1 395//1
f 390//1 395//1 384//1
f 365//1 374//1 395//1
f 364//1 365//1 395//1
f 52//38 51//38 420//38
f 51//38 421//38 422//38
f 419//140 332//140 394//140
f 421//141 51//141 50//141
f 421//141 50//141 423//141
f 424//140 330//140 328//140
f 424//140 328//140 396//140
f 425//2 426//2 427//2
f 427//2 426//2 428//2
f 427//2 428//2 429//2
f 427//2 429//2 430//2
f 423//127 50//127 48//127
f 423//127 48//127 431//127
f 419//140 320//140 332//140
f 423//1 431//1 421//1
f 431//1 398//1 421//1
f 398//1 402//1 421//1
f 432//1 421//1 405//1
f 431//142 48//142 45//142
f 431//142 45//142 398//142
f 418//2 376//2 406//2
f 433//2 375//2 418//2
f 434//143 330//143 435//143
f 395//1 18//1 17//1
f 19//1 1//1 18//1
f 18//144 395//144 9//144
f 424//145 435//145 330//145
f 39//144 364//144 56//144
f 436//144 56//144 364//144
f 375//2 433//2 437//2
f 433//2 117//2 437//2
f 376//2 418//2 375//2
f 343//2 401//2 407//2
f 438//2 343//2 407//2
f 376//2 407//2 406//2
f 335//2 401//2 343//2
f 439//146 337//146 336//146
f 439//146 336//146 440//146
f 32//144 9//144 395//144
f 17//1 203//1 395//1
f 364//1 395//1 203//1
f 232//1 203//1 17//1
f 130//1 208//1 436//1
f 441//1 436//1 208//1
f 427//2 430//2 442//2
f 442//2 430//2 331//2
f 443//147 343//147 444//147
f 445//148 444//148 446//148
f 116//149 437//149 117//149
f 447//1 421//1 432//1
f 402//1 405//1 421//1
f 448//150 343//150 443//150
f 344//151 343//151 448//151
f 446//151 444//151 343//151
f 336//59 335//59 449//59
f 450//59 440//59 449//59
f 336//59 449//59 440//59
f 449//152 444//152 450//152
f 445//153 450//153 444//153
f 436//1 364//1 130//1
f 448//152 449//152 335//152
f 448//154 335//154 344//154
f 79//155 56//155 451//155
f 451//156 56//156 436//156
f 449//157 443//157 444//157
f 443//154 449//154 448//154
f 330//2 434//2 442//2
f 331//2 330//2 442//2
f 316//2 320//2 325//2
f 325//2 328//2 331//2
f 388//2 317//2 316//2
f 320//2 316//2 315//2
f 452//2 442//2 434//2
f 453//158 347//158 337//158
f 453//158 337//158 439//158
f 79//159 451//159 118//159
f 454//160 353//160 347//160
f 454//160 347//160 453//160
f 454//161 239//161 353//161
f 238//161 353//161 239//161
f 420//162 360//162 100//162
f 363//163 100//163 360//163
f 434//2 287//2 210//2
f 434//2 210//2 452//2
f 117//2 452//2 210//2
f 210//2 20//2 117//2
f 446//27 343//27 455//27
f 446//27 455//27 456//27
f 457//164 343//164 458//164
f 457//165 455//165 343//165
f 438//27 458//27 343//27
f 269//1 271//1 301//1
f 267//1 242//1 301//1
f 362//1 447//1 269//1
f 278//1 269//1 447//1
f 278//1 447//1 432//1
f 20//2 79//2 117//2
f 459//166 366//166 368//166
f 459//166 368//166 460//166
f 369//167 461//167 460//167
f 369//167 460//167 368//167
f 451//168 409//168 118//168
f 462//169 463//169 369//169
f 79//2 118//2 117//2
f 409//170 46//170 118//170
f 464//1 465//1 466//1
f 371//171 467//171 468//171
f 469//171 468//171 467//171
f 467//172 371//172 370//172
f 467//172 370//172 470//172
f 100//173 52//173 420//173
f 470//174 370//174 367//174
f 470//174 367//174 471//174
f 40//175 472//175 53//175
f 473//175 53//175 472//175
f 471//176 367//176 366//176
f 471//176 366//176 459//176
f 474//1 475//1 465//1
f 476//1 475//1 104//1
f 405//41 49//41 410//41
f 405//41 410//41 432//41
f 476//1 477//1 465//1
f 465//1 475//1 476//1
f 104//1 102//1 476//1
f 99//177 278//177 478//177
f 479//177 478//177 278//177
f 477//1 480//1 466//1
f 466//1 465//1 477//1
f 420//38 51//38 422//38
f 422//38 421//38 447//38
f 480//1 319//1 481//1
f 481//1 466//1 480//1
f 473//178 71//178 53//178
f 455//179 468//179 456//179
f 469//179 456//179 468//179
f 441//156 451//156 436//156
f 407//180 458//180 438//180
f 482//178 71//178 473//178
f 451//163 441//163 410//163
f 483//1 484//1 485//1
f 486//1 485//1 484//1
f 487//1 484//1 483//1
f 488//1 484//1 487//1
f 489//181 96//181 71//181
f 489//181 71//181 482//181
f 375//169 462//169 369//169
f 461//169 369//169 463//169
f 376//182 371//182 490//182
f 468//171 490//171 371//171
f 489//183 94//183 96//183
f 491//1 492//1 484//1
f 492//1 486//1 484//1
f 116//184 99//184 478//184
f 493//183 94//183 489//183
f 457//185 490//185 455//185
f 441//163 432//163 410//163
f 183//1 494//1 495//1
f 495//1 155//1 183//1
f 463//186 462//186 478//186
f 360//187 420//187 359//187
f 496//1 494//1 497//1
f 496//1 495//1 494//1
f 498//1 497//1 494//1
f 455//186 490//186 468//186
f 499//1 500//1 501//1
f 497//1 498//1 501//1
f 499//1 501//1 498//1
f 461//169 463//169 502//169
f 503//1 501//1 500//1
f 478//188 479//188 463//188
f 502//188 463//188 479//188
f 504//1 500//1 505//1
f 500//1 506//1 505//1
f 507//1 87//1 506//1
f 499//1 506//1 500//1
f 451//189 410//189 409//189
f 249//190 94//190 508//190
f 493//190 508//190 94//190
f 66//1 509//1 510//1
f 66//1 510//1 511//1
f 66//1 511//1 512//1
f 66//1 512//1 513//1
f 66//1 513//1 42//1
f 458//191 407//191 457//191
f 359//189 420//189 422//189
f 478//192 462//192 437//192
f 514//193 158//193 508//193
f 249//193 508//193 158//193
f 11//1 15//1 12//1
f 12//1 15//1 515//1
f 12//1 515//1 205//1
f 12//1 205//1 207//1
f 100//194 363//194 113//194
f 375//195 437//195 462//195
f 514//196 516//196 158//196
f 505//1 506//1 74//1
f 75//1 74//1 506//1
f 376//197 490//197 407//197
f 457//198 407//198 490//198
f 158//196 516//196 183//196
f 75//1 506//1 87//1
f 447//199 362//199 422//199
f 359//199 422//199 362//199
f 116//188 478//188 437//188
f 91//1 87//1 507//1
f 183//200 194//200 494//200
f 516//200 194//200 183//200
f 97//1 91//1 507//1
f 517//201 518//201 519//201
f 518//201 388//201 519//201
f 316//201 519//201 388//201
f 494//202 194//202 498//202
f 193//202 498//202 194//202
f 388//203 518//203 520//203
f 388//203 520//203 387//203
f 102//1 97//1 476//1
f 507//1 476//1 97//1
f 340//119 373//119 378//119
f 387//204 520//204 521//204
f 387//204 521//204 391//204
f 215//1 216//1 484//1
f 193//205 499//205 498//205
f 522//206 393//206 391//206
f 522//206 391//206 521//206
f 193//205 220//205 499//205
f 523//207 358//207 393//207
f 523//207 393//207 522//207
f 340//208 378//208 346//208
f 524//208 346//208 378//208
f 124//1 160//1 221//1
f 160//1 139//1 221//1
f 120//1 124//1 221//1
f 525//209 401//209 358//209
f 525//209 358//209 523//209
f 220//210 219//210 506//210
f 220//210 506//210 499//210
f 141//1 221//1 139//1
f 219//211 507//211 506//211
f 526//212 418//212 417//212
f 526//212 417//212 527//212
f 528//213 355//213 346//213
f 528//213 346//213 524//213
f 219//211 145//211 507//211
f 416//214 529//214 527//214
f 416//214 527//214 417//214
f 178//1 181//1 199//1
f 181//1 184//1 199//1
f 8//215 355//215 528//215
f 415//216 530//216 529//216
f 415//216 529//216 416//216
f 216//1 121//1 221//1
f 121//1 120//1 221//1
f 146//217 476//217 145//217
f 507//217 145//217 476//217
f 414//218 531//218 530//218
f 414//218 530//218 415//218
f 413//219 532//219 531//219
f 413//219 531//219 414//219
f 8//215 392//215 355//215
f 146//220 477//220 476//220
f 412//221 533//221 532//221
f 412//221 532//221 413//221
f 484//1 534//1 215//1
f 216//1 221//1 491//1
f 475//1 491//1 221//1
f 104//1 475//1 221//1
f 535//1 491//1 475//1
f 484//1 216//1 491//1
f 477//220 146//220 137//220
f 406//222 536//222 533//222
f 406//222 533//222 412//222
f 8//223 399//223 392//223
f 137//224 480//224 477//224
f 27//1 266//1 261//1
f 199//1 184//1 266//1
f 152//1 266//1 184//1
f 480//224 137//224 144//224
f 428//27 537//27 538//27
f 428//27 538//27 429//27
f 5//223 399//223 8//223
f 144//225 149//225 319//225
f 144//225 319//225 480//225
f 425//141 539//141 540//141
f 425//141 540//141 426//141
f 261//1 268//1 309//1
f 133//226 464//226 466//226
f 133//226 466//226 134//226
f 427//127 541//127 539//127
f 427//127 539//127 425//127
f 542//227 135//227 543//227
f 151//1 261//1 266//1
f 309//1 27//1 261//1
f 544//142 545//142 427//142
f 474//228 546//228 475//228
f 135//229 475//229 546//229
f 546//230 543//230 135//230
f 135//231 542//231 136//231
f 430//44 547//44 548//44
f 549//44 548//44 547//44
f 27//1 66//1 266//1
f 152//1 151//1 266//1
f 74//1 266//1 66//1
f 66//1 42//1 74//1
f 505//1 74//1 42//1
f 68//1 505//1 42//1
f 464//232 133//232 550//232
f 132//127 550//127 133//127
f 429//37 538//37 547//37
f 429//37 547//37 430//37
f 5//233 19//233 399//233
f 543//234 550//234 542//234
f 285//1 207//1 206//1
f 537//38 428//38 426//38
f 537//38 426//38 540//38
f 464//127 550//127 465//127
f 551//233 19//233 5//233
f 536//235 406//235 525//235
f 268//1 215//1 534//1
f 550//236 543//236 546//236
f 552//235 433//235 418//235
f 552//235 418//235 526//235
f 551//237 31//237 19//237
f 542//238 550//238 132//238
f 542//239 132//239 136//239
f 206//1 309//1 26//1
f 26//1 277//1 206//1
f 553//237 31//237 551//237
f 550//240 546//240 465//240
f 474//241 465//241 546//241
f 268//1 93//1 309//1
f 401//235 525//235 406//235
f 134//242 466//242 481//242
f 134//242 481//242 143//242
f 40//243 31//243 553//243
f 40//243 553//243 472//243
f 143//244 481//244 379//244
f 143//244 379//244 147//244
f 208//1 93//1 441//1
f 26//1 309//1 93//1
f 554//34 135//34 555//34
f 379//1 481//1 319//1
f 2//245 556//245 557//245
f 2//245 557//245 3//245
f 319//1 329//1 380//1
f 380//1 379//1 319//1
f 519//246 548//246 517//246
f 558//34 555//34 135//34
f 535//34 475//34 554//34
f 475//247 135//247 554//247
f 286//34 558//34 135//34
f 559//248 83//248 560//248
f 329//1 389//1 383//1
f 329//1 383//1 382//1
f 380//1 329//1 382//1
f 385//1 389//1 386//1
f 338//1 389//1 329//1
f 483//249 172//249 171//249
f 483//249 171//249 487//249
f 517//246 548//246 549//246
f 561//250 560//250 83//250
f 562//251 83//251 559//251
f 83//252 17//252 561//252
f 16//253 561//253 17//253
f 170//254 488//254 487//254
f 170//254 487//254 171//254
f 520//1 518//1 342//1
f 338//1 342//1 389//1
f 325//255 519//255 316//255
f 488//256 170//256 563//256
f 564//42 563//42 170//42
f 169//257 564//257 170//257
f 442//258 544//258 427//258
f 541//142 427//142 545//142
f 396//1 397//1 400//1
f 396//1 400//1 403//1
f 396//1 403//1 404//1
f 396//1 404//1 408//1
f 396//1 408//1 411//1
f 396//1 411//1 419//1
f 557//34 565//34 566//34
f 557//34 566//34 3//34
f 176//259 175//259 567//259
f 492//40 568//40 175//40
f 342//1 517//1 386//1
f 394//1 386//1 419//1
f 331//260 430//260 569//260
f 548//44 569//44 430//44
f 560//261 566//261 559//261
f 492//262 175//262 174//262
f 492//262 174//262 486//262
f 570//263 117//263 433//263
f 570//263 433//263 552//263
f 3//34 566//34 1//34
f 173//264 485//264 486//264
f 173//264 486//264 174//264
f 439//1 440//1 450//1
f 445//1 446//1 450//1
f 566//261 560//261 561//261
f 548//265 519//265 569//265
f 172//171 483//171 485//171
f 172//171 485//171 173//171
f 559//266 566//266 565//266
f 559//267 565//267 562//267
f 435//241 287//241 434//241
f 361//1 372//1 439//1
f 439//1 450//1 361//1
f 545//265 544//265 570//265
f 566//53 561//53 1//53
f 16//268 1//268 561//268
f 372//1 373//1 453//1
f 453//1 439//1 372//1
f 30//269 571//269 556//269
f 30//269 556//269 2//269
f 176//270 567//270 186//270
f 558//271 186//271 555//271
f 340//1 239//1 373//1
f 239//1 454//1 373//1
f 454//1 453//1 373//1
f 55//272 572//272 571//272
f 55//272 571//272 30//272
f 169//273 287//273 564//273
f 541//142 545//142 573//142
f 574//263 570//263 552//263
f 54//274 575//274 572//274
f 54//274 572//274 55//274
f 467//1 470//1 471//1
f 459//1 469//1 471//1
f 460//1 469//1 459//1
f 461//1 469//1 460//1
f 467//1 471//1 469//1
f 570//275 574//275 545//275
f 435//276 564//276 287//276
f 64//277 576//277 575//277
f 64//277 575//277 54//277
f 278//1 432//1 479//1
f 63//278 577//278 576//278
f 63//278 576//278 64//278
f 555//279 186//279 567//279
f 573//275 545//275 574//275
f 461//1 502//1 469//1
f 70//280 578//280 579//280
f 70//281 579//281 69//281
f 484//42 488//42 563//42
f 567//40 175//40 568//40
f 491//40 568//40 492//40
f 331//282 569//282 325//282
f 519//283 325//283 569//283
f 62//34 580//34 577//34
f 62//34 577//34 63//34
f 552//1 526//1 502//1
f 574//1 552//1 479//1
f 479//1 441//1 574//1
f 580//284 62//284 69//284
f 580//285 69//285 579//285
f 484//239 563//239 534//239
f 396//1 419//1 517//1
f 544//286 452//286 570//286
f 518//1 517//1 342//1
f 386//1 389//1 342//1
f 452//283 544//283 442//283
f 578//127 70//127 138//127
f 578//127 138//127 581//127
f 435//239 534//239 563//239
f 342//1 351//1 520//1
f 214//287 83//287 164//287
f 117//288 570//288 452//288
f 522//1 521//1 351//1
f 521//1 520//1 351//1
f 555//289 567//289 554//289
f 435//145 424//145 534//145
f 525//1 523//1 361//1
f 357//1 361//1 523//1
f 523//1 522//1 357//1
f 351//1 357//1 522//1
f 163//290 164//290 83//290
f 232//127 17//127 214//127
f 17//291 83//291 214//291
f 82//127 163//127 83//127
f 446//1 525//1 450//1
f 526//1 536//1 469//1
f 228//292 582//292 583//292
f 228//292 583//292 111//292
f 563//293 564//293 435//293
f 529//1 530//1 536//1
f 530//1 531//1 536//1
f 531//1 532//1 536//1
f 533//1 536//1 532//1
f 527//1 529//1 536//1
f 526//1 527//1 536//1
f 568//293 554//293 567//293
f 584//294 112//294 111//294
f 584//294 111//294 583//294
f 186//239 558//239 286//239
f 538//1 537//1 547//1
f 549//1 547//1 540//1
f 537//1 540//1 547//1
f 539//1 549//1 540//1
f 541//1 549//1 539//1
f 112//295 584//295 585//295
f 112//295 585//295 110//295
f 361//1 450//1 525//1
f 554//296 568//296 535//296
f 110//297 585//297 586//297
f 110//297 586//297 108//297
f 535//296 568//296 491//296
f 446//1 469//1 536//1
f 536//1 525//1 446//1
f 469//1 502//1 526//1
f 456//1 469//1 446//1
f 108//298 586//298 587//298
f 108//298 587//298 106//298
f 495//299 496//299 588//299
f 502//1 479//1 552//1
f 588//300 496//300 497//300
f 588//300 497//300 195//300
f 106//301 587//301 589//301
f 106//301 589//301 109//301
f 541//1 573//1 549//1
f 195//302 497//302 501//302
f 195//302 501//302 204//302
f 204//303 501//303 503//303
f 204//303 503//303 209//303
f 590//304 107//304 109//304
f 590//305 109//305 589//305
f 217//306 504//306 505//306
f 217//307 505//307 218//307
f 424//1 396//1 549//1
f 268//1 534//1 574//1
f 574//1 534//1 573//1
f 591//308 129//308 126//308
f 591//308 126//308 592//308
f 593//3 131//3 129//3
f 593//3 129//3 591//3
f 517//1 549//1 396//1
f 419//1 386//1 517//1
f 500//27 213//27 503//27
f 209//27 503//27 213//27
f 131//40 593//40 192//40
f 182//40 192//40 593//40
f 57//259 182//259 593//259
f 217//6 213//6 500//6
f 217//309 500//309 504//309
f 549//1 573//1 424//1
f 432//1 441//1 479//1
f 534//1 424//1 573//1
f 218//59 505//59 68//59
f 218//59 68//59 67//59
f 58//310 201//310 177//310
f 128//42 202//42 201//42
f 268//1 574//1 441//1
f 227//311 509//311 65//311
f 66//311 65//311 509//311
f 128//312 201//312 594//312
f 128//312 594//312 127//312
f 441//1 93//1 268//1
f 595//167 125//167 127//167
f 595//167 127//167 594//167
f 556//2 565//2 557//2
f 509//313 227//313 226//313
f 509//313 226//313 510//313
f 592//314 126//314 125//314
f 592//314 125//314 595//314
f 83//2 562//2 565//2
f 556//2 551//2 565//2
f 565//2 5//2 83//2
f 138//315 107//315 581//315
f 510//316 226//316 223//316
f 510//316 223//316 511//316
f 571//2 553//2 556//2
f 9//2 83//2 5//2
f 582//315 228//315 310//315
f 582//315 310//315 596//315
f 572//2 472//2 571//2
f 8//2 6//2 5//2
f 511//317 223//317 225//317
f 511//317 225//317 512//317
f 581//315 107//315 590//315
f 575//2 472//2 572//2
f 5//2 565//2 551//2
f 512//318 225//318 43//318
f 512//318 43//318 513//318
f 551//2 556//2 553//2
f 553//2 571//2 472//2
f 576//2 473//2 575//2
f 596//319 310//319 162//319
f 596//320 162//320 161//320
f 43//10 42//10 513//10
f 580//2 473//2 577//2
f 576//2 577//2 473//2
f 472//2 575//2 473//2
f 579//2 578//2 580//2
f 578//2 489//2 580//2
f 489//2 482//2 580//2
f 229//321 515//321 15//321
f 229//321 15//321 14//321
f 208//319 162//319 310//319
f 230//322 205//322 515//322
f 230//322 515//322 229//322
f 473//2 580//2 482//2
f 597//323 156//323 155//323
f 597//323 155//323 598//323
f 205//88 230//88 307//88
f 306//88 307//88 230//88
f 305//88 306//88 230//88
f 599//324 600//324 601//324
f 590//2 589//2 587//2
f 590//2 587//2 586//2
f 585//2 60//2 586//2
f 584//2 60//2 585//2
f 583//2 60//2 584//2
f 582//2 60//2 583//2
f 165//325 602//325 166//325
f 600//326 166//326 602//326
f 602//323 601//323 600//323
f 600//327 599//327 603//327
f 156//27 597//27 604//27
f 605//27 604//27 597//27
f 591//2 592//2 593//2
f 57//2 593//2 592//2
f 57//2 592//2 595//2
f 57//2 595//2 594//2
f 57//2 594//2 201//2
f 57//2 201//2 58//2
f 601//78 604//78 599//78
f 586//2 60//2 590//2
f 596//2 73//2 582//2
f 581//87 590//87 578//87
f 156//27 604//27 157//27
f 605//2 597//2 598//2
f 604//328 601//328 602//328
f 600//13 603//13 605//13
f 599//329 604//329 605//329
f 599//330 605//330 603//330
f 598//2 514//2 605//2
f 606//2 514//2 607//2
f 514//2 606//2 605//2
f 608//2 516//2 598//2
f 604//78 602//78 157//78
f 165//328 157//328 602//328
f 588//2 194//2 608//2
f 598//331 155//331 495//331
f 598//331 495//331 608//331
f 588//2 195//2 194//2
f 514//2 598//2 516//2
f 508//2 607//2 514//2
f 516//2 608//2 194//2
f 608//299 495//299 588//299
f 609//59 600//59 610//59
f 611//2 305//2 231//2
f 305//2 230//2 231//2
f 600//2 606//2 612//2
f 613//59 610//59 600//59
f 288//59 166//59 609//59
f 166//59 600//59 609//59
f 614//59 613//59 600//59
f 611//332 231//332 615//332
f 231//314 207//314 616//314
f 285//314 616//314 207//314
f 617//2 489//2 142//2
f 231//333 13//333 207//333
f 12//333 207//333 13//333
f 618//2 493//2 619//2
f 620//2 493//2 618//2
f 617//2 619//2 489//2
f 611//334 615//334 612//334
f 613//335 612//335 610//335
f 610//334 612//334 615//334
f 621//2 508//2 620//2
f 489//2 619//2 493//2
f 615//314 231//314 616//314
f 622//2 508//2 621//2
f 607//2 508//2 622//2
f 493//2 620//2 508//2
f 610//336 615//336 609//336
f 616//93 609//93 615//93
f 623//2 606//2 607//2
f 612//328 613//328 614//328
f 600//2 605//2 606//2
f 616//337 288//337 609//337
f 288//337 616//337 285//337
f 624//2 625//2 606//2
f 612//2 606//2 625//2
f 142//338 59//338 617//338
f 222//338 617//338 59//338
f 222//338 59//338 72//338
f 95//339 619//339 617//339
f 95//339 617//339 222//339
f 626//2 625//2 627//2
f 628//2 627//2 625//2
f 629//340 630//340 625//340
f 631//2 628//2 625//2
f 233//341 618//341 619//341
f 233//341 619//341 95//341
f 632//2 625//2 630//2
f 631//2 625//2 632//2
f 618//342 233//342 235//342
f 618//342 235//342 620//342
f 620//343 235//343 246//343
f 620//343 246//343 621//343
f 633//344 621//344 634//344
f 41//2 635//2 636//2
f 41//2 636//2 637//2
f 41//2 637//2 638//2
f 41//2 638//2 639//2
f 41//2 639//2 89//2
f 41//2 89//2 73//2
f 247//345 640//345 246//345
f 621//345 246//345 640//345
f 640//346 634//346 621//346
f 621//345 633//345 622//345
f 305//2 611//2 626//2
f 21//2 305//2 626//2
f 254//347 167//347 623//347
f 623//347 167//347 606//347
f 634//348 641//348 633//348
f 20//2 296//2 21//2
f 625//2 626//2 611//2
f 611//2 612//2 625//2
f 614//2 600//2 612//2
f 641//348 634//348 640//348
f 633//349 641//349 607//349
f 633//350 607//350 622//350
f 641//264 640//264 248//264
f 247//351 248//351 640//351
f 596//2 161//2 41//2
f 60//2 582//2 73//2
f 73//2 596//2 41//2
f 161//2 79//2 28//2
f 607//352 641//352 623//352
f 248//353 254//353 641//353
f 623//354 641//354 254//354
f 142//2 590//2 60//2
f 489//2 578//2 142//2
f 590//2 142//2 578//2
f 28//2 41//2 161//2
f 606//355 167//355 262//355
f 606//355 262//355 624//355
f 80//2 79//2 161//2
f 262//356 263//356 624//356
f 57//2 56//2 80//2
f 81//2 32//2 58//2
f 58//2 39//2 57//2
f 277//357 626//357 627//357
f 277//357 627//357 276//357
f 237//2 378//2 238//2
f 238//2 354//2 353//2
f 628//358 272//358 276//358
f 628//358 276//358 627//358
f 631//359 273//359 272//359
f 631//359 272//359 628//359
f 251//2 378//2 241//2
f 237//2 241//2 378//2
f 114//2 524//2 251//2
f 238//2 378//2 354//2
f 244//2 243//2 251//2
f 243//2 114//2 251//2
f 275//360 629//360 279//360
f 378//2 251//2 524//2
f 528//2 334//2 8//2
f 625//361 263//361 279//361
f 625//361 279//361 629//361
f 115//2 264//2 259//2
f 255//2 100//2 259//2
f 270//2 100//2 258//2
f 258//2 100//2 255//2
f 284//34 636//34 635//34
f 284//34 635//34 85//34
f 101//2 100//2 270//2
f 632//362 274//362 631//362
f 273//362 631//362 274//362
f 115//2 259//2 100//2
f 99//2 116//2 46//2
f 114//2 243//2 115//2
f 253//2 115//2 243//2
f 274//363 632//363 630//363
f 274//363 630//363 275//363
f 291//2 524//2 289//2
f 629//360 275//360 630//360
f 281//43 637//43 636//43
f 281//43 636//43 284//43
f 114//2 300//2 303//2
f 289//2 524//2 303//2
f 114//2 303//2 524//2
f 85//44 635//44 86//44
f 29//44 86//44 635//44
f 41//364 29//364 635//364
f 334//2 528//2 291//2
f 73//365 89//365 61//365
f 89//16 283//16 90//16
f 154//16 90//16 283//16
f 7//2 8//2 334//2
f 524//2 291//2 528//2
f 639//366 282//366 283//366
f 639//366 283//366 89//366
f 638//59 280//59 282//59
f 638//59 282//59 639//59
f 637//41 281//41 280//41
f 637//41 280//41 638//41
f 626//356 26//356 21//356
f 624//356 263//356 625//356
f 626//356 277//356 26//356
