# Blender v2.82 (sub 7) OBJ File: ''
# www.blender.org
mtllib top_bun.mtl
o Top_Bun
v 1.914000 1.248000 10.401000
v 3.753000 1.248000 9.843000
v 3.536000 2.449000 9.317000
v -3.753000 5.913000 1.527000
v -1.914000 6.278000 1.161000
v -3.827000 5.913000 0.781000
v 9.808000 0.000000 2.732000
v 10.001000 0.000000 0.781000
v 9.808000 1.248000 0.781000
v 9.620000 1.248000 2.694000
v 3.827000 0.000000 -8.458000
v 5.556000 0.000000 -7.534000
v 1.951000 0.000000 10.589000
v 1.951000 0.000000 -9.028000
v 9.239000 0.000000 4.608000
v 7.973000 0.000000 -5.192000
v 7.071000 0.000000 -6.291000
v 0.000000 2.449000 10.020000
v 1.802000 2.449000 9.843000
v 1.622000 3.556000 8.936000
v 0.000000 6.401000 0.781000
v -1.914000 6.278000 0.400000
v -3.753000 5.913000 0.034000
v 9.062000 1.248000 4.534000
v 0.000000 3.556000 9.096000
v -0.000000 0.000000 -9.220000
v 8.315000 0.000000 -4.775000
v 9.239000 0.000000 -3.046000
v 0.000000 1.248000 10.589000
v 8.315000 -0.000000 6.337000
v 9.808000 0.000000 -1.170000
v 0.000000 0.000000 10.781000
v -3.753000 1.248000 -8.281000
v -1.914000 1.248000 -8.839000
v -1.951000 0.000000 -9.028000
v -3.827000 -0.000000 -8.458000
v -3.536000 5.913000 -0.684000
v -0.000000 1.248000 -9.028000
v 7.071000 0.000000 7.852000
v 5.556000 0.000000 9.096000
v 3.827000 0.000000 10.020000
v -3.182000 5.913000 -1.345000
v 0.000000 2.449000 -8.458000
v -1.802000 2.449000 -8.281000
v 8.315000 3.556000 0.781000
v 9.062000 2.449000 2.583000
v 9.239000 2.449000 0.781000
v -3.827000 0.000000 10.020000
v -1.951000 0.000000 10.589000
v -7.071000 0.000000 -6.291000
v -5.556000 0.000000 -7.534000
v -8.315000 0.000000 -4.775000
v -7.071000 0.000000 7.852000
v 8.536000 2.449000 4.317000
v -2.126000 5.913000 3.963000
v -1.084000 6.278000 2.403000
v -2.706000 5.913000 3.487000
v -2.706000 4.526000 -5.752000
v -3.182000 3.556000 -6.901000
v -3.929000 4.526000 -5.099000
v 8.155000 1.248000 6.230000
v -5.973000 0.000000 8.754000
v -5.556000 0.000000 9.096000
v -1.084000 5.322000 -4.668000
v -2.126000 5.322000 -4.352000
v -1.465000 5.913000 -2.755000
v -3.182000 5.913000 2.907000
v -8.315000 0.000000 6.337000
v -9.808000 0.000000 2.732000
v -9.239000 0.000000 4.608000
v -1.380000 4.526000 -6.155000
v -9.239000 0.000000 -3.046000
v -9.808000 0.000000 -1.170000
v -4.620000 5.322000 3.868000
v -10.001000 0.000000 0.781000
v -5.133000 5.322000 2.907000
v -3.536000 5.913000 2.245000
v -0.000000 4.526000 -6.291000
v 9.062000 1.248000 -2.973000
v 9.620000 1.248000 -1.133000
v 0.000000 5.322000 -4.775000
v 5.449000 5.322000 1.865000
v 6.936000 4.526000 2.160000
v 5.556000 5.322000 0.781000
v 7.071000 4.526000 0.781000
v 0.000000 3.556000 -7.534000
v 8.155000 3.556000 2.403000
v 6.533000 4.526000 3.487000
v 8.155000 1.248000 -4.668000
v 7.682000 2.449000 -4.352000
v -6.533000 4.526000 3.487000
v 5.133000 5.322000 2.907000
v -4.620000 3.556000 -6.133000
v -3.536000 2.449000 -7.755000
v 8.536000 2.449000 -2.755000
v 9.062000 2.449000 -1.022000
v -1.622000 3.556000 -7.375000
v 5.880000 4.526000 4.709000
v -5.449000 5.322000 1.865000
v 1.914000 1.248000 -8.839000
v 4.620000 5.322000 3.868000
v 3.753000 1.248000 -8.281000
v -6.936000 4.526000 2.160000
v 1.802000 2.449000 -8.281000
v -5.556000 5.322000 0.781000
v -7.071000 4.526000 0.781000
v 3.536000 2.449000 -7.755000
v 7.682000 3.556000 3.963000
v -8.155000 1.248000 -4.668000
v -6.936000 1.248000 -6.155000
v 6.914000 3.556000 5.400000
v -5.449000 1.248000 -7.375000
v 5.449000 1.248000 -7.375000
v 6.936000 1.248000 -6.155000
v 6.533000 2.449000 -5.752000
v 3.753000 5.913000 0.034000
v 1.914000 6.278000 0.400000
v 3.827000 5.913000 0.781000
v 1.914000 6.278000 1.161000
v 3.753000 5.913000 1.527000
v -8.155000 3.556000 2.403000
v -7.682000 3.556000 3.963000
v -6.533000 2.449000 -5.752000
v -7.682000 2.449000 -4.352000
v -6.914000 3.556000 -3.839000
v -8.315000 3.556000 0.781000
v 1.622000 6.278000 1.865000
v 5.133000 2.449000 -6.901000
v 4.620000 3.556000 -6.133000
v 5.880000 3.556000 -5.099000
v -6.936000 4.526000 -0.599000
v -8.155000 3.556000 -0.841000
v 0.747000 6.278000 2.583000
v -0.747000 5.913000 4.534000
v 0.000000 5.913000 4.608000
v 0.000000 6.278000 2.732000
v -5.880000 3.556000 -5.099000
v -5.000000 4.526000 -4.219000
v -1.084000 5.322000 6.230000
v -0.000000 5.322000 6.337000
v 3.536000 5.913000 2.245000
v -5.133000 2.449000 -6.901000
v -1.380000 4.526000 7.716000
v 0.000000 4.526000 7.852000
v 3.182000 5.913000 2.907000
v -1.465000 5.913000 4.317000
v 2.706000 5.913000 3.487000
v -2.126000 5.322000 5.914000
v -2.706000 4.526000 7.314000
v 1.084000 5.322000 -4.668000
v 1.380000 4.526000 -6.155000
v 2.126000 5.913000 3.963000
v 1.622000 3.556000 -7.375000
v -3.087000 5.322000 5.400000
v -3.929000 4.526000 6.660000
v -3.929000 5.322000 -3.148000
v -3.087000 5.322000 -3.839000
v -2.126000 5.913000 -2.401000
v -1.084000 6.278000 -0.841000
v 2.706000 4.526000 -5.752000
v 3.929000 5.322000 4.709000
v 5.000000 4.526000 5.781000
v 5.880000 3.556000 6.660000
v 2.126000 5.322000 -4.352000
v -3.929000 5.322000 4.709000
v 3.182000 3.556000 -6.901000
v 6.936000 1.248000 7.716000
v -0.747000 5.913000 -2.973000
v -0.000000 5.913000 -3.046000
v -5.449000 5.322000 -0.303000
v 7.682000 2.449000 5.914000
v -1.622000 6.278000 -0.303000
v 3.929000 4.526000 -5.099000
v -4.620000 5.322000 -2.306000
v 6.533000 2.449000 7.314000
v -5.133000 5.322000 -1.345000
v -2.706000 5.913000 -1.925000
v 3.087000 5.322000 -3.839000
v -5.000000 4.526000 5.781000
v 4.620000 3.556000 7.695000
v 5.449000 1.248000 8.936000
v -0.381000 6.278000 -1.133000
v -5.880000 4.526000 4.709000
v 5.000000 4.526000 -4.219000
v 3.087000 5.322000 5.400000
v 3.929000 4.526000 6.660000
v -6.533000 4.526000 -1.925000
v 1.465000 5.913000 4.317000
v 2.126000 5.322000 5.914000
v 2.706000 4.526000 7.314000
v -5.880000 4.526000 -3.148000
v 3.182000 3.556000 8.463000
v 6.533000 4.526000 -1.925000
v 4.620000 5.322000 -2.306000
v 5.133000 5.322000 -1.345000
v -4.620000 3.556000 7.695000
v 0.747000 5.913000 4.534000
v 5.880000 4.526000 -3.148000
v 1.084000 5.322000 6.230000
v 1.380000 4.526000 7.716000
v -5.880000 3.556000 6.660000
v 5.449000 5.322000 -0.303000
v 6.936000 4.526000 -0.599000
v -7.682000 3.556000 -2.401000
v -6.533000 2.449000 7.314000
v -5.133000 2.449000 8.463000
v -6.936000 1.248000 7.716000
v -8.536000 2.449000 -2.755000
v -6.914000 3.556000 5.400000
v 6.914000 3.556000 -3.839000
v -7.682000 2.449000 5.914000
v -9.620000 1.248000 -1.133000
v -9.062000 1.248000 -2.973000
v -8.155000 1.248000 6.230000
v 7.682000 3.556000 -2.401000
v -9.062000 2.449000 -1.022000
v 5.133000 2.449000 8.463000
v -8.536000 2.449000 4.317000
v 8.155000 3.556000 -0.841000
v -1.622000 6.278000 1.865000
v -9.062000 1.248000 4.534000
v -9.620000 1.248000 2.694000
v 0.747000 5.913000 -2.973000
v 0.381000 6.278000 -1.133000
v -9.808000 1.248000 0.781000
v 1.465000 5.913000 -2.755000
v 2.126000 5.913000 -2.401000
v -9.062000 2.449000 2.583000
v 3.929000 5.322000 -3.148000
v -9.239000 2.449000 0.781000
v 1.084000 6.278000 -0.841000
v 2.706000 5.913000 -1.925000
v -1.914000 1.248000 10.401000
v -3.753000 1.248000 9.843000
v 1.622000 6.278000 -0.303000
v 3.182000 5.913000 -1.345000
v -5.449000 1.248000 8.936000
v -1.622000 3.556000 8.936000
v 3.536000 5.913000 -0.684000
v -1.802000 2.449000 9.843000
v -3.182000 3.556000 8.463000
v -3.536000 2.449000 9.317000
vn 0.2626 0.4265 0.8655
vn -0.1910 0.9814 0.0189
vn 0.9836 0.1521 0.0973
vn 0.9838 0.1511 0.0967
vn 0.0000 -1.0000 0.0000
vn 0.9459 0.1512 0.2869
vn 0.0752 0.6393 0.7653
vn -0.0641 0.9979 0.0000
vn -0.1839 0.9828 -0.0182
vn 0.9460 0.1512 0.2869
vn 0.0755 0.6390 0.7655
vn 0.0884 0.4265 0.9002
vn -0.1947 0.9809 0.0000
vn 0.8718 0.1513 0.4659
vn -0.2870 0.1517 -0.9458
vn -0.2874 0.1512 -0.9458
vn -0.0968 0.1518 -0.9837
vn -0.1837 0.9814 -0.0555
vn -0.0971 0.1513 -0.9837
vn -0.1629 0.9828 -0.0872
vn -0.0884 0.4271 -0.8999
vn -0.0889 0.4265 -0.9001
vn 0.7655 0.6390 0.0752
vn 0.9002 0.4265 0.0885
vn 0.9002 0.4264 0.0884
vn 0.8655 0.4265 0.2626
vn -0.1217 0.9814 0.1483
vn 0.8656 0.4264 0.2625
vn -0.2905 0.7871 -0.5441
vn 0.7976 0.4264 0.4266
vn -0.0943 0.9457 -0.3110
vn -0.1428 0.9828 0.1172
vn -0.1354 0.8845 -0.4465
vn -0.2510 0.9458 0.2060
vn -0.1357 0.8844 -0.4466
vn -0.2865 0.9458 0.1529
vn -0.2865 0.9458 0.1532
vn -0.0458 0.8845 -0.4644
vn 0.9460 0.1510 -0.2869
vn -0.0458 0.8844 -0.4644
vn 0.4644 0.8845 0.0458
vn 0.4646 0.8843 0.0455
vn 0.9837 0.1511 -0.0973
vn -0.0605 0.7869 -0.6141
vn 0.6142 0.7869 0.0601
vn 0.4465 0.8844 0.1356
vn 0.7975 0.4264 -0.4268
vn -0.4118 0.8844 0.2198
vn 0.4467 0.8844 0.1355
vn -0.3623 0.6392 -0.6784
vn 0.8655 0.4267 -0.2625
vn 0.8655 0.4264 -0.2627
vn -0.1793 0.7871 -0.5902
vn -0.2233 0.6392 -0.7360
vn 0.9002 0.4265 -0.0884
vn 0.9002 0.4264 -0.0884
vn -0.1794 0.7871 -0.5902
vn 0.4117 0.8844 0.2200
vn -0.3109 0.9458 0.0943
vn 0.0971 0.1518 -0.9836
vn -0.2625 0.4266 -0.8655
vn 0.4119 0.8843 0.2199
vn 0.0968 0.1513 -0.9837
vn 0.2873 0.1517 -0.9457
vn 0.2870 0.1512 -0.9459
vn -0.4466 0.8844 0.1354
vn -0.2237 0.6388 -0.7361
vn -0.4466 0.8844 0.1356
vn -0.2626 0.4265 -0.8655
vn -0.0602 0.7871 -0.6139
vn 0.0889 0.4271 -0.8998
vn 0.0884 0.4265 -0.9002
vn -0.3232 0.9458 0.0319
vn -0.0750 0.6390 -0.7655
vn -0.4644 0.8844 0.0455
vn 0.2626 0.4266 -0.8655
vn -0.4646 0.8843 0.0459
vn 0.6138 0.7872 0.0605
vn -0.0752 0.6389 -0.7656
vn 0.2626 0.4265 -0.8655
vn -0.3233 0.9458 0.0321
vn 0.7653 0.6393 0.0755
vn 0.5902 0.7871 0.1792
vn 0.5905 0.7869 0.1790
vn 0.7359 0.6392 0.2232
vn -0.7645 0.1510 -0.6267
vn 0.7360 0.6391 0.2232
vn 0.5440 0.7871 0.2907
vn -0.6270 0.1511 -0.7642
vn 0.4659 0.1513 -0.8718
vn 0.4658 0.1510 -0.8719
vn -0.4658 0.1513 -0.8719
vn 0.6270 0.1511 -0.7642
vn -0.4659 0.1510 -0.8718
vn 0.7644 0.1516 -0.6266
vn 0.6993 0.4270 -0.5733
vn 0.1910 0.9814 -0.0189
vn 0.7643 0.1517 -0.6268
vn 0.7641 0.1510 -0.6271
vn 0.8717 0.1517 -0.4659
vn 0.3233 0.9458 -0.0320
vn 0.8716 0.1509 -0.4664
vn 0.0641 0.9979 0.0000
vn 0.1839 0.9828 0.0182
vn 0.3232 0.9458 0.0321
vn 0.1947 0.9809 0.0000
vn -0.5903 0.7871 0.1790
vn -0.5904 0.7869 0.1793
vn 0.3233 0.9458 0.0319
vn -0.5947 0.6388 -0.4881
vn 0.3108 0.9458 0.0943
vn -0.6141 0.7869 0.0606
vn 0.0593 0.9979 0.0246
vn 0.4881 0.6388 -0.5947
vn -0.6990 0.4270 -0.5737
vn 0.4881 0.6388 -0.5948
vn -0.6142 0.7869 -0.0601
vn 0.5737 0.4270 -0.6990
vn -0.6995 0.4264 -0.5735
vn 0.0417 0.9978 0.0508
vn -0.0189 0.9814 0.1909
vn -0.3912 0.7873 -0.4766
vn -0.0320 0.9458 0.3232
vn 0.5736 0.4268 -0.6991
vn 0.0125 0.9979 0.0629
vn -0.3916 0.7871 -0.4766
vn -0.0319 0.9458 0.3233
vn 0.1837 0.9814 0.0555
vn -0.4881 0.6388 -0.5947
vn 0.5947 0.6388 -0.4881
vn -0.0459 0.8843 0.4646
vn 0.3110 0.9457 0.0940
vn -0.5735 0.4270 -0.6991
vn 0.6992 0.4264 -0.5739
vn -0.0458 0.8843 0.4646
vn 0.1629 0.9828 0.0871
vn -0.5737 0.4268 -0.6990
vn 0.1797 0.9809 0.0745
vn -0.2906 0.7871 -0.5441
vn 0.2864 0.9458 0.1531
vn -0.3628 0.6388 -0.6784
vn -0.0536 0.9828 0.1767
vn 0.2866 0.9458 0.1530
vn -0.4261 0.4269 -0.7976
vn -0.0535 0.9828 0.1769
vn 0.1483 0.9814 0.1217
vn -0.0943 0.9458 0.3108
vn -0.4265 0.4264 -0.7976
vn -0.0940 0.9457 0.3111
vn -0.1355 0.8844 0.4467
vn 0.0458 0.8845 -0.4643
vn -0.1354 0.8844 0.4467
vn 0.1172 0.9828 0.1428
vn 0.0458 0.8844 -0.4644
vn -0.0906 0.9814 0.1691
vn 0.0605 0.7871 -0.6138
vn -0.1534 0.9458 0.2864
vn -0.1533 0.9457 0.2865
vn 0.0602 0.7869 -0.6141
vn 0.0752 0.6390 -0.7655
vn -0.2201 0.8844 0.4116
vn 0.0751 0.6388 -0.7657
vn -0.2961 0.8844 -0.3608
vn -0.2964 0.8843 -0.3608
vn -0.0906 0.9814 -0.1691
vn 0.5441 0.7871 0.2907
vn 0.1357 0.8845 -0.4464
vn 0.2509 0.9458 0.2062
vn -0.1529 0.9458 -0.2865
vn 0.3609 0.8843 0.2963
vn 0.4767 0.7871 0.3913
vn -0.1534 0.9457 -0.2865
vn 0.1355 0.8844 -0.4467
vn -0.2198 0.8844 -0.4118
vn -0.2061 0.9458 0.2511
vn -0.2199 0.8844 -0.4118
vn 0.8716 0.1517 0.4661
vn 0.1794 0.7871 -0.5902
vn 0.7639 0.1517 0.6273
vn 0.7643 0.1510 0.6270
vn -0.0944 0.9457 -0.3110
vn 0.1793 0.7871 -0.5902
vn 0.2236 0.6392 -0.7358
vn -0.0316 0.9458 -0.3233
vn -0.0319 0.9457 -0.3234
vn -0.3232 0.9458 -0.0320
vn 0.6782 0.6392 0.3627
vn 0.2233 0.6388 -0.7362
vn 0.6784 0.6390 0.3626
vn -0.0592 0.9979 -0.0246
vn 0.7977 0.4264 0.4265
vn -0.1797 0.9809 -0.0746
vn 0.2198 0.8844 -0.4118
vn 0.4768 0.7871 0.3913
vn -0.2863 0.9458 -0.1533
vn 0.5946 0.6391 0.4880
vn 0.2906 0.7871 -0.5441
vn -0.2867 0.9457 -0.1530
vn 0.2906 0.7871 -0.5442
vn -0.1483 0.9814 -0.1217
vn 0.5946 0.6390 0.4880
vn -0.2510 0.9458 -0.2060
vn 0.6991 0.4266 0.5738
vn -0.0454 0.9979 -0.0454
vn 0.6993 0.4264 0.5737
vn -0.2961 0.8844 0.3608
vn -0.1172 0.9828 -0.1428
vn 0.3915 0.7871 0.4766
vn -0.2060 0.9458 -0.2510
vn -0.1376 0.9809 -0.1376
vn 0.3627 0.6392 -0.6782
vn 0.5737 0.4266 0.6992
vn -0.0246 0.9979 -0.0592
vn -0.0537 0.9828 -0.1767
vn -0.0747 0.9809 -0.1797
vn 0.3625 0.6388 -0.6787
vn 0.4264 0.4269 -0.7974
vn -0.2510 0.9458 0.2062
vn -0.0187 0.9814 -0.1910
vn 0.2511 0.9458 0.2061
vn -0.3608 0.8844 0.2962
vn 0.4262 0.4264 -0.7978
vn 0.3607 0.8844 0.2963
vn -0.3233 0.9458 -0.0319
vn 0.2963 0.8844 -0.3607
vn 0.2061 0.9458 0.2511
vn 0.2961 0.8844 0.3608
vn -0.3608 0.8843 0.2964
vn 0.3914 0.7873 -0.4764
vn -0.4643 0.8845 -0.0458
vn 0.3913 0.7871 -0.4768
vn -0.4646 0.8843 -0.0455
vn -0.4118 0.8843 0.2200
vn -0.5440 0.7871 0.2907
vn -0.3108 0.9458 -0.0943
vn -0.4464 0.8845 -0.1357
vn -0.4467 0.8844 -0.1355
vn 0.3912 0.7873 0.4766
vn -0.3111 0.9457 -0.0940
vn 0.0906 0.9814 0.1691
vn 0.1532 0.9458 0.2865
vn 0.2201 0.8844 0.4116
vn 0.2202 0.8844 0.4116
vn 0.1534 0.9457 0.2865
vn -0.4118 0.8844 -0.2198
vn 0.2905 0.7873 0.5439
vn 0.4118 0.8844 -0.2198
vn 0.2909 0.7871 0.5440
vn 0.3623 0.6392 0.6784
vn -0.2908 0.7873 0.5437
vn 0.0555 0.9814 0.1836
vn 0.4118 0.8844 -0.2199
vn -0.3607 0.8844 -0.2963
vn -0.4764 0.7873 -0.3914
vn 0.0940 0.9458 0.3109
vn -0.3610 0.8843 -0.2962
vn 0.0943 0.9457 0.3110
vn 0.1354 0.8844 0.4467
vn -0.3914 0.7872 0.4765
vn 0.4465 0.8845 -0.1354
vn -0.3913 0.7871 0.4768
vn 0.1355 0.8844 0.4467
vn 0.4466 0.8844 -0.1357
vn 0.1790 0.7871 0.5903
vn -0.5902 0.7871 -0.1794
vn -0.5906 0.7869 -0.1791
vn 0.0182 0.9828 0.1839
vn 0.0319 0.9458 0.3232
vn -0.4882 0.6391 0.5943
vn 0.0320 0.9458 0.3233
vn 0.0381 0.9809 0.1908
vn -0.5441 0.7871 -0.2906
vn -0.5738 0.4266 0.6991
vn -0.5442 0.7871 -0.2906
vn 0.4644 0.8845 -0.0454
vn -0.6782 0.6392 -0.3627
vn 0.0458 0.8843 0.4646
vn 0.0605 0.7872 0.6138
vn -0.6787 0.6388 -0.3625
vn 0.0459 0.8843 0.4646
vn 0.4646 0.8843 -0.0459
vn -0.4768 0.7871 0.3913
vn 0.0605 0.7871 0.6138
vn 0.6138 0.7872 -0.0600
vn -0.4768 0.7871 -0.3913
vn -0.5948 0.6388 -0.4881
vn 0.6269 0.1517 0.7641
vn -0.4768 0.7871 0.3914
vn 0.6273 0.1511 0.7640
vn 0.4766 0.7873 -0.3912
vn -0.5946 0.6391 0.4879
vn 0.4659 0.1517 0.8717
vn -0.9460 0.1510 -0.2869
vn 0.4662 0.1513 0.8717
vn 0.2869 0.1512 0.9460
vn -0.5946 0.6390 0.4880
vn 0.4766 0.7871 -0.3916
vn -0.6993 0.4266 0.5736
vn -0.8715 0.1517 -0.4663
vn 0.2870 0.1510 0.9459
vn 0.0966 0.1513 0.9837
vn -0.6992 0.4264 0.5739
vn -0.8719 0.1509 -0.4659
vn -0.7641 0.1517 -0.6270
vn -0.6138 0.7872 -0.0605
vn 0.5441 0.7871 -0.2905
vn 0.0968 0.1511 0.9838
vn -0.7652 0.6393 -0.0755
vn 0.4879 0.6391 0.5945
vn -0.5440 0.7871 0.2908
vn 0.4884 0.6388 0.5945
vn 0.5441 0.7871 -0.2906
vn 0.5739 0.4264 0.6992
vn -0.6783 0.6392 0.3625
vn 0.6784 0.6392 -0.3623
vn -0.7358 0.6394 -0.2233
vn -0.6783 0.6390 0.3627
vn 0.6784 0.6388 -0.3628
vn -0.7360 0.6391 -0.2232
vn 0.7975 0.4267 -0.4265
vn -0.8654 0.4267 -0.2627
vn 0.3628 0.6388 0.6784
vn 0.4265 0.4264 0.7976
vn 0.4266 0.4264 0.7976
vn -0.8656 0.4264 -0.2625
vn 0.5903 0.7871 -0.1790
vn -0.7974 0.4267 -0.4267
vn 0.7358 0.6394 -0.2231
vn -0.7642 0.1517 0.6269
vn 0.2231 0.6392 0.7359
vn -0.7977 0.4264 -0.4265
vn 0.5905 0.7868 -0.1795
vn 0.2233 0.6392 0.7360
vn -0.0191 0.9978 0.0629
vn -0.0454 0.9979 0.0454
vn -0.7640 0.1510 0.6273
vn -0.1376 0.9809 0.1376
vn -0.8717 0.1517 0.4659
vn 0.2625 0.4266 0.8655
vn -0.1692 0.9814 0.0905
vn 0.7359 0.6392 -0.2234
vn -0.0593 0.9979 0.0246
vn -0.1768 0.9828 0.0534
vn -0.8717 0.1513 0.4662
vn 0.6141 0.7869 -0.0606
vn -0.3109 0.9458 0.0939
vn -0.1798 0.9809 0.0746
vn 0.7653 0.6393 -0.0751
vn -0.9460 0.1512 0.2869
vn 0.7655 0.6390 -0.0755
vn 0.0187 0.9814 -0.1910
vn 0.0319 0.9458 -0.3233
vn -0.9836 0.1521 0.0967
vn 0.0316 0.9457 -0.3235
vn -0.9837 0.1512 0.0973
vn -0.9836 0.1521 -0.0973
vn 0.0944 0.9457 -0.3109
vn 0.0943 0.9457 -0.3110
vn -0.9838 0.1511 -0.0966
vn 0.1533 0.9458 -0.2863
vn 0.1530 0.9457 -0.2867
vn -0.7976 0.4264 0.4265
vn -0.7976 0.4264 0.4266
vn -0.7359 0.6392 0.2231
vn -0.7360 0.6392 0.2233
vn -0.8656 0.4265 0.2625
vn 0.2060 0.9458 -0.2510
vn -0.8656 0.4264 0.2626
vn -0.6138 0.7872 0.0601
vn 0.2962 0.8843 -0.3610
vn -0.7653 0.6393 0.0752
vn -0.7655 0.6390 0.0755
vn -0.9002 0.4265 0.0884
vn 0.3608 0.8844 -0.2961
vn 0.3608 0.8843 -0.2964
vn -0.9002 0.4264 0.0885
vn 0.0000 0.9823 -0.1874
vn 0.0557 0.9814 -0.1836
vn -0.7655 0.6390 -0.0752
vn 0.0246 0.9979 -0.0592
vn 0.0872 0.9828 -0.1629
vn -0.9002 0.4265 -0.0884
vn -0.9002 0.4264 -0.0884
vn 0.0746 0.9809 -0.1797
vn -0.0968 0.1513 0.9837
vn 0.1217 0.9814 -0.1483
vn -0.0966 0.1511 0.9838
vn -0.2870 0.1512 0.9459
vn 0.0454 0.9979 -0.0454
vn -0.2869 0.1510 0.9460
vn 0.1428 0.9828 -0.1172
vn -0.4661 0.1517 0.8716
vn -0.4659 0.1513 0.8718
vn 0.1376 0.9809 -0.1376
vn -0.6275 0.1511 0.7638
vn 0.2510 0.9458 -0.2060
vn -0.6268 0.1517 0.7643
vn -0.6269 0.1518 0.7641
vn -0.0605 0.7872 0.6138
vn 0.1691 0.9814 -0.0906
vn 0.2865 0.9458 -0.1529
vn -0.0605 0.7871 0.6138
vn 0.2865 0.9457 -0.1534
vn 0.0592 0.9979 -0.0246
vn 0.1768 0.9828 -0.0534
vn -0.0755 0.6393 0.7653
vn -0.0752 0.6390 0.7655
vn 0.1798 0.9809 -0.0747
vn 0.3109 0.9458 -0.0940
vn -0.0884 0.4265 0.9002
vn 0.3110 0.9457 -0.0943
vn 0.3232 0.9458 -0.0319
vn 0.0000 0.9979 -0.0641
vn -0.1790 0.7871 0.5903
vn -0.2232 0.6392 0.7359
vn -0.2232 0.6391 0.7360
vn 0.9836 0.1521 -0.0966
vn -0.2626 0.4266 0.8655
vn -0.2626 0.4265 0.8655
vn -0.2906 0.7871 0.5441
vn -0.3627 0.6392 0.6782
vn -0.3625 0.6388 0.6787
vn -0.4266 0.4264 0.7976
vn -0.4265 0.4264 0.7977
vn -0.4881 0.6388 0.5947
vn -0.5737 0.4264 0.6993
usemtl None
s off
f 1//1 2//1 3//1
f 4//2 5//2 6//2
f 7//3 8//3 9//3
f 9//4 10//4 7//4
f 11//5 12//5 13//5
f 14//5 11//5 13//5
f 15//6 7//6 10//6
f 16//5 13//5 17//5
f 18//7 19//7 20//7
f 21//8 22//8 5//8
f 23//9 6//9 5//9
f 24//10 15//10 10//10
f 25//11 18//11 20//11
f 26//5 14//5 13//5
f 12//5 17//5 13//5
f 16//5 27//5 13//5
f 28//5 13//5 27//5
f 29//12 1//12 19//12
f 22//13 23//13 5//13
f 18//12 29//12 19//12
f 30//14 15//14 24//14
f 13//5 28//5 31//5
f 13//5 32//5 26//5
f 30//5 13//5 15//5
f 33//15 34//15 35//15
f 36//16 33//16 35//16
f 26//17 35//17 34//17
f 22//18 37//18 23//18
f 7//5 15//5 13//5
f 26//19 34//19 38//19
f 8//5 7//5 13//5
f 31//5 8//5 13//5
f 30//5 39//5 13//5
f 40//5 41//5 39//5
f 42//20 37//20 22//20
f 43//21 38//21 44//21
f 38//22 34//22 44//22
f 45//23 46//23 47//23
f 48//5 35//5 49//5
f 13//5 39//5 41//5
f 10//24 9//24 47//24
f 46//25 10//25 47//25
f 50//5 51//5 52//5
f 36//5 52//5 51//5
f 35//5 53//5 36//5
f 54//26 24//26 46//26
f 55//27 56//27 57//27
f 24//28 10//28 46//28
f 58//29 59//29 60//29
f 61//30 24//30 54//30
f 62//5 35//5 63//5
f 64//31 65//31 66//31
f 67//32 57//32 56//32
f 35//5 26//5 32//5
f 63//5 35//5 48//5
f 68//5 36//5 53//5
f 69//5 36//5 70//5
f 64//33 71//33 65//33
f 52//5 36//5 72//5
f 72//5 36//5 73//5
f 74//34 57//34 67//34
f 71//35 58//35 65//35
f 73//5 36//5 75//5
f 70//5 36//5 68//5
f 75//5 36//5 69//5
f 76//36 74//36 67//36
f 53//5 35//5 62//5
f 32//5 49//5 35//5
f 77//37 76//37 67//37
f 78//38 71//38 64//38
f 79//39 80//39 31//39
f 81//40 78//40 64//40
f 82//41 83//41 84//41
f 31//39 28//39 79//39
f 83//42 85//42 84//42
f 8//43 31//43 80//43
f 78//44 86//44 71//44
f 83//45 87//45 85//45
f 83//46 82//46 88//46
f 89//47 90//47 79//47
f 76//48 91//48 74//48
f 88//49 82//49 92//49
f 93//50 59//50 94//50
f 80//51 79//51 95//51
f 96//52 80//52 95//52
f 97//53 59//53 58//53
f 44//54 94//54 59//54
f 96//55 47//55 9//55
f 9//56 80//56 96//56
f 71//57 97//57 58//57
f 98//58 88//58 92//58
f 99//59 76//59 77//59
f 100//60 14//60 38//60
f 44//61 34//61 94//61
f 101//62 98//62 92//62
f 14//63 26//63 38//63
f 11//64 14//64 100//64
f 102//65 11//65 100//65
f 76//66 99//66 103//66
f 59//67 97//67 44//67
f 103//68 91//68 76//68
f 94//69 34//69 33//69
f 71//70 86//70 97//70
f 100//71 38//71 43//71
f 43//72 104//72 100//72
f 105//73 99//73 4//73
f 86//74 43//74 97//74
f 106//75 103//75 99//75
f 102//76 100//76 104//76
f 105//77 106//77 99//77
f 45//78 85//78 87//78
f 43//79 44//79 97//79
f 104//80 107//80 102//80
f 6//81 105//81 4//81
f 46//82 45//82 87//82
f 108//83 83//83 88//83
f 108//84 87//84 83//84
f 54//85 46//85 87//85
f 109//86 110//86 50//86
f 108//87 54//87 87//87
f 111//88 108//88 88//88
f 110//89 112//89 51//89
f 102//90 12//90 11//90
f 51//89 50//89 110//89
f 12//91 102//91 113//91
f 112//92 33//92 36//92
f 17//93 12//93 113//93
f 113//93 114//93 17//93
f 112//94 36//94 51//94
f 114//95 89//95 16//95
f 115//96 89//96 114//96
f 116//97 117//97 118//97
f 89//98 27//98 16//98
f 16//99 17//99 114//99
f 28//100 27//100 89//100
f 116//101 118//101 84//101
f 89//102 79//102 28//102
f 21//103 119//103 117//103
f 120//104 118//104 117//104
f 82//105 118//105 120//105
f 119//106 120//106 117//106
f 121//107 122//107 91//107
f 103//108 121//108 91//108
f 118//109 82//109 84//109
f 123//110 124//110 125//110
f 92//111 82//111 120//111
f 126//112 121//112 103//112
f 21//113 127//113 119//113
f 115//114 128//114 129//114
f 123//115 110//115 124//115
f 130//116 115//116 129//116
f 106//117 131//117 132//117
f 128//118 115//118 114//118
f 110//119 109//119 124//119
f 21//120 133//120 127//120
f 134//121 135//121 136//121
f 93//122 137//122 138//122
f 135//123 134//123 139//123
f 128//124 114//124 113//124
f 21//125 136//125 133//125
f 93//126 138//126 60//126
f 135//127 139//127 140//127
f 119//128 141//128 120//128
f 93//129 142//129 137//129
f 90//130 115//130 130//130
f 142//129 123//129 137//129
f 139//131 143//131 140//131
f 120//132 141//132 92//132
f 123//133 112//133 110//133
f 90//134 89//134 115//134
f 143//135 144//135 140//135
f 145//136 141//136 119//136
f 142//137 112//137 123//137
f 127//138 145//138 119//138
f 60//139 59//139 93//139
f 145//140 101//140 141//140
f 93//141 94//141 142//141
f 56//142 146//142 136//142
f 101//143 92//143 141//143
f 112//144 142//144 33//144
f 146//145 134//145 136//145
f 145//146 127//146 147//146
f 148//147 139//147 134//147
f 94//148 33//148 142//148
f 146//149 148//149 134//149
f 148//150 149//150 139//150
f 150//151 151//151 81//151
f 149//152 143//152 139//152
f 127//153 133//153 152//153
f 152//153 147//153 127//153
f 151//154 78//154 81//154
f 56//155 55//155 146//155
f 153//156 78//156 151//156
f 55//157 154//157 146//157
f 154//158 148//158 146//158
f 153//159 86//159 78//159
f 104//160 43//160 86//160
f 154//161 155//161 148//161
f 153//162 104//162 86//162
f 156//163 157//163 60//163
f 155//161 149//161 148//161
f 60//164 138//164 156//164
f 158//165 159//165 66//165
f 98//166 111//166 88//166
f 150//167 160//167 151//167
f 161//168 101//168 145//168
f 65//169 157//169 158//169
f 162//170 98//170 101//170
f 162//171 163//171 98//171
f 65//172 158//172 66//172
f 164//173 160//173 150//173
f 65//174 58//174 157//174
f 57//175 165//175 55//175
f 58//176 60//176 157//176
f 61//177 30//177 24//177
f 165//175 154//175 55//175
f 160//178 166//178 151//178
f 39//179 30//179 61//179
f 61//180 167//180 39//180
f 168//181 64//181 66//181
f 151//182 166//182 153//182
f 153//183 166//183 107//183
f 169//184 81//184 168//184
f 81//185 64//185 168//185
f 23//186 170//186 6//186
f 171//187 54//187 108//187
f 153//188 107//188 104//188
f 108//189 111//189 171//189
f 21//190 172//190 22//190
f 61//191 54//191 171//191
f 172//192 42//192 22//192
f 173//193 160//193 164//193
f 98//194 163//194 111//194
f 42//195 174//195 37//195
f 111//196 175//196 171//196
f 166//197 160//197 129//197
f 174//198 176//198 37//198
f 173//199 129//199 160//199
f 42//200 172//200 177//200
f 163//201 175//201 111//201
f 178//193 173//193 164//193
f 156//202 42//202 177//202
f 171//203 175//203 167//203
f 159//204 172//204 21//204
f 171//205 167//205 61//205
f 179//206 155//206 154//206
f 177//207 172//207 158//207
f 180//208 163//208 162//208
f 157//209 177//209 158//209
f 158//210 172//210 159//210
f 165//206 179//206 154//206
f 157//209 156//209 177//209
f 166//211 128//211 107//211
f 175//212 181//212 167//212
f 159//213 21//213 182//213
f 168//214 66//214 159//214
f 159//215 182//215 168//215
f 129//216 128//216 166//216
f 128//217 113//217 107//217
f 165//218 57//218 74//218
f 169//219 168//219 182//219
f 147//220 161//220 145//220
f 183//221 179//221 165//221
f 107//222 113//222 102//222
f 161//223 162//223 101//223
f 105//224 6//224 170//224
f 184//225 173//225 178//225
f 147//226 185//226 161//226
f 185//227 186//227 161//227
f 74//228 183//228 165//228
f 184//229 130//229 173//229
f 131//230 105//230 170//230
f 130//231 129//231 173//231
f 147//226 152//226 185//226
f 131//232 106//232 105//232
f 74//233 91//233 183//233
f 91//234 122//234 183//234
f 186//227 162//227 161//227
f 176//235 170//235 23//235
f 187//236 131//236 170//236
f 176//237 187//237 170//237
f 186//238 180//238 162//238
f 37//239 176//239 23//239
f 133//240 188//240 152//240
f 189//241 185//241 152//241
f 186//242 185//242 190//242
f 189//243 190//243 185//243
f 152//244 188//244 189//244
f 191//245 187//245 176//245
f 186//246 192//246 180//246
f 176//245 174//245 191//245
f 193//247 194//247 195//247
f 192//248 186//248 190//248
f 192//249 3//249 180//249
f 174//202 42//202 156//202
f 196//250 149//250 155//250
f 197//251 188//251 133//251
f 194//252 193//252 198//252
f 138//253 191//253 174//253
f 138//254 137//254 191//254
f 199//255 188//255 197//255
f 156//256 138//256 174//256
f 188//257 199//257 189//257
f 189//258 200//258 190//258
f 201//259 196//259 155//259
f 202//260 203//260 195//260
f 179//261 201//261 155//261
f 199//262 200//262 189//262
f 203//263 193//263 195//263
f 200//264 20//264 190//264
f 187//265 204//265 131//265
f 204//266 132//266 131//266
f 135//267 197//267 133//267
f 199//268 197//268 140//268
f 201//269 205//269 196//269
f 135//270 140//270 197//270
f 136//271 135//271 133//271
f 125//272 204//272 187//272
f 206//273 205//273 207//273
f 191//274 125//274 187//274
f 85//275 203//275 202//275
f 208//276 204//276 124//276
f 144//277 200//277 199//277
f 144//278 25//278 200//278
f 124//279 204//279 125//279
f 140//280 144//280 199//280
f 84//281 85//281 202//281
f 209//282 201//282 179//282
f 200//283 25//283 20//283
f 85//284 45//284 203//284
f 125//285 191//285 137//285
f 137//286 123//286 125//286
f 40//287 167//287 181//287
f 183//288 209//288 179//288
f 40//289 39//289 167//289
f 210//290 130//290 184//290
f 209//291 211//291 201//291
f 41//292 40//292 181//292
f 72//293 73//293 212//293
f 181//294 2//294 41//294
f 90//130 130//130 210//130
f 213//293 72//293 212//293
f 13//295 41//295 2//295
f 211//296 205//296 201//296
f 198//297 210//297 184//297
f 214//298 207//298 205//298
f 109//299 52//299 213//299
f 13//300 2//300 1//300
f 1//301 29//301 32//301
f 211//302 214//302 205//302
f 52//303 72//303 213//303
f 50//304 52//304 109//304
f 106//305 132//305 126//305
f 193//306 215//306 198//306
f 1//307 32//307 13//307
f 216//308 126//308 132//308
f 217//309 175//309 163//309
f 183//310 122//310 209//310
f 180//311 217//311 163//311
f 215//312 210//312 198//312
f 217//313 181//313 175//313
f 209//314 122//314 218//314
f 215//315 95//315 210//315
f 208//316 216//316 132//316
f 218//317 211//317 209//317
f 90//318 210//318 95//318
f 208//319 132//319 204//319
f 95//320 79//320 90//320
f 216//321 208//321 213//321
f 3//322 217//322 180//322
f 3//323 2//323 217//323
f 2//324 181//324 217//324
f 216//325 213//325 212//325
f 219//326 215//326 193//326
f 20//264 192//264 190//264
f 109//327 213//327 208//327
f 219//328 96//328 215//328
f 207//329 214//329 68//329
f 20//330 19//330 192//330
f 208//331 124//331 109//331
f 203//332 219//332 193//332
f 19//333 3//333 192//333
f 136//334 21//334 56//334
f 21//335 220//335 56//335
f 68//336 53//336 207//336
f 220//337 67//337 56//337
f 70//338 68//338 214//338
f 3//339 19//339 1//339
f 220//340 77//340 67//340
f 215//341 96//341 95//341
f 21//342 5//342 220//342
f 4//343 77//343 220//343
f 70//344 214//344 221//344
f 203//345 45//345 219//345
f 4//346 99//346 77//346
f 5//347 4//347 220//347
f 47//348 96//348 219//348
f 221//349 222//349 69//349
f 45//350 47//350 219//350
f 223//351 169//351 224//351
f 69//349 70//349 221//349
f 150//352 81//352 169//352
f 225//353 75//353 222//353
f 223//354 150//354 169//354
f 222//355 75//355 69//355
f 73//356 75//356 225//356
f 226//357 164//357 223//357
f 164//358 150//358 223//358
f 225//359 212//359 73//359
f 178//360 226//360 227//360
f 164//361 226//361 178//361
f 218//362 221//362 211//362
f 221//363 214//363 211//363
f 121//364 228//364 122//364
f 228//365 218//365 122//365
f 222//366 221//366 218//366
f 229//367 178//367 227//367
f 228//368 222//368 218//368
f 103//369 106//369 126//369
f 184//370 178//370 229//370
f 230//371 228//371 121//371
f 121//372 126//372 230//372
f 228//373 230//373 225//373
f 194//374 198//374 229//374
f 198//375 184//375 229//375
f 228//376 225//376 222//376
f 169//377 182//377 224//377
f 223//378 224//378 226//378
f 126//379 216//379 230//379
f 224//380 21//380 231//380
f 227//381 226//381 224//381
f 212//382 225//382 230//382
f 216//383 212//383 230//383
f 231//384 227//384 224//384
f 49//385 32//385 29//385
f 232//386 227//386 231//386
f 29//387 233//387 49//387
f 227//367 232//367 229//367
f 233//388 234//388 48//388
f 21//389 235//389 231//389
f 48//390 49//390 233//390
f 231//391 236//391 232//391
f 234//392 237//392 63//392
f 63//393 48//393 234//393
f 235//394 236//394 231//394
f 62//395 207//395 53//395
f 194//396 229//396 232//396
f 237//397 62//397 63//397
f 237//398 207//398 62//398
f 238//399 25//399 144//399
f 232//396 236//396 194//396
f 235//400 239//400 236//400
f 195//401 194//401 236//401
f 143//402 238//402 144//402
f 236//403 239//403 195//403
f 21//404 117//404 235//404
f 116//405 239//405 235//405
f 238//406 240//406 25//406
f 25//407 240//407 18//407
f 117//408 116//408 235//408
f 116//409 202//409 239//409
f 240//410 233//410 18//410
f 202//411 195//411 239//411
f 116//412 84//412 202//412
f 233//410 29//410 18//410
f 224//413 182//413 21//413
f 241//414 238//414 143//414
f 242//415 240//415 238//415
f 241//416 242//416 238//416
f 149//414 241//414 143//414
f 8//417 80//417 9//417
f 234//418 233//418 240//418
f 240//419 242//419 234//419
f 149//420 196//420 241//420
f 206//421 242//421 241//421
f 206//422 241//422 196//422
f 237//423 234//423 242//423
f 206//424 237//424 242//424
f 196//425 205//425 206//425
f 206//426 207//426 237//426
